#N canvas -8 -8 1366 725 12;
#X obj 206 91 loadbang;
#X msg 206 118 in 18 \, out 17;
#X obj 206 151 s bela_setDigital;
#X obj 204 181 r bela_digitalIn18;
#X obj 204 233 tgl 15 0 empty empty empty 17 7 0 10 -262144 -1 -1 0
1;
#X obj 204 264 s bela_digitalOut17;
#X obj 400 286 kick, f 7;
#X obj 402 365 dac~ 1 2;
#X obj 401 325 *~ 0.5;
#X obj 465 286 snare;
#X obj 461 325 *~ 0.5;
#X obj 400 258 sel 1 0;
#X connect 0 0 1 0;
#X connect 1 0 2 0;
#X connect 3 0 4 0;
#X connect 3 0 11 0;
#X connect 4 0 5 0;
#X connect 6 0 8 0;
#X connect 8 0 7 0;
#X connect 8 0 7 1;
#X connect 9 0 10 0;
#X connect 10 0 7 0;
#X connect 10 0 7 1;
#X connect 11 0 6 0;
#X connect 11 1 9 0;
