#N canvas -8 -8 1370 729 12;
#N canvas -8 -8 1370 729 fm 0;
#X obj 108 131 hsl 128 15 0 127 0 1 \$0-polyfm-pitch-s \$0-polyfm-pitch-r
PITCH 135 7 0 10 -262144 -1 -1 1100 1;
#X obj 320 467 pack f f f;
#X obj 320 328 f;
#X msg 365 184 100;
#X obj 320 393 unpack f f;
#X obj 320 443 poly 4 1;
#X obj 320 492 route 1 2 3 4;
#X obj 108 161 hsl 128 15 0 127 0 1 \$0-polyfm-ratio-s \$0-polyfm-ratio-r
RATIO 135 7 0 10 -262144 -1 -1 100 1;
#X obj 108 211 hsl 128 15 1.27 127 1 1 \$0-polyfm-attack-s \$0-polyfm-attack-r
ATTACK 135 7 0 10 -262144 -1 -1 3800 1;
#X obj 108 226 hsl 128 15 0 127 0 1 \$0-polyfm-hold-s \$0-polyfm-hold-r
HOLD 135 7 0 10 -262144 -1 -1 2600 1;
#X obj 108 240 hsl 128 15 0 127 0 1 \$0-polyfm-release-s \$0-polyfm-release-r
RELEASE 135 7 0 10 -262144 -1 -1 4400 1;
#X obj 320 371 pack f f;
#X obj 320 152 t b b b;
#X obj 491 174 * 127;
#X obj 335 225 +;
#X obj 335 247 clip 0 127;
#X obj 491 208 t b f;
#X obj 320 632 *~ 0.25;
#X obj 678 697 outlet~ EG OUT;
#X obj 678 655 *~ 0.25;
#X obj 108 146 hsl 128 15 0 127 0 1 \$0-polyfm-index-s \$0-polyfm-index-r
INDEX 135 7 0 10 -262144 -1 -1 2700 1;
#N canvas 224 22 962 575 voice1-ahr 0;
#X obj 43 6 inlet;
#X obj 43 28 unpack f f;
#X obj 100 51 sel 0;
#X obj 43 495 *~;
#X obj 43 517 outlet~;
#X obj 609 145 * 0.00787402;
#X obj 608 189 + 1;
#X obj 609 121 - 1.27;
#X obj 593 385 vline~;
#X obj 781 265 * 0.00787402;
#X obj 781 309 + 1;
#X obj 781 241 - 1.27;
#X obj 593 434 *~;
#X obj 593 478 *~;
#X obj 593 219 f;
#X obj 609 167 * 1999;
#X obj 654 210 * 0.00787402;
#X obj 654 232 * 999;
#X obj 654 254 + 1;
#X msg 593 353 1 \$1 \, 0 \$3 \$2;
#X obj 593 241 t f f;
#X obj 593 326 pack f f f;
#X obj 620 293 +;
#X obj 781 287 * 3999;
#X obj 43 210 phasor~;
#X obj 43 328 +~;
#X obj 43 350 cos~;
#X obj 255 60 r \$0-polyfm-ratio-s;
#X obj 240 196 *~;
#X obj 255 82 * 0.00787402;
#X obj 255 104 * 7;
#X obj 255 126 + 1;
#X obj 255 148 pack 0 50;
#X obj 255 170 line~;
#X obj 240 218 osc~;
#X obj 240 240 *~;
#X obj 384 91 r \$0-polyfm-index-s;
#X obj 384 113 * 0.00787402;
#X obj 384 157 pack 0 50;
#X obj 384 179 line~;
#X obj 609 99 r \$0-polyfm-attack-s;
#X obj 654 188 r \$0-polyfm-hold-s;
#X obj 781 217 r \$0-polyfm-release-s;
#X obj 593 508 throw~ \$0-polyfm-eg;
#X obj 384 135 * 1;
#N canvas 0 22 942 604 eg2 0;
#X obj 246 99 * 0.00787402;
#X obj 245 143 + 1;
#X obj 246 75 - 1.27;
#X obj 230 339 vline~;
#X obj 418 219 * 0.00787402;
#X obj 418 263 + 1;
#X obj 418 195 - 1.27;
#X obj 230 388 *~;
#X obj 230 432 *~;
#X obj 230 173 f;
#X obj 246 121 * 1999;
#X obj 291 164 * 0.00787402;
#X obj 291 186 * 999;
#X obj 291 208 + 1;
#X msg 230 307 1 \$1 \, 0 \$3 \$2;
#X obj 230 195 t f f;
#X obj 230 280 pack f f f;
#X obj 257 247 +;
#X obj 418 241 * 3999;
#X obj 246 53 r \$0-polyfm-attack2-s;
#X obj 291 142 r \$0-polyfm-hold2-s;
#X obj 418 171 r \$0-polyfm-release2-s;
#X obj 230 18 inlet;
#X obj 230 454 outlet~;
#X connect 0 0 10 0;
#X connect 1 0 9 1;
#X connect 2 0 0 0;
#X connect 3 0 7 0;
#X connect 3 0 7 1;
#X connect 4 0 18 0;
#X connect 5 0 16 2;
#X connect 6 0 4 0;
#X connect 7 0 8 0;
#X connect 7 0 8 1;
#X connect 8 0 23 0;
#X connect 9 0 15 0;
#X connect 10 0 1 0;
#X connect 11 0 12 0;
#X connect 12 0 13 0;
#X connect 13 0 17 1;
#X connect 14 0 3 0;
#X connect 15 0 16 0;
#X connect 15 1 17 0;
#X connect 16 0 14 0;
#X connect 17 0 16 1;
#X connect 18 0 5 0;
#X connect 19 0 2 0;
#X connect 20 0 11 0;
#X connect 21 0 6 0;
#X connect 22 0 9 0;
#X restore 154 156 pd eg2;
#X obj 139 276 *~;
#X obj 384 201 +~;
#X obj 384 223 clip~ 0 1;
#X obj 450 184 r~ \$0-polyfm-index-cv;
#X obj 717 362 +;
#X obj 717 386 delay;
#X obj 717 410 0;
#X obj 717 434 switch~;
#X obj 747 410 1;
#X obj 127 74 t b b b;
#X obj 43 50 mtof;
#X connect 0 0 1 0;
#X connect 1 0 56 0;
#X connect 1 1 2 0;
#X connect 2 1 55 0;
#X connect 3 0 4 0;
#X connect 5 0 15 0;
#X connect 6 0 14 1;
#X connect 7 0 5 0;
#X connect 8 0 12 0;
#X connect 8 0 12 1;
#X connect 9 0 23 0;
#X connect 10 0 21 2;
#X connect 10 0 50 1;
#X connect 11 0 9 0;
#X connect 12 0 13 0;
#X connect 12 0 13 1;
#X connect 13 0 3 1;
#X connect 13 0 43 0;
#X connect 14 0 20 0;
#X connect 15 0 6 0;
#X connect 16 0 17 0;
#X connect 17 0 18 0;
#X connect 18 0 22 1;
#X connect 19 0 8 0;
#X connect 20 0 21 0;
#X connect 20 1 22 0;
#X connect 21 0 19 0;
#X connect 22 0 21 1;
#X connect 22 0 50 0;
#X connect 23 0 10 0;
#X connect 24 0 25 0;
#X connect 25 0 26 0;
#X connect 26 0 3 0;
#X connect 27 0 29 0;
#X connect 28 0 34 0;
#X connect 29 0 30 0;
#X connect 30 0 31 0;
#X connect 31 0 32 0;
#X connect 32 0 33 0;
#X connect 33 0 28 1;
#X connect 34 0 35 0;
#X connect 35 0 46 0;
#X connect 36 0 37 0;
#X connect 37 0 44 0;
#X connect 38 0 39 0;
#X connect 39 0 47 0;
#X connect 40 0 7 0;
#X connect 41 0 16 0;
#X connect 42 0 11 0;
#X connect 44 0 38 0;
#X connect 45 0 46 1;
#X connect 46 0 25 1;
#X connect 47 0 48 0;
#X connect 48 0 35 1;
#X connect 49 0 47 1;
#X connect 50 0 51 0;
#X connect 51 0 52 0;
#X connect 52 0 53 0;
#X connect 54 0 53 0;
#X connect 55 0 14 0;
#X connect 55 1 45 0;
#X connect 55 2 54 0;
#X connect 56 0 24 0;
#X connect 56 0 28 0;
#X restore 320 518 pd voice1-ahr;
#X obj 103 108 cnv 5 5 5 empty empty TRIG 0 0 0 8 -262144 -226533 0
;
#X obj 105 265 cnv 5 5 5 empty empty modulator-EG 0 0 0 12 -262144
-66577 0;
#X obj 178 121 cnv 5 5 5 empty \$0-instance-num 0 0 0 0 12 -262144
-66577 0;
#X obj 106 113 bng 15 50 50 0 empty empty empty 17 7 0 10 -262144 -226533
-1;
#N canvas 297 27 723 391 parameter-nudging-system 0;
#N canvas 0 22 484 497 param-nudge 0;
#X obj 124 234 random;
#X obj 232 335 f;
#X obj 232 368 +;
#X obj 257 166 random 2;
#X obj 124 275 t f f;
#X obj 124 351 t b f;
#X obj 124 297 *;
#X obj 257 188 sel 0 1;
#X msg 257 280 -1;
#X msg 335 280 1;
#X obj 124 149 t b b b;
#X obj 124 123 r NUDGE!;
#X obj 157 193 r NUDGE-RANGE;
#X obj 247 308 inlet;
#X obj 232 397 outlet;
#X floatatom 316 396 5 0 0 0 - - -;
#X connect 0 0 4 0;
#X connect 1 0 2 0;
#X connect 2 0 14 0;
#X connect 2 0 15 0;
#X connect 3 0 7 0;
#X connect 4 0 6 0;
#X connect 5 0 2 0;
#X connect 5 1 2 1;
#X connect 6 0 5 0;
#X connect 7 0 8 0;
#X connect 7 1 9 0;
#X connect 8 0 6 1;
#X connect 9 0 6 1;
#X connect 10 0 0 0;
#X connect 10 1 1 0;
#X connect 10 2 3 0;
#X connect 11 0 10 0;
#X connect 12 0 0 1;
#X connect 13 0 1 1;
#X restore 23 45 pd param-nudge;
#N canvas 0 22 484 497 param-nudge 0;
#X obj 124 234 random;
#X obj 232 335 f;
#X obj 232 368 +;
#X obj 257 166 random 2;
#X obj 124 275 t f f;
#X obj 124 351 t b f;
#X obj 124 297 *;
#X obj 257 188 sel 0 1;
#X msg 257 280 -1;
#X msg 335 280 1;
#X obj 124 149 t b b b;
#X obj 124 123 r NUDGE!;
#X obj 157 193 r NUDGE-RANGE;
#X obj 247 308 inlet;
#X obj 232 397 outlet;
#X connect 0 0 4 0;
#X connect 1 0 2 0;
#X connect 2 0 14 0;
#X connect 3 0 7 0;
#X connect 4 0 6 0;
#X connect 5 0 2 0;
#X connect 5 1 2 1;
#X connect 6 0 5 0;
#X connect 7 0 8 0;
#X connect 7 1 9 0;
#X connect 8 0 6 1;
#X connect 9 0 6 1;
#X connect 10 0 0 0;
#X connect 10 1 1 0;
#X connect 10 2 3 0;
#X connect 11 0 10 0;
#X connect 12 0 0 1;
#X connect 13 0 1 1;
#X restore 214 47 pd param-nudge;
#N canvas 0 22 484 497 param-nudge 0;
#X obj 124 234 random;
#X obj 232 335 f;
#X obj 232 368 +;
#X obj 257 166 random 2;
#X obj 124 275 t f f;
#X obj 124 351 t b f;
#X obj 124 297 *;
#X obj 257 188 sel 0 1;
#X msg 257 280 -1;
#X msg 335 280 1;
#X obj 124 149 t b b b;
#X obj 124 123 r NUDGE!;
#X obj 157 193 r NUDGE-RANGE;
#X obj 247 308 inlet;
#X obj 232 397 outlet;
#X connect 0 0 4 0;
#X connect 1 0 2 0;
#X connect 2 0 14 0;
#X connect 3 0 7 0;
#X connect 4 0 6 0;
#X connect 5 0 2 0;
#X connect 5 1 2 1;
#X connect 6 0 5 0;
#X connect 7 0 8 0;
#X connect 7 1 9 0;
#X connect 8 0 6 1;
#X connect 9 0 6 1;
#X connect 10 0 0 0;
#X connect 10 1 1 0;
#X connect 10 2 3 0;
#X connect 11 0 10 0;
#X connect 12 0 0 1;
#X connect 13 0 1 1;
#X restore 407 47 pd param-nudge;
#N canvas 0 22 484 497 param-nudge 0;
#X obj 124 234 random;
#X obj 232 335 f;
#X obj 232 368 +;
#X obj 257 166 random 2;
#X obj 124 275 t f f;
#X obj 124 351 t b f;
#X obj 124 297 *;
#X obj 257 188 sel 0 1;
#X msg 257 280 -1;
#X msg 335 280 1;
#X obj 124 149 t b b b;
#X obj 124 123 r NUDGE!;
#X obj 157 193 r NUDGE-RANGE;
#X obj 247 308 inlet;
#X obj 232 397 outlet;
#X connect 0 0 4 0;
#X connect 1 0 2 0;
#X connect 2 0 14 0;
#X connect 3 0 7 0;
#X connect 4 0 6 0;
#X connect 5 0 2 0;
#X connect 5 1 2 1;
#X connect 6 0 5 0;
#X connect 7 0 8 0;
#X connect 7 1 9 0;
#X connect 8 0 6 1;
#X connect 9 0 6 1;
#X connect 10 0 0 0;
#X connect 10 1 1 0;
#X connect 10 2 3 0;
#X connect 11 0 10 0;
#X connect 12 0 0 1;
#X connect 13 0 1 1;
#X restore 21 149 pd param-nudge;
#N canvas 0 22 484 497 param-nudge 0;
#X obj 124 234 random;
#X obj 232 335 f;
#X obj 232 368 +;
#X obj 257 166 random 2;
#X obj 124 275 t f f;
#X obj 124 351 t b f;
#X obj 124 297 *;
#X obj 257 188 sel 0 1;
#X msg 257 280 -1;
#X msg 335 280 1;
#X obj 124 149 t b b b;
#X obj 124 123 r NUDGE!;
#X obj 157 193 r NUDGE-RANGE;
#X obj 247 308 inlet;
#X obj 232 397 outlet;
#X connect 0 0 4 0;
#X connect 1 0 2 0;
#X connect 2 0 14 0;
#X connect 3 0 7 0;
#X connect 4 0 6 0;
#X connect 5 0 2 0;
#X connect 5 1 2 1;
#X connect 6 0 5 0;
#X connect 7 0 8 0;
#X connect 7 1 9 0;
#X connect 8 0 6 1;
#X connect 9 0 6 1;
#X connect 10 0 0 0;
#X connect 10 1 1 0;
#X connect 10 2 3 0;
#X connect 11 0 10 0;
#X connect 12 0 0 1;
#X connect 13 0 1 1;
#X restore 213 151 pd param-nudge;
#X obj 21 171 clip 0 127;
#X obj 213 173 clip 0 127;
#X obj 23 67 clip 0 127;
#X obj 214 69 clip 0 127;
#X obj 407 71 clip 0 127;
#N canvas 0 22 484 497 param-nudge 0;
#X obj 124 234 random;
#X obj 232 335 f;
#X obj 232 368 +;
#X obj 257 166 random 2;
#X obj 124 275 t f f;
#X obj 124 351 t b f;
#X obj 124 297 *;
#X obj 257 188 sel 0 1;
#X msg 257 280 -1;
#X msg 335 280 1;
#X obj 124 149 t b b b;
#X obj 124 123 r NUDGE!;
#X obj 157 193 r NUDGE-RANGE;
#X obj 247 308 inlet;
#X obj 232 397 outlet;
#X connect 0 0 4 0;
#X connect 1 0 2 0;
#X connect 2 0 14 0;
#X connect 3 0 7 0;
#X connect 4 0 6 0;
#X connect 5 0 2 0;
#X connect 5 1 2 1;
#X connect 6 0 5 0;
#X connect 7 0 8 0;
#X connect 7 1 9 0;
#X connect 8 0 6 1;
#X connect 9 0 6 1;
#X connect 10 0 0 0;
#X connect 10 1 1 0;
#X connect 10 2 3 0;
#X connect 11 0 10 0;
#X connect 12 0 0 1;
#X connect 13 0 1 1;
#X restore 409 151 pd param-nudge;
#X obj 409 173 clip 0 127;
#N canvas 0 22 484 497 param-nudge 0;
#X obj 124 234 random;
#X obj 232 335 f;
#X obj 232 368 +;
#X obj 257 166 random 2;
#X obj 124 275 t f f;
#X obj 124 351 t b f;
#X obj 124 297 *;
#X obj 257 188 sel 0 1;
#X msg 257 280 -1;
#X msg 335 280 1;
#X obj 124 149 t b b b;
#X obj 124 123 r NUDGE!;
#X obj 157 193 r NUDGE-RANGE;
#X obj 247 308 inlet;
#X obj 232 397 outlet;
#X connect 0 0 4 0;
#X connect 1 0 2 0;
#X connect 2 0 14 0;
#X connect 3 0 7 0;
#X connect 4 0 6 0;
#X connect 5 0 2 0;
#X connect 5 1 2 1;
#X connect 6 0 5 0;
#X connect 7 0 8 0;
#X connect 7 1 9 0;
#X connect 8 0 6 1;
#X connect 9 0 6 1;
#X connect 10 0 0 0;
#X connect 10 1 1 0;
#X connect 10 2 3 0;
#X connect 11 0 10 0;
#X connect 12 0 0 1;
#X connect 13 0 1 1;
#X restore 25 264 pd param-nudge;
#N canvas 0 22 484 497 param-nudge 0;
#X obj 124 234 random;
#X obj 232 335 f;
#X obj 232 368 +;
#X obj 257 166 random 2;
#X obj 124 275 t f f;
#X obj 124 351 t b f;
#X obj 124 297 *;
#X obj 257 188 sel 0 1;
#X msg 257 280 -1;
#X msg 335 280 1;
#X obj 124 149 t b b b;
#X obj 124 123 r NUDGE!;
#X obj 157 193 r NUDGE-RANGE;
#X obj 247 308 inlet;
#X obj 232 397 outlet;
#X connect 0 0 4 0;
#X connect 1 0 2 0;
#X connect 2 0 14 0;
#X connect 3 0 7 0;
#X connect 4 0 6 0;
#X connect 5 0 2 0;
#X connect 5 1 2 1;
#X connect 6 0 5 0;
#X connect 7 0 8 0;
#X connect 7 1 9 0;
#X connect 8 0 6 1;
#X connect 9 0 6 1;
#X connect 10 0 0 0;
#X connect 10 1 1 0;
#X connect 10 2 3 0;
#X connect 11 0 10 0;
#X connect 12 0 0 1;
#X connect 13 0 1 1;
#X restore 217 266 pd param-nudge;
#X obj 25 286 clip 0 127;
#X obj 217 288 clip 0 127;
#N canvas 0 22 484 497 param-nudge 0;
#X obj 124 234 random;
#X obj 232 335 f;
#X obj 232 368 +;
#X obj 257 166 random 2;
#X obj 124 275 t f f;
#X obj 124 351 t b f;
#X obj 124 297 *;
#X obj 257 188 sel 0 1;
#X msg 257 280 -1;
#X msg 335 280 1;
#X obj 124 149 t b b b;
#X obj 124 123 r NUDGE!;
#X obj 157 193 r NUDGE-RANGE;
#X obj 247 308 inlet;
#X obj 232 397 outlet;
#X connect 0 0 4 0;
#X connect 1 0 2 0;
#X connect 2 0 14 0;
#X connect 3 0 7 0;
#X connect 4 0 6 0;
#X connect 5 0 2 0;
#X connect 5 1 2 1;
#X connect 6 0 5 0;
#X connect 7 0 8 0;
#X connect 7 1 9 0;
#X connect 8 0 6 1;
#X connect 9 0 6 1;
#X connect 10 0 0 0;
#X connect 10 1 1 0;
#X connect 10 2 3 0;
#X connect 11 0 10 0;
#X connect 12 0 0 1;
#X connect 13 0 1 1;
#X restore 413 266 pd param-nudge;
#X obj 413 288 clip 0 127;
#X obj 23 22 r \$0-polyfm-pitch-s;
#X obj 23 95 s \$0-polyfm-pitch-r;
#X obj 214 24 r \$0-polyfm-index-s;
#X obj 214 97 s \$0-polyfm-index-r;
#X obj 407 24 r \$0-polyfm-ratio-s;
#X obj 407 97 s \$0-polyfm-ratio-r;
#X obj 21 126 r \$0-polyfm-attack-s;
#X obj 21 198 s \$0-polyfm-attack-r;
#X obj 213 128 r \$0-polyfm-hold-s;
#X obj 213 199 s \$0-polyfm-hold-r;
#X obj 409 128 r \$0-polyfm-release-s;
#X obj 409 199 s \$0-polyfm-release-r;
#X obj 25 241 r \$0-polyfm-attack2-s;
#X obj 25 313 s \$0-polyfm-attack2-r;
#X obj 217 243 r \$0-polyfm-hold2-s;
#X obj 217 314 s \$0-polyfm-hold2-r;
#X obj 413 243 r \$0-polyfm-release2-s;
#X obj 413 314 s \$0-polyfm-release2-r;
#X connect 0 0 7 0;
#X connect 1 0 8 0;
#X connect 2 0 9 0;
#X connect 3 0 5 0;
#X connect 4 0 6 0;
#X connect 5 0 25 0;
#X connect 6 0 27 0;
#X connect 7 0 19 0;
#X connect 8 0 21 0;
#X connect 9 0 23 0;
#X connect 10 0 11 0;
#X connect 11 0 29 0;
#X connect 12 0 14 0;
#X connect 13 0 15 0;
#X connect 14 0 31 0;
#X connect 15 0 33 0;
#X connect 16 0 17 0;
#X connect 17 0 35 0;
#X connect 18 0 0 0;
#X connect 20 0 1 0;
#X connect 22 0 2 0;
#X connect 24 0 3 0;
#X connect 26 0 4 0;
#X connect 28 0 10 0;
#X connect 30 0 12 0;
#X connect 32 0 13 0;
#X connect 34 0 16 0;
#X restore 101 350 pd parameter-nudging-system;
#X obj 270 330 cnv 5 5 5 empty empty ENV 0 0 0 8 -262144 -1 0;
#X obj 104 330 cnv 5 5 5 empty empty LEFT 0 0 0 8 -262144 -1 0;
#X obj 184 330 cnv 5 5 5 empty empty RIGHT 0 0 0 8 -262144 -1 0;
#X obj 261 108 cnv 5 5 5 empty empty INDEX 0 0 0 8 -262144 -66577 0
;
#X obj 320 707 outlet~ LEFT;
#X obj 678 633 catch~ \$0-polyfm-eg;
#X obj 335 203 r \$0-polyfm-pitch-s;
#X obj 108 274 hsl 128 15 1.27 127 1 1 \$0-polyfm-attack2-s \$0-polyfm-attack2-r
ATTACK 135 7 0 10 -262144 -1 -1 400 1;
#X obj 108 289 hsl 128 15 0 127 0 1 \$0-polyfm-hold2-s \$0-polyfm-hold2-r
HOLD 135 7 0 10 -262144 -1 -1 400 1;
#X obj 108 303 hsl 128 15 0 127 0 1 \$0-polyfm-release2-s \$0-polyfm-release2-r
RELEASE 135 7 0 10 -262144 -1 -1 900 1;
#X obj 128 121 cnv 5 5 5 empty empty polyFM 0 0 0 12 -262144 -66577
0;
#X obj 105 202 cnv 5 5 5 empty empty carrier-EG 0 0 0 12 -262144 -66577
0;
#X obj 651 18 inlet~ INDEX CV;
#X obj 651 40 s~ \$0-polyfm-index-cv;
#N canvas 224 22 962 575 voice2-ahr 0;
#X obj 43 6 inlet;
#X obj 43 28 unpack f f;
#X obj 100 51 sel 0;
#X obj 43 495 *~;
#X obj 43 517 outlet~;
#X obj 609 145 * 0.00787402;
#X obj 608 189 + 1;
#X obj 609 121 - 1.27;
#X obj 593 385 vline~;
#X obj 781 265 * 0.00787402;
#X obj 781 309 + 1;
#X obj 781 241 - 1.27;
#X obj 593 434 *~;
#X obj 593 478 *~;
#X obj 593 219 f;
#X obj 609 167 * 1999;
#X obj 654 210 * 0.00787402;
#X obj 654 232 * 999;
#X obj 654 254 + 1;
#X msg 593 353 1 \$1 \, 0 \$3 \$2;
#X obj 593 241 t f f;
#X obj 593 326 pack f f f;
#X obj 620 293 +;
#X obj 781 287 * 3999;
#X obj 43 210 phasor~;
#X obj 43 328 +~;
#X obj 43 350 cos~;
#X obj 255 60 r \$0-polyfm-ratio-s;
#X obj 240 196 *~;
#X obj 255 82 * 0.00787402;
#X obj 255 104 * 7;
#X obj 255 126 + 1;
#X obj 255 148 pack 0 50;
#X obj 255 170 line~;
#X obj 240 218 osc~;
#X obj 240 240 *~;
#X obj 384 91 r \$0-polyfm-index-s;
#X obj 384 113 * 0.00787402;
#X obj 384 157 pack 0 50;
#X obj 384 179 line~;
#X obj 609 99 r \$0-polyfm-attack-s;
#X obj 654 188 r \$0-polyfm-hold-s;
#X obj 781 217 r \$0-polyfm-release-s;
#X obj 593 508 throw~ \$0-polyfm-eg;
#X obj 384 135 * 1;
#N canvas 0 22 942 604 eg2 0;
#X obj 246 99 * 0.00787402;
#X obj 245 143 + 1;
#X obj 246 75 - 1.27;
#X obj 230 339 vline~;
#X obj 418 219 * 0.00787402;
#X obj 418 263 + 1;
#X obj 418 195 - 1.27;
#X obj 230 388 *~;
#X obj 230 432 *~;
#X obj 230 173 f;
#X obj 246 121 * 1999;
#X obj 291 164 * 0.00787402;
#X obj 291 186 * 999;
#X obj 291 208 + 1;
#X msg 230 307 1 \$1 \, 0 \$3 \$2;
#X obj 230 195 t f f;
#X obj 230 280 pack f f f;
#X obj 257 247 +;
#X obj 418 241 * 3999;
#X obj 246 53 r \$0-polyfm-attack2-s;
#X obj 291 142 r \$0-polyfm-hold2-s;
#X obj 418 171 r \$0-polyfm-release2-s;
#X obj 230 18 inlet;
#X obj 230 454 outlet~;
#X connect 0 0 10 0;
#X connect 1 0 9 1;
#X connect 2 0 0 0;
#X connect 3 0 7 0;
#X connect 3 0 7 1;
#X connect 4 0 18 0;
#X connect 5 0 16 2;
#X connect 6 0 4 0;
#X connect 7 0 8 0;
#X connect 7 0 8 1;
#X connect 8 0 23 0;
#X connect 9 0 15 0;
#X connect 10 0 1 0;
#X connect 11 0 12 0;
#X connect 12 0 13 0;
#X connect 13 0 17 1;
#X connect 14 0 3 0;
#X connect 15 0 16 0;
#X connect 15 1 17 0;
#X connect 16 0 14 0;
#X connect 17 0 16 1;
#X connect 18 0 5 0;
#X connect 19 0 2 0;
#X connect 20 0 11 0;
#X connect 21 0 6 0;
#X connect 22 0 9 0;
#X restore 154 156 pd eg2;
#X obj 139 276 *~;
#X obj 384 201 +~;
#X obj 384 223 clip~ 0 1;
#X obj 450 184 r~ \$0-polyfm-index-cv;
#X obj 737 383 +;
#X obj 737 407 delay;
#X obj 737 431 0;
#X obj 737 455 switch~;
#X obj 767 431 1;
#X obj 127 74 t b b b;
#X obj 43 50 mtof;
#X connect 0 0 1 0;
#X connect 1 0 56 0;
#X connect 1 1 2 0;
#X connect 2 1 55 0;
#X connect 3 0 4 0;
#X connect 5 0 15 0;
#X connect 6 0 14 1;
#X connect 7 0 5 0;
#X connect 8 0 12 0;
#X connect 8 0 12 1;
#X connect 9 0 23 0;
#X connect 10 0 21 2;
#X connect 10 0 50 1;
#X connect 11 0 9 0;
#X connect 12 0 13 0;
#X connect 12 0 13 1;
#X connect 13 0 3 1;
#X connect 13 0 43 0;
#X connect 14 0 20 0;
#X connect 15 0 6 0;
#X connect 16 0 17 0;
#X connect 17 0 18 0;
#X connect 18 0 22 1;
#X connect 19 0 8 0;
#X connect 20 0 21 0;
#X connect 20 1 22 0;
#X connect 21 0 19 0;
#X connect 22 0 21 1;
#X connect 22 0 50 0;
#X connect 23 0 10 0;
#X connect 24 0 25 0;
#X connect 25 0 26 0;
#X connect 26 0 3 0;
#X connect 27 0 29 0;
#X connect 28 0 34 0;
#X connect 29 0 30 0;
#X connect 30 0 31 0;
#X connect 31 0 32 0;
#X connect 32 0 33 0;
#X connect 33 0 28 1;
#X connect 34 0 35 0;
#X connect 35 0 46 0;
#X connect 36 0 37 0;
#X connect 37 0 44 0;
#X connect 38 0 39 0;
#X connect 39 0 47 0;
#X connect 40 0 7 0;
#X connect 41 0 16 0;
#X connect 42 0 11 0;
#X connect 44 0 38 0;
#X connect 45 0 46 1;
#X connect 46 0 25 1;
#X connect 47 0 48 0;
#X connect 48 0 35 1;
#X connect 49 0 47 1;
#X connect 50 0 51 0;
#X connect 51 0 52 0;
#X connect 52 0 53 0;
#X connect 54 0 53 0;
#X connect 55 0 14 0;
#X connect 55 1 45 0;
#X connect 55 2 54 0;
#X connect 56 0 24 0;
#X connect 56 0 28 0;
#X restore 338 545 pd voice2-ahr;
#N canvas 224 22 962 575 voice3-ahr 0;
#X obj 43 6 inlet;
#X obj 43 28 unpack f f;
#X obj 100 51 sel 0;
#X obj 43 495 *~;
#X obj 43 517 outlet~;
#X obj 609 145 * 0.00787402;
#X obj 608 189 + 1;
#X obj 609 121 - 1.27;
#X obj 593 385 vline~;
#X obj 781 265 * 0.00787402;
#X obj 781 309 + 1;
#X obj 781 241 - 1.27;
#X obj 593 434 *~;
#X obj 593 478 *~;
#X obj 593 219 f;
#X obj 609 167 * 1999;
#X obj 654 210 * 0.00787402;
#X obj 654 232 * 999;
#X obj 654 254 + 1;
#X msg 593 353 1 \$1 \, 0 \$3 \$2;
#X obj 593 241 t f f;
#X obj 593 326 pack f f f;
#X obj 620 293 +;
#X obj 781 287 * 3999;
#X obj 43 210 phasor~;
#X obj 43 328 +~;
#X obj 43 350 cos~;
#X obj 255 60 r \$0-polyfm-ratio-s;
#X obj 240 196 *~;
#X obj 255 82 * 0.00787402;
#X obj 255 104 * 7;
#X obj 255 126 + 1;
#X obj 255 148 pack 0 50;
#X obj 255 170 line~;
#X obj 240 218 osc~;
#X obj 240 240 *~;
#X obj 384 91 r \$0-polyfm-index-s;
#X obj 384 113 * 0.00787402;
#X obj 384 157 pack 0 50;
#X obj 384 179 line~;
#X obj 609 99 r \$0-polyfm-attack-s;
#X obj 654 188 r \$0-polyfm-hold-s;
#X obj 781 217 r \$0-polyfm-release-s;
#X obj 593 508 throw~ \$0-polyfm-eg;
#X obj 384 135 * 1;
#N canvas 0 22 942 604 eg2 0;
#X obj 246 99 * 0.00787402;
#X obj 245 143 + 1;
#X obj 246 75 - 1.27;
#X obj 230 339 vline~;
#X obj 418 219 * 0.00787402;
#X obj 418 263 + 1;
#X obj 418 195 - 1.27;
#X obj 230 388 *~;
#X obj 230 432 *~;
#X obj 230 173 f;
#X obj 246 121 * 1999;
#X obj 291 164 * 0.00787402;
#X obj 291 186 * 999;
#X obj 291 208 + 1;
#X msg 230 307 1 \$1 \, 0 \$3 \$2;
#X obj 230 195 t f f;
#X obj 230 280 pack f f f;
#X obj 257 247 +;
#X obj 418 241 * 3999;
#X obj 246 53 r \$0-polyfm-attack2-s;
#X obj 291 142 r \$0-polyfm-hold2-s;
#X obj 418 171 r \$0-polyfm-release2-s;
#X obj 230 18 inlet;
#X obj 230 454 outlet~;
#X connect 0 0 10 0;
#X connect 1 0 9 1;
#X connect 2 0 0 0;
#X connect 3 0 7 0;
#X connect 3 0 7 1;
#X connect 4 0 18 0;
#X connect 5 0 16 2;
#X connect 6 0 4 0;
#X connect 7 0 8 0;
#X connect 7 0 8 1;
#X connect 8 0 23 0;
#X connect 9 0 15 0;
#X connect 10 0 1 0;
#X connect 11 0 12 0;
#X connect 12 0 13 0;
#X connect 13 0 17 1;
#X connect 14 0 3 0;
#X connect 15 0 16 0;
#X connect 15 1 17 0;
#X connect 16 0 14 0;
#X connect 17 0 16 1;
#X connect 18 0 5 0;
#X connect 19 0 2 0;
#X connect 20 0 11 0;
#X connect 21 0 6 0;
#X connect 22 0 9 0;
#X restore 154 156 pd eg2;
#X obj 139 276 *~;
#X obj 384 201 +~;
#X obj 384 223 clip~ 0 1;
#X obj 450 184 r~ \$0-polyfm-index-cv;
#X obj 737 383 +;
#X obj 737 407 delay;
#X obj 737 431 0;
#X obj 737 455 switch~;
#X obj 767 431 1;
#X obj 127 74 t b b b;
#X obj 43 50 mtof;
#X connect 0 0 1 0;
#X connect 1 0 56 0;
#X connect 1 1 2 0;
#X connect 2 1 55 0;
#X connect 3 0 4 0;
#X connect 5 0 15 0;
#X connect 6 0 14 1;
#X connect 7 0 5 0;
#X connect 8 0 12 0;
#X connect 8 0 12 1;
#X connect 9 0 23 0;
#X connect 10 0 21 2;
#X connect 10 0 50 1;
#X connect 11 0 9 0;
#X connect 12 0 13 0;
#X connect 12 0 13 1;
#X connect 13 0 3 1;
#X connect 13 0 43 0;
#X connect 14 0 20 0;
#X connect 15 0 6 0;
#X connect 16 0 17 0;
#X connect 17 0 18 0;
#X connect 18 0 22 1;
#X connect 19 0 8 0;
#X connect 20 0 21 0;
#X connect 20 1 22 0;
#X connect 21 0 19 0;
#X connect 22 0 21 1;
#X connect 22 0 50 0;
#X connect 23 0 10 0;
#X connect 24 0 25 0;
#X connect 25 0 26 0;
#X connect 26 0 3 0;
#X connect 27 0 29 0;
#X connect 28 0 34 0;
#X connect 29 0 30 0;
#X connect 30 0 31 0;
#X connect 31 0 32 0;
#X connect 32 0 33 0;
#X connect 33 0 28 1;
#X connect 34 0 35 0;
#X connect 35 0 46 0;
#X connect 36 0 37 0;
#X connect 37 0 44 0;
#X connect 38 0 39 0;
#X connect 39 0 47 0;
#X connect 40 0 7 0;
#X connect 41 0 16 0;
#X connect 42 0 11 0;
#X connect 44 0 38 0;
#X connect 45 0 46 1;
#X connect 46 0 25 1;
#X connect 47 0 48 0;
#X connect 48 0 35 1;
#X connect 49 0 47 1;
#X connect 50 0 51 0;
#X connect 51 0 52 0;
#X connect 52 0 53 0;
#X connect 54 0 53 0;
#X connect 55 0 14 0;
#X connect 55 1 45 0;
#X connect 55 2 54 0;
#X connect 56 0 24 0;
#X connect 56 0 28 0;
#X restore 357 574 pd voice3-ahr;
#N canvas 224 22 962 575 voice4-ahr 0;
#X obj 43 6 inlet;
#X obj 43 28 unpack f f;
#X obj 100 51 sel 0;
#X obj 43 495 *~;
#X obj 43 517 outlet~;
#X obj 609 145 * 0.00787402;
#X obj 608 189 + 1;
#X obj 609 121 - 1.27;
#X obj 593 385 vline~;
#X obj 781 265 * 0.00787402;
#X obj 781 309 + 1;
#X obj 781 241 - 1.27;
#X obj 593 434 *~;
#X obj 593 478 *~;
#X obj 593 219 f;
#X obj 609 167 * 1999;
#X obj 654 210 * 0.00787402;
#X obj 654 232 * 999;
#X obj 654 254 + 1;
#X msg 593 353 1 \$1 \, 0 \$3 \$2;
#X obj 593 241 t f f;
#X obj 593 326 pack f f f;
#X obj 620 293 +;
#X obj 781 287 * 3999;
#X obj 43 210 phasor~;
#X obj 43 328 +~;
#X obj 43 350 cos~;
#X obj 255 60 r \$0-polyfm-ratio-s;
#X obj 240 196 *~;
#X obj 255 82 * 0.00787402;
#X obj 255 104 * 7;
#X obj 255 126 + 1;
#X obj 255 148 pack 0 50;
#X obj 255 170 line~;
#X obj 240 218 osc~;
#X obj 240 240 *~;
#X obj 384 91 r \$0-polyfm-index-s;
#X obj 384 113 * 0.00787402;
#X obj 384 157 pack 0 50;
#X obj 384 179 line~;
#X obj 609 99 r \$0-polyfm-attack-s;
#X obj 654 188 r \$0-polyfm-hold-s;
#X obj 781 217 r \$0-polyfm-release-s;
#X obj 593 508 throw~ \$0-polyfm-eg;
#X obj 384 135 * 1;
#N canvas 0 22 942 604 eg2 0;
#X obj 246 99 * 0.00787402;
#X obj 245 143 + 1;
#X obj 246 75 - 1.27;
#X obj 230 339 vline~;
#X obj 418 219 * 0.00787402;
#X obj 418 263 + 1;
#X obj 418 195 - 1.27;
#X obj 230 388 *~;
#X obj 230 432 *~;
#X obj 230 173 f;
#X obj 246 121 * 1999;
#X obj 291 164 * 0.00787402;
#X obj 291 186 * 999;
#X obj 291 208 + 1;
#X msg 230 307 1 \$1 \, 0 \$3 \$2;
#X obj 230 195 t f f;
#X obj 230 280 pack f f f;
#X obj 257 247 +;
#X obj 418 241 * 3999;
#X obj 246 53 r \$0-polyfm-attack2-s;
#X obj 291 142 r \$0-polyfm-hold2-s;
#X obj 418 171 r \$0-polyfm-release2-s;
#X obj 230 18 inlet;
#X obj 230 454 outlet~;
#X connect 0 0 10 0;
#X connect 1 0 9 1;
#X connect 2 0 0 0;
#X connect 3 0 7 0;
#X connect 3 0 7 1;
#X connect 4 0 18 0;
#X connect 5 0 16 2;
#X connect 6 0 4 0;
#X connect 7 0 8 0;
#X connect 7 0 8 1;
#X connect 8 0 23 0;
#X connect 9 0 15 0;
#X connect 10 0 1 0;
#X connect 11 0 12 0;
#X connect 12 0 13 0;
#X connect 13 0 17 1;
#X connect 14 0 3 0;
#X connect 15 0 16 0;
#X connect 15 1 17 0;
#X connect 16 0 14 0;
#X connect 17 0 16 1;
#X connect 18 0 5 0;
#X connect 19 0 2 0;
#X connect 20 0 11 0;
#X connect 21 0 6 0;
#X connect 22 0 9 0;
#X restore 154 156 pd eg2;
#X obj 139 276 *~;
#X obj 384 201 +~;
#X obj 384 223 clip~ 0 1;
#X obj 450 184 r~ \$0-polyfm-index-cv;
#X obj 737 383 +;
#X obj 737 407 delay;
#X obj 737 431 0;
#X obj 737 455 switch~;
#X obj 767 431 1;
#X obj 127 74 t b b b;
#X obj 43 50 mtof;
#X connect 0 0 1 0;
#X connect 1 0 56 0;
#X connect 1 1 2 0;
#X connect 2 1 55 0;
#X connect 3 0 4 0;
#X connect 5 0 15 0;
#X connect 6 0 14 1;
#X connect 7 0 5 0;
#X connect 8 0 12 0;
#X connect 8 0 12 1;
#X connect 9 0 23 0;
#X connect 10 0 21 2;
#X connect 10 0 50 1;
#X connect 11 0 9 0;
#X connect 12 0 13 0;
#X connect 12 0 13 1;
#X connect 13 0 3 1;
#X connect 13 0 43 0;
#X connect 14 0 20 0;
#X connect 15 0 6 0;
#X connect 16 0 17 0;
#X connect 17 0 18 0;
#X connect 18 0 22 1;
#X connect 19 0 8 0;
#X connect 20 0 21 0;
#X connect 20 1 22 0;
#X connect 21 0 19 0;
#X connect 22 0 21 1;
#X connect 22 0 50 0;
#X connect 23 0 10 0;
#X connect 24 0 25 0;
#X connect 25 0 26 0;
#X connect 26 0 3 0;
#X connect 27 0 29 0;
#X connect 28 0 34 0;
#X connect 29 0 30 0;
#X connect 30 0 31 0;
#X connect 31 0 32 0;
#X connect 32 0 33 0;
#X connect 33 0 28 1;
#X connect 34 0 35 0;
#X connect 35 0 46 0;
#X connect 36 0 37 0;
#X connect 37 0 44 0;
#X connect 38 0 39 0;
#X connect 39 0 47 0;
#X connect 40 0 7 0;
#X connect 41 0 16 0;
#X connect 42 0 11 0;
#X connect 44 0 38 0;
#X connect 45 0 46 1;
#X connect 46 0 25 1;
#X connect 47 0 48 0;
#X connect 48 0 35 1;
#X connect 49 0 47 1;
#X connect 50 0 51 0;
#X connect 51 0 52 0;
#X connect 52 0 53 0;
#X connect 54 0 53 0;
#X connect 55 0 14 0;
#X connect 55 1 45 0;
#X connect 55 2 54 0;
#X connect 56 0 24 0;
#X connect 56 0 28 0;
#X restore 376 601 pd voice4-ahr;
#X obj 431 708 outlet~ RIGHT;
#X obj 320 674 *~ 0.33;
#X obj 431 675 *~ 0.33;
#X obj 258 630 *~ 0.5;
#X obj 431 637 *~ 0.5;
#X floatatom 105 176 5 0 0 0 - #0-polyfm-ratio-gui-r -;
#X obj 530 290 r \$0-polyfm-ratio-s;
#X obj 530 312 / 127;
#X obj 530 334 * 7;
#X obj 530 356 + 1;
#X obj 530 400 s \$0-polyfm-ratio-gui-r;
#X obj 185 108 cnv 5 5 5 empty empty PITCH 0 0 0 8 -262144 -66577 0
;
#X obj 491 55 inlet PITCH CV;
#X obj 320 61 inlet TRIG;
#X connect 1 0 6 0;
#X connect 2 0 11 0;
#X connect 3 0 11 1;
#X connect 4 0 5 0;
#X connect 4 1 5 1;
#X connect 5 0 1 0;
#X connect 5 1 1 1;
#X connect 5 2 1 2;
#X connect 6 0 21 0;
#X connect 6 1 41 0;
#X connect 6 2 42 0;
#X connect 6 3 43 0;
#X connect 11 0 4 0;
#X connect 12 0 2 0;
#X connect 12 1 3 0;
#X connect 13 0 16 0;
#X connect 14 0 15 0;
#X connect 15 0 2 1;
#X connect 16 0 14 0;
#X connect 16 1 14 1;
#X connect 17 0 45 0;
#X connect 17 0 46 0;
#X connect 19 0 18 0;
#X connect 21 0 17 0;
#X connect 21 0 47 0;
#X connect 32 0 19 0;
#X connect 33 0 14 0;
#X connect 39 0 40 0;
#X connect 41 0 17 0;
#X connect 41 0 48 0;
#X connect 42 0 47 0;
#X connect 42 0 17 0;
#X connect 43 0 17 0;
#X connect 43 0 48 0;
#X connect 45 0 31 0;
#X connect 46 0 44 0;
#X connect 47 0 45 0;
#X connect 48 0 46 0;
#X connect 50 0 51 0;
#X connect 51 0 52 0;
#X connect 52 0 53 0;
#X connect 53 0 54 0;
#X connect 56 0 13 0;
#X connect 57 0 12 0;
#X coords 0 -1 1 1 200 245 1 100 100;
#X restore 221 136 pd fm;
#X obj 320 109 hsl 128 15 0 1 0 0 empty empty empty -2 -8 0 10 -262144
-1 -1 0 1;
#X obj 221 99 metro 250;
#X obj 221 73 tgl 15 0 empty empty empty 17 7 0 10 -262144 -1 -1 1
1;
#X obj 221 11 loadbang;
#X msg 222 39 1;
#X obj 221 527 dac~ 1 2;
#N canvas -8 -8 1370 729 grandel 0;
#X obj 106 332 inlet~;
#X obj 107 133 hsl 128 15 0 127 0 1 \$0-gran-fx-pitch-s \$0-gran-fx-pitch-r
PITCH 133 7 0 10 -262144 -1 -1 300 1;
#X obj 107 148 hsl 128 15 0 127 0 1 \$0-gran-fx-grainsize-s \$0-gran-fx-grainsize-r
GRAIN 133 7 0 10 -262144 -1 -1 1900 1;
#X obj 484 29 r \$0-gran-fx-pitch-s;
#X obj 365 5 r \$0-gran-fx-grainsize-s;
#X obj 365 27 / 127;
#X obj 365 130 t b f;
#X floatatom 392 173 5 0 0 0 - - -;
#X obj 484 148 * 64;
#X obj 484 192 t b f;
#X obj 392 215 expr (pow(2 \, ($f2/12)) - 1) * (44100/$f1);
#X obj 392 191 t f f;
#X obj 365 49 * 44100;
#X obj 154 482 *~;
#X obj 107 178 hsl 128 15 0 127 0 1 \$0-gran-fx-dry/wet-s \$0-gran-fx-dry/wet-r
DRY/WET 133 7 0 10 -262144 -1 -1 6900 1;
#X obj 216 399 / 127;
#X obj 216 443 pack 0 50;
#X obj 216 465 line~;
#X obj 106 520 delwrite~ \$0-cloud1 8000;
#X obj 110 268 hsl 128 15 0 127 0 1 \$0-gran-fx-fback-s \$0-gran-fx-fback-r
FEEDBACK 133 7 0 10 -262144 -1 -1 0 1;
#X obj 107 163 hsl 128 15 0 127 0 1 \$0-gran-fx-reverb-s \$0-gran-fx-reverb-r
REVERB 133 7 0 10 -262144 -1 -1 9500 1;
#N canvas 261 37 872 596 reader-1&2 0;
#X obj 297 122 / 44.1;
#X obj 107 236 *~ -1;
#X obj 107 258 +~ 1;
#X obj 107 328 *~;
#X obj 122 281 sig~;
#X obj 122 303 samphold~;
#X obj 107 350 vd~ \$0-cloud1;
#X obj 107 392 *~;
#N canvas 0 22 250 198 hanning 0;
#X obj 78 104 -~;
#X obj 78 126 *~ 0.5;
#X obj 132 87 cos~;
#X obj 132 39 inlet~;
#X obj 78 148 outlet~;
#X obj 78 73 sig~ 1;
#X connect 0 0 1 0;
#X connect 1 0 4 0;
#X connect 2 0 0 1;
#X connect 3 0 2 0;
#X connect 5 0 0 0;
#X restore 344 356 pd hanning;
#X obj 437 234 *~ -1;
#X obj 437 256 +~ 1;
#X obj 437 326 *~;
#X obj 452 279 sig~;
#X obj 452 301 samphold~;
#X obj 437 348 vd~ \$0-cloud1;
#X obj 437 370 *~;
#N canvas 0 22 250 198 hanning 0;
#X obj 78 73 sig~ 1;
#X obj 78 104 -~;
#X obj 78 126 *~ 0.5;
#X obj 132 87 cos~;
#X obj 132 39 inlet~;
#X obj 78 148 outlet~;
#X connect 0 0 1 0;
#X connect 1 0 2 0;
#X connect 2 0 5 0;
#X connect 3 0 1 1;
#X connect 4 0 3 0;
#X restore 576 354 pd hanning;
#X obj 437 186 +~ 0.5;
#X obj 437 208 wrap~;
#X obj 297 222 t f f;
#X obj 297 147 * 8;
#X obj 107 439 *~ 0.5;
#X obj 294 440 *~ 0.5;
#X msg 297 174 \$1 50;
#X obj 297 196 line;
#X obj 294 469 throw~ \$0-grain-fx-fback;
#X obj 107 534 throw~ \$0-gran-fx-LEFT;
#X obj 467 441 *~ 0.5;
#X obj 467 536 throw~ \$0-gran-fx-RIGHT;
#X obj 297 95 r \$0-gran-fx-delay-to-reader;
#X obj 107 51 r~ \$0-gran-fx-freq-to-reader;
#X obj 107 169 phasor~;
#X connect 0 0 20 0;
#X connect 1 0 2 0;
#X connect 2 0 3 0;
#X connect 3 0 6 0;
#X connect 4 0 5 0;
#X connect 5 0 3 1;
#X connect 6 0 7 0;
#X connect 6 0 22 0;
#X connect 7 0 21 0;
#X connect 8 0 7 1;
#X connect 9 0 10 0;
#X connect 10 0 11 0;
#X connect 11 0 14 0;
#X connect 12 0 13 0;
#X connect 13 0 11 1;
#X connect 14 0 15 0;
#X connect 14 0 22 0;
#X connect 15 0 27 0;
#X connect 16 0 15 1;
#X connect 17 0 18 0;
#X connect 18 0 9 0;
#X connect 18 0 13 1;
#X connect 18 0 16 0;
#X connect 19 0 4 0;
#X connect 19 1 12 0;
#X connect 20 0 23 0;
#X connect 21 0 26 0;
#X connect 22 0 25 0;
#X connect 23 0 24 0;
#X connect 24 0 19 0;
#X connect 27 0 28 0;
#X connect 29 0 0 0;
#X connect 30 0 31 0;
#X connect 31 0 1 0;
#X connect 31 0 5 1;
#X connect 31 0 8 0;
#X connect 31 0 17 0;
#X restore 392 339 pd reader-1&2;
#X obj 392 264 sig~;
#X obj 392 288 +~;
#X obj 818 407 catch~ \$0-gran-fx-LEFT;
#X obj 984 408 catch~ \$0-gran-fx-RIGHT;
#X obj 392 316 s~ \$0-gran-fx-freq-to-reader;
#X obj 440 264 s \$0-gran-fx-delay-to-reader;
#N canvas 0 22 872 596 reader-3&4 0;
#X obj 297 122 / 44.1;
#X obj 205 169 phasor~;
#X obj 205 236 *~ -1;
#X obj 205 258 +~ 1;
#X obj 205 328 *~;
#X obj 220 281 sig~;
#X obj 220 303 samphold~;
#X obj 205 350 vd~ \$0-cloud1;
#X obj 205 372 *~;
#N canvas 0 22 250 217 hanning 0;
#X obj 78 73 sig~ 1;
#X obj 78 104 -~;
#X obj 78 126 *~ 0.5;
#X obj 132 87 cos~;
#X obj 132 39 inlet~;
#X obj 78 148 outlet~;
#X connect 0 0 1 0;
#X connect 1 0 2 0;
#X connect 2 0 5 0;
#X connect 3 0 1 1;
#X connect 4 0 3 0;
#X restore 344 356 pd hanning;
#X obj 437 234 *~ -1;
#X obj 437 256 +~ 1;
#X obj 437 326 *~;
#X obj 452 279 sig~;
#X obj 452 301 samphold~;
#X obj 437 348 vd~ \$0-cloud1;
#X obj 437 370 *~;
#N canvas 0 22 250 217 hanning 0;
#X obj 78 73 sig~ 1;
#X obj 78 104 -~;
#X obj 78 126 *~ 0.5;
#X obj 132 87 cos~;
#X obj 132 39 inlet~;
#X obj 78 148 outlet~;
#X connect 0 0 1 0;
#X connect 1 0 2 0;
#X connect 2 0 5 0;
#X connect 3 0 1 1;
#X connect 4 0 3 0;
#X restore 576 354 pd hanning;
#X obj 437 186 +~ 0.5;
#X obj 437 208 wrap~;
#X obj 297 263 t f f;
#X obj 294 440 *~ 0.5;
#X msg 297 204 \$1 50;
#X obj 297 226 line;
#X obj 294 469 throw~ \$0-grain-fx-fback;
#X obj 205 51 r~ \$0-gran-fx-freq-to-reader;
#X obj 297 95 r \$0-gran-fx-delay-to-reader;
#X obj 205 439 *~ 0.5;
#X obj 468 482 throw~ \$0-gran-fx-LEFT;
#X obj 467 441 *~ 0.5;
#X obj 209 503 throw~ \$0-gran-fx-RIGHT;
#X obj 297 163 * 7;
#X connect 0 0 31 0;
#X connect 1 0 2 0;
#X connect 1 0 6 1;
#X connect 1 0 9 0;
#X connect 1 0 18 0;
#X connect 2 0 3 0;
#X connect 3 0 4 0;
#X connect 4 0 7 0;
#X connect 5 0 6 0;
#X connect 6 0 4 1;
#X connect 7 0 8 0;
#X connect 7 0 21 0;
#X connect 8 0 27 0;
#X connect 9 0 8 1;
#X connect 10 0 11 0;
#X connect 11 0 12 0;
#X connect 12 0 15 0;
#X connect 13 0 14 0;
#X connect 14 0 12 1;
#X connect 15 0 16 0;
#X connect 15 0 21 0;
#X connect 16 0 29 0;
#X connect 17 0 16 1;
#X connect 18 0 19 0;
#X connect 19 0 10 0;
#X connect 19 0 14 1;
#X connect 19 0 17 0;
#X connect 20 0 5 0;
#X connect 20 1 13 0;
#X connect 21 0 24 0;
#X connect 22 0 23 0;
#X connect 23 0 20 0;
#X connect 25 0 1 0;
#X connect 26 0 0 0;
#X connect 27 0 30 0;
#X connect 29 0 28 0;
#X connect 31 0 22 0;
#X restore 392 369 pd reader-3&4;
#N canvas 0 22 872 596 reader-5&6 0;
#X obj 297 122 / 44.1;
#X obj 205 169 phasor~;
#X obj 205 236 *~ -1;
#X obj 205 258 +~ 1;
#X obj 205 328 *~;
#X obj 220 281 sig~;
#X obj 220 303 samphold~;
#X obj 205 350 vd~ \$0-cloud1;
#X obj 205 372 *~;
#N canvas 0 22 250 217 hanning 0;
#X obj 78 73 sig~ 1;
#X obj 78 104 -~;
#X obj 78 126 *~ 0.5;
#X obj 132 87 cos~;
#X obj 132 39 inlet~;
#X obj 78 148 outlet~;
#X connect 0 0 1 0;
#X connect 1 0 2 0;
#X connect 2 0 5 0;
#X connect 3 0 1 1;
#X connect 4 0 3 0;
#X restore 344 356 pd hanning;
#X obj 437 234 *~ -1;
#X obj 437 256 +~ 1;
#X obj 437 326 *~;
#X obj 452 279 sig~;
#X obj 452 301 samphold~;
#X obj 437 348 vd~ \$0-cloud1;
#X obj 437 370 *~;
#N canvas 0 22 250 217 hanning 0;
#X obj 78 73 sig~ 1;
#X obj 78 104 -~;
#X obj 78 126 *~ 0.5;
#X obj 132 87 cos~;
#X obj 132 39 inlet~;
#X obj 78 148 outlet~;
#X connect 0 0 1 0;
#X connect 1 0 2 0;
#X connect 2 0 5 0;
#X connect 3 0 1 1;
#X connect 4 0 3 0;
#X restore 576 354 pd hanning;
#X obj 437 186 +~ 0.5;
#X obj 437 208 wrap~;
#X obj 297 263 t f f;
#X obj 294 440 *~ 0.5;
#X msg 297 204 \$1 50;
#X obj 297 226 line;
#X obj 294 469 throw~ \$0-grain-fx-fback;
#X obj 205 51 r~ \$0-gran-fx-freq-to-reader;
#X obj 297 95 r \$0-gran-fx-delay-to-reader;
#X obj 205 439 *~ 0.5;
#X obj 205 534 throw~ \$0-gran-fx-LEFT;
#X obj 467 441 *~ 0.5;
#X obj 467 536 throw~ \$0-gran-fx-RIGHT;
#X obj 297 163 * 6;
#X connect 0 0 31 0;
#X connect 1 0 2 0;
#X connect 1 0 6 1;
#X connect 1 0 9 0;
#X connect 1 0 18 0;
#X connect 2 0 3 0;
#X connect 3 0 4 0;
#X connect 4 0 7 0;
#X connect 5 0 6 0;
#X connect 6 0 4 1;
#X connect 7 0 8 0;
#X connect 7 0 21 0;
#X connect 8 0 27 0;
#X connect 9 0 8 1;
#X connect 10 0 11 0;
#X connect 11 0 12 0;
#X connect 12 0 15 0;
#X connect 13 0 14 0;
#X connect 14 0 12 1;
#X connect 15 0 16 0;
#X connect 15 0 21 0;
#X connect 16 0 29 0;
#X connect 17 0 16 1;
#X connect 18 0 19 0;
#X connect 19 0 10 0;
#X connect 19 0 14 1;
#X connect 19 0 17 0;
#X connect 20 0 5 0;
#X connect 20 1 13 0;
#X connect 21 0 24 0;
#X connect 22 0 23 0;
#X connect 23 0 20 0;
#X connect 25 0 1 0;
#X connect 26 0 0 0;
#X connect 27 0 28 0;
#X connect 29 0 30 0;
#X connect 31 0 22 0;
#X restore 392 397 pd reader-5&6;
#N canvas 0 22 872 596 reader-7&8 0;
#X obj 297 122 / 44.1;
#X obj 205 169 phasor~;
#X obj 205 236 *~ -1;
#X obj 205 258 +~ 1;
#X obj 205 328 *~;
#X obj 220 281 sig~;
#X obj 220 303 samphold~;
#X obj 205 350 vd~ \$0-cloud1;
#X obj 205 372 *~;
#N canvas 0 22 250 217 hanning 0;
#X obj 78 73 sig~ 1;
#X obj 78 104 -~;
#X obj 78 126 *~ 0.5;
#X obj 132 87 cos~;
#X obj 132 39 inlet~;
#X obj 78 148 outlet~;
#X connect 0 0 1 0;
#X connect 1 0 2 0;
#X connect 2 0 5 0;
#X connect 3 0 1 1;
#X connect 4 0 3 0;
#X restore 344 356 pd hanning;
#X obj 437 234 *~ -1;
#X obj 437 256 +~ 1;
#X obj 437 326 *~;
#X obj 452 279 sig~;
#X obj 452 301 samphold~;
#X obj 437 348 vd~ \$0-cloud1;
#X obj 437 370 *~;
#N canvas 0 22 250 217 hanning 0;
#X obj 78 73 sig~ 1;
#X obj 78 104 -~;
#X obj 78 126 *~ 0.5;
#X obj 132 87 cos~;
#X obj 132 39 inlet~;
#X obj 78 148 outlet~;
#X connect 0 0 1 0;
#X connect 1 0 2 0;
#X connect 2 0 5 0;
#X connect 3 0 1 1;
#X connect 4 0 3 0;
#X restore 576 354 pd hanning;
#X obj 437 186 +~ 0.5;
#X obj 437 208 wrap~;
#X obj 297 263 t f f;
#X obj 294 440 *~ 0.5;
#X msg 297 204 \$1 50;
#X obj 297 226 line;
#X obj 294 469 throw~ \$0-grain-fx-fback;
#X obj 205 51 r~ \$0-gran-fx-freq-to-reader;
#X obj 297 95 r \$0-gran-fx-delay-to-reader;
#X obj 205 439 *~ 0.5;
#X obj 468 478 throw~ \$0-gran-fx-LEFT;
#X obj 467 441 *~ 0.5;
#X obj 201 500 throw~ \$0-gran-fx-RIGHT;
#X obj 297 163 * 5;
#X connect 0 0 31 0;
#X connect 1 0 2 0;
#X connect 1 0 6 1;
#X connect 1 0 9 0;
#X connect 1 0 18 0;
#X connect 2 0 3 0;
#X connect 3 0 4 0;
#X connect 4 0 7 0;
#X connect 5 0 6 0;
#X connect 6 0 4 1;
#X connect 7 0 8 0;
#X connect 7 0 21 0;
#X connect 8 0 27 0;
#X connect 9 0 8 1;
#X connect 10 0 11 0;
#X connect 11 0 12 0;
#X connect 12 0 15 0;
#X connect 13 0 14 0;
#X connect 14 0 12 1;
#X connect 15 0 16 0;
#X connect 15 0 21 0;
#X connect 16 0 29 0;
#X connect 17 0 16 1;
#X connect 18 0 19 0;
#X connect 19 0 10 0;
#X connect 19 0 14 1;
#X connect 19 0 17 0;
#X connect 20 0 5 0;
#X connect 20 1 13 0;
#X connect 21 0 24 0;
#X connect 22 0 23 0;
#X connect 23 0 20 0;
#X connect 25 0 1 0;
#X connect 26 0 0 0;
#X connect 27 0 30 0;
#X connect 29 0 28 0;
#X connect 31 0 22 0;
#X restore 392 429 pd reader-7&8;
#N canvas 0 22 872 596 reader-9&10 0;
#X obj 297 122 / 44.1;
#X floatatom 297 144 5 0 0 0 - - -;
#X obj 205 169 phasor~;
#X obj 205 236 *~ -1;
#X obj 205 258 +~ 1;
#X obj 205 328 *~;
#X obj 220 281 sig~;
#X obj 220 303 samphold~;
#X obj 205 350 vd~ \$0-cloud1;
#X obj 205 372 *~;
#N canvas 0 22 250 217 hanning 0;
#X obj 78 73 sig~ 1;
#X obj 78 104 -~;
#X obj 78 126 *~ 0.5;
#X obj 132 87 cos~;
#X obj 132 39 inlet~;
#X obj 78 148 outlet~;
#X connect 0 0 1 0;
#X connect 1 0 2 0;
#X connect 2 0 5 0;
#X connect 3 0 1 1;
#X connect 4 0 3 0;
#X restore 344 356 pd hanning;
#X obj 437 234 *~ -1;
#X obj 437 256 +~ 1;
#X obj 437 326 *~;
#X obj 452 279 sig~;
#X obj 452 301 samphold~;
#X obj 437 348 vd~ \$0-cloud1;
#X obj 437 370 *~;
#N canvas 0 22 250 217 hanning 0;
#X obj 78 73 sig~ 1;
#X obj 78 104 -~;
#X obj 78 126 *~ 0.5;
#X obj 132 87 cos~;
#X obj 132 39 inlet~;
#X obj 78 148 outlet~;
#X connect 0 0 1 0;
#X connect 1 0 2 0;
#X connect 2 0 5 0;
#X connect 3 0 1 1;
#X connect 4 0 3 0;
#X restore 576 354 pd hanning;
#X obj 437 186 +~ 0.5;
#X obj 437 208 wrap~;
#X obj 297 263 t f f;
#X floatatom 297 185 5 0 0 0 - - -;
#X obj 294 440 *~ 0.5;
#X msg 297 204 \$1 50;
#X obj 297 226 line;
#X obj 294 469 throw~ \$0-grain-fx-fback;
#X obj 205 51 r~ \$0-gran-fx-freq-to-reader;
#X obj 297 95 r \$0-gran-fx-delay-to-reader;
#X obj 205 439 *~ 0.5;
#X obj 207 555 throw~ \$0-gran-fx-LEFT;
#X obj 467 441 *~ 0.5;
#X obj 470 478 throw~ \$0-gran-fx-RIGHT;
#X obj 297 163 * 4;
#X connect 0 0 1 0;
#X connect 1 0 33 0;
#X connect 2 0 3 0;
#X connect 2 0 7 1;
#X connect 2 0 10 0;
#X connect 2 0 19 0;
#X connect 3 0 4 0;
#X connect 4 0 5 0;
#X connect 5 0 8 0;
#X connect 6 0 7 0;
#X connect 7 0 5 1;
#X connect 8 0 9 0;
#X connect 8 0 23 0;
#X connect 9 0 29 0;
#X connect 10 0 9 1;
#X connect 11 0 12 0;
#X connect 12 0 13 0;
#X connect 13 0 16 0;
#X connect 14 0 15 0;
#X connect 15 0 13 1;
#X connect 16 0 17 0;
#X connect 16 0 23 0;
#X connect 17 0 31 0;
#X connect 18 0 17 1;
#X connect 19 0 20 0;
#X connect 20 0 11 0;
#X connect 20 0 15 1;
#X connect 20 0 18 0;
#X connect 21 0 6 0;
#X connect 21 1 14 0;
#X connect 22 0 24 0;
#X connect 23 0 26 0;
#X connect 24 0 25 0;
#X connect 25 0 21 0;
#X connect 27 0 2 0;
#X connect 28 0 0 0;
#X connect 29 0 30 0;
#X connect 31 0 32 0;
#X connect 33 0 22 0;
#X restore 487 338 pd reader-9&10;
#X obj 392 239 * 1;
#X obj 484 170 - 32;
#X obj 216 372 r \$0-gran-fx-fback-s;
#N canvas 0 22 1257 752 reverb 0;
#X obj 366 24 inlet~;
#N canvas 0 22 450 300 reverberator-1 0;
#X obj 134 108 inlet~;
#X obj 204 109 inlet~;
#X obj 134 153 +~;
#X obj 189 152 -~;
#X obj 134 204 outlet~;
#X obj 186 223 outlet~;
#X obj 189 174 delwrite~ \$0-echo1 5.43216;
#X obj 186 201 delread~ \$0-echo1 5.43216;
#X connect 0 0 2 0;
#X connect 0 0 3 0;
#X connect 1 0 3 1;
#X connect 1 0 2 1;
#X connect 2 0 4 0;
#X connect 3 0 6 0;
#X connect 7 0 5 0;
#X restore 366 57 pd reverberator-1;
#N canvas 0 22 450 300 reverberator-2 0;
#X obj 134 108 inlet~;
#X obj 204 109 inlet~;
#X obj 134 153 +~;
#X obj 189 152 -~;
#X obj 134 204 outlet~;
#X obj 186 223 outlet~;
#X obj 186 201 delread~ \$0-echo2 8.45346;
#X obj 189 174 delwrite~ \$0-echo2 8.45346;
#X connect 0 0 2 0;
#X connect 0 0 3 0;
#X connect 1 0 3 1;
#X connect 1 0 2 1;
#X connect 2 0 4 0;
#X connect 3 0 7 0;
#X connect 6 0 5 0;
#X restore 366 93 pd reverberator-2;
#N canvas 0 22 450 300 reverberator-3 0;
#X obj 134 108 inlet~;
#X obj 204 109 inlet~;
#X obj 134 153 +~;
#X obj 189 152 -~;
#X obj 134 204 outlet~;
#X obj 186 223 outlet~;
#X obj 186 201 delread~ \$0-echo3 13.4367;
#X obj 189 174 delwrite~ \$0-echo3 13.4367;
#X connect 0 0 2 0;
#X connect 0 0 3 0;
#X connect 1 0 3 1;
#X connect 1 0 2 1;
#X connect 2 0 4 0;
#X connect 3 0 7 0;
#X connect 6 0 5 0;
#X restore 366 124 pd reverberator-3;
#N canvas 0 22 450 300 reverberator-4 0;
#X obj 134 108 inlet~;
#X obj 204 109 inlet~;
#X obj 134 153 +~;
#X obj 189 152 -~;
#X obj 134 204 outlet~;
#X obj 186 223 outlet~;
#X obj 189 174 delwrite~ \$0-echo4 21.5463;
#X obj 186 200 delread~ \$0-echo4 21.5463;
#X connect 0 0 2 0;
#X connect 0 0 3 0;
#X connect 1 0 3 1;
#X connect 1 0 2 1;
#X connect 2 0 4 0;
#X connect 3 0 6 0;
#X connect 7 0 5 0;
#X restore 366 156 pd reverberator-4;
#N canvas 0 22 450 300 reverberator-5 0;
#X obj 134 108 inlet~;
#X obj 204 109 inlet~;
#X obj 134 153 +~;
#X obj 189 152 -~;
#X obj 134 204 outlet~;
#X obj 186 223 outlet~;
#X obj 189 174 delwrite~ \$0-echo5 34.3876;
#X obj 186 201 delread~ \$0-echo5 34.3876;
#X connect 0 0 2 0;
#X connect 0 0 3 0;
#X connect 1 0 3 1;
#X connect 1 0 2 1;
#X connect 2 0 4 0;
#X connect 3 0 6 0;
#X connect 7 0 5 0;
#X restore 366 185 pd reverberator-5;
#N canvas 0 22 450 300 reverberator-6 0;
#X obj 134 108 inlet~;
#X obj 204 109 inlet~;
#X obj 134 153 +~;
#X obj 189 152 -~;
#X obj 134 204 outlet~;
#X obj 186 223 outlet~;
#X obj 189 174 delwrite~ \$0-echo6 55.5437;
#X obj 186 200 delread~ \$0-echo6 55.5437;
#X connect 0 0 2 0;
#X connect 0 0 3 0;
#X connect 1 0 3 1;
#X connect 1 0 2 1;
#X connect 2 0 4 0;
#X connect 3 0 6 0;
#X connect 7 0 5 0;
#X restore 366 217 pd reverberator-6;
#X obj 366 340 +~;
#X obj 465 340 +~;
#X obj 366 421 +~;
#X obj 410 421 -~;
#X obj 465 421 +~;
#X obj 482 459 -~;
#X obj 366 459 +~;
#X obj 410 459 +~;
#X obj 497 421 -~;
#X obj 450 459 -~;
#X obj 410 507 *~;
#X obj 366 507 *~;
#X obj 482 507 *~;
#X obj 450 507 *~;
#X obj 120 138 hsl 128 15 0 127 0 1 \$0-millerverb-reverb-s \$0-millerverb-reverb-r
REVERB 133 7 0 10 -262144 -1 -1 12700 1;
#X obj 366 645 delwrite~ \$0-loop1 60;
#X obj 410 622 delwrite~ \$0-loop2 71.9345;
#X obj 492 147 delread~ \$0-loop1 60;
#X obj 499 179 delread~ \$0-loop2 71.9345;
#X obj 450 595 delwrite~ \$0-loop3 86.754;
#X obj 482 565 delwrite~ \$0-loop4 95.945;
#X obj 553 294 delread~ \$0-loop3 86.754;
#X obj 516 261 delread~ \$0-loop4 95.945;
#X obj 586 353 / 127;
#X obj 586 377 * 0.452;
#X obj 222 404 lop~;
#X obj 222 434 lop~;
#X obj 289 404 lop~;
#X obj 289 434 lop~;
#X obj 120 154 hsl 128 15 0 127 0 1 \$0-millerverb-lowpass-s \$0-millerverb-lowpass-r
LOWPASS 133 7 0 10 -262144 -1 -1 9400 1;
#X obj 132 203 / 127;
#X obj 132 247 * 4950;
#X obj 132 269 + 50;
#X obj 132 291 pack 0 50;
#X obj 132 313 line;
#X obj 132 335 t f f f f;
#X obj 222 357 *~ 0.033;
#X obj 289 357 *~ 0.033;
#X obj 120 131 cnv 5 5 5 empty empty MILLERVERB 0 0 0 12 -262144 -66577
0;
#X obj 272 217 cnv 5 5 5 empty empty RIGHT 0 0 0 8 -262144 -66577 0
;
#X obj 273 111 cnv 5 5 5 empty empty LPASS 0 0 0 8 -262144 -66577 0
;
#X obj 105 216 cnv 5 5 5 empty empty LEFT 0 0 0 8 -262144 -66577 0
;
#X obj 120 168 hsl 128 15 0 127 0 1 \$0-millerverb-drywet-s \$0-millerverb-drywet-r
DRY/WET 133 7 0 10 -262144 -1 -1 12700 1;
#X obj 171 495 *~;
#X text 135 495 DRY;
#X obj 4 309 / 127;
#X msg 4 262 127 \$1;
#X obj 4 284 -;
#X obj 4 334 pack 0 50;
#X obj 4 356 line~;
#X obj 64 244 / 127;
#X obj 64 268 pack 0 50;
#X obj 222 473 *~;
#X obj 289 472 *~;
#X obj 4 221 t f f;
#X obj 656 380 inlet~;
#X obj 656 402 *~ 0.452;
#X obj 586 402 pack 0 50;
#X obj 586 424 line~;
#X obj 586 446 +~;
#X text 654 361 REVERB CV IN;
#X obj 809 153 inlet~;
#X obj 132 225 +;
#X obj 809 184 snapshot~;
#X obj 809 208 t b f;
#X obj 857 153 bang~;
#X obj 586 468 min~ 0.452;
#X obj 586 490 max~ -0.452;
#X obj 103 111 cnv 5 5 5 empty empty IN 0 0 0 8 -262144 -66577 0;
#X obj 184 111 cnv 5 5 5 empty empty REVERB 0 0 0 8 -262144 -66577
0;
#X obj 288 635 *~;
#X obj 222 653 *~;
#X obj 222 675 clip~ -1 1;
#X obj 288 675 clip~ -1 1;
#X obj 222 697 outlet~;
#X obj 288 697 outlet~;
#X obj 120 183 hsl 128 15 0 127 0 1 \$0-millerverb-gain-s \$0-millerverb-gain-r
GAIN 133 7 0 10 -262144 -1 -1 12700 1;
#X obj 21 515 r \$0-millerverb-gain-s;
#X obj 21 537 / 127;
#X obj 21 624 pack 0 50;
#X obj 21 646 line~;
#X obj 21 581 + 1;
#X obj 21 559 * 4;
#X obj 194 131 cnv 5 5 5 empty \$0-instance-num 0 0 0 0 12 -262144
-66577 0;
#X obj 66 344 line~;
#X obj 222 610 *~ 0.5;
#X obj 290 600 *~ 0.5;
#X connect 0 0 1 0;
#X connect 0 0 50 0;
#X connect 1 0 2 0;
#X connect 1 1 2 1;
#X connect 2 0 3 0;
#X connect 2 1 3 1;
#X connect 3 0 4 0;
#X connect 3 1 4 1;
#X connect 4 0 5 0;
#X connect 4 1 5 1;
#X connect 5 0 6 0;
#X connect 5 1 6 1;
#X connect 6 0 7 0;
#X connect 6 1 8 0;
#X connect 7 0 9 0;
#X connect 7 0 10 0;
#X connect 7 0 43 0;
#X connect 8 0 9 1;
#X connect 8 0 10 1;
#X connect 8 0 44 0;
#X connect 9 0 13 0;
#X connect 9 0 16 0;
#X connect 10 0 14 0;
#X connect 10 0 12 0;
#X connect 11 0 13 1;
#X connect 11 0 16 1;
#X connect 12 0 19 0;
#X connect 13 0 18 0;
#X connect 14 0 17 0;
#X connect 15 0 12 1;
#X connect 15 0 14 1;
#X connect 16 0 20 0;
#X connect 17 0 23 0;
#X connect 18 0 22 0;
#X connect 19 0 27 0;
#X connect 20 0 26 0;
#X connect 21 0 30 0;
#X connect 24 0 7 1;
#X connect 25 0 8 1;
#X connect 28 0 11 0;
#X connect 28 0 15 0;
#X connect 29 0 11 1;
#X connect 29 0 15 1;
#X connect 30 0 31 0;
#X connect 31 0 64 0;
#X connect 32 0 33 0;
#X connect 33 0 59 0;
#X connect 34 0 35 0;
#X connect 35 0 60 0;
#X connect 36 0 37 0;
#X connect 37 0 69 0;
#X connect 38 0 39 0;
#X connect 39 0 40 0;
#X connect 40 0 41 0;
#X connect 41 0 42 0;
#X connect 42 0 32 1;
#X connect 42 1 33 1;
#X connect 42 2 34 1;
#X connect 42 3 35 1;
#X connect 43 0 32 0;
#X connect 44 0 34 0;
#X connect 49 0 61 0;
#X connect 50 0 92 0;
#X connect 50 0 93 0;
#X connect 52 0 55 0;
#X connect 53 0 54 0;
#X connect 54 0 52 0;
#X connect 55 0 56 0;
#X connect 56 0 50 1;
#X connect 57 0 58 0;
#X connect 58 0 91 0;
#X connect 59 0 92 0;
#X connect 60 0 93 0;
#X connect 61 0 53 0;
#X connect 61 1 57 0;
#X connect 62 0 63 0;
#X connect 63 0 66 1;
#X connect 64 0 65 0;
#X connect 65 0 66 0;
#X connect 66 0 73 0;
#X connect 68 0 70 0;
#X connect 69 0 38 0;
#X connect 70 0 71 0;
#X connect 71 0 69 0;
#X connect 71 1 69 1;
#X connect 72 0 70 0;
#X connect 73 0 74 0;
#X connect 74 0 19 1;
#X connect 74 0 20 1;
#X connect 74 0 17 1;
#X connect 74 0 18 1;
#X connect 77 0 80 0;
#X connect 78 0 79 0;
#X connect 79 0 81 0;
#X connect 80 0 82 0;
#X connect 84 0 85 0;
#X connect 85 0 89 0;
#X connect 86 0 87 0;
#X connect 87 0 78 1;
#X connect 87 0 77 1;
#X connect 88 0 86 0;
#X connect 89 0 88 0;
#X connect 91 0 59 1;
#X connect 91 0 60 1;
#X connect 92 0 78 0;
#X connect 93 0 77 0;
#X restore 818 481 pd reverb;
#X obj 818 439 *~;
#X obj 1025 100 r \$0-gran-fx-reverb-s;
#X obj 1025 122 / 127;
#X obj 1025 144 t f f;
#X obj 986 211 pack 0 50;
#X obj 986 233 line~;
#X msg 1052 167 1 \$1;
#X obj 1052 189 -;
#X obj 1052 211 pack 0 50;
#X obj 883 482 *~;
#X obj 971 451 *~;
#N canvas 0 22 1257 752 reverb 0;
#X obj 366 24 inlet~;
#N canvas 0 22 450 300 reverberator-1 0;
#X obj 134 108 inlet~;
#X obj 204 109 inlet~;
#X obj 134 153 +~;
#X obj 189 152 -~;
#X obj 134 204 outlet~;
#X obj 186 223 outlet~;
#X obj 189 174 delwrite~ \$0-echo11 5.43216;
#X obj 186 201 delread~ \$0-echo11 5.43216;
#X connect 0 0 2 0;
#X connect 0 0 3 0;
#X connect 1 0 3 1;
#X connect 1 0 2 1;
#X connect 2 0 4 0;
#X connect 3 0 6 0;
#X connect 7 0 5 0;
#X restore 366 57 pd reverberator-1;
#N canvas 0 22 450 300 reverberator-2 0;
#X obj 134 108 inlet~;
#X obj 204 109 inlet~;
#X obj 134 153 +~;
#X obj 189 152 -~;
#X obj 134 204 outlet~;
#X obj 186 223 outlet~;
#X obj 189 174 delwrite~ \$0-echo22 8.45346;
#X obj 186 201 delread~ \$0-echo22 8.45346;
#X connect 0 0 2 0;
#X connect 0 0 3 0;
#X connect 1 0 3 1;
#X connect 1 0 2 1;
#X connect 2 0 4 0;
#X connect 3 0 6 0;
#X connect 7 0 5 0;
#X restore 366 93 pd reverberator-2;
#N canvas 0 22 450 300 reverberator-3 0;
#X obj 134 108 inlet~;
#X obj 204 109 inlet~;
#X obj 134 153 +~;
#X obj 189 152 -~;
#X obj 134 204 outlet~;
#X obj 186 223 outlet~;
#X obj 189 174 delwrite~ \$0-echo33 13.4367;
#X obj 186 201 delread~ \$0-echo33 13.4367;
#X connect 0 0 2 0;
#X connect 0 0 3 0;
#X connect 1 0 3 1;
#X connect 1 0 2 1;
#X connect 2 0 4 0;
#X connect 3 0 6 0;
#X connect 7 0 5 0;
#X restore 366 124 pd reverberator-3;
#N canvas 0 22 450 300 reverberator-4 0;
#X obj 134 108 inlet~;
#X obj 204 109 inlet~;
#X obj 134 153 +~;
#X obj 189 152 -~;
#X obj 134 204 outlet~;
#X obj 186 223 outlet~;
#X obj 189 174 delwrite~ \$0-echo44 21.5463;
#X obj 186 200 delread~ \$0-echo44 21.5463;
#X connect 0 0 2 0;
#X connect 0 0 3 0;
#X connect 1 0 3 1;
#X connect 1 0 2 1;
#X connect 2 0 4 0;
#X connect 3 0 6 0;
#X connect 7 0 5 0;
#X restore 366 156 pd reverberator-4;
#N canvas 0 22 450 300 reverberator-5 0;
#X obj 134 108 inlet~;
#X obj 204 109 inlet~;
#X obj 134 153 +~;
#X obj 189 152 -~;
#X obj 134 204 outlet~;
#X obj 186 223 outlet~;
#X obj 189 174 delwrite~ \$0-echo55 34.3876;
#X obj 186 201 delread~ \$0-echo55 34.3876;
#X connect 0 0 2 0;
#X connect 0 0 3 0;
#X connect 1 0 3 1;
#X connect 1 0 2 1;
#X connect 2 0 4 0;
#X connect 3 0 6 0;
#X connect 7 0 5 0;
#X restore 366 185 pd reverberator-5;
#N canvas 0 22 450 300 reverberator-6 0;
#X obj 134 108 inlet~;
#X obj 204 109 inlet~;
#X obj 134 153 +~;
#X obj 189 152 -~;
#X obj 134 204 outlet~;
#X obj 186 223 outlet~;
#X obj 189 174 delwrite~ \$0-echo66 55.5437;
#X obj 186 200 delread~ \$0-echo66 55.5437;
#X connect 0 0 2 0;
#X connect 0 0 3 0;
#X connect 1 0 3 1;
#X connect 1 0 2 1;
#X connect 2 0 4 0;
#X connect 3 0 6 0;
#X connect 7 0 5 0;
#X restore 366 217 pd reverberator-6;
#X obj 366 340 +~;
#X obj 465 340 +~;
#X obj 366 421 +~;
#X obj 410 421 -~;
#X obj 465 421 +~;
#X obj 482 459 -~;
#X obj 366 459 +~;
#X obj 410 459 +~;
#X obj 497 421 -~;
#X obj 450 459 -~;
#X obj 410 507 *~;
#X obj 366 507 *~;
#X obj 482 507 *~;
#X obj 450 507 *~;
#X obj 120 138 hsl 128 15 0 127 0 1 \$0-millerverb-reverb-s \$0-millerverb-reverb-r
REVERB 133 7 0 10 -262144 -1 -1 12700 1;
#X obj 553 294 delread~ \$0-loop3 86.754;
#X obj 516 261 delread~ \$0-loop4 95.945;
#X obj 586 353 / 127;
#X obj 586 377 * 0.452;
#X obj 222 404 lop~;
#X obj 222 434 lop~;
#X obj 289 404 lop~;
#X obj 289 434 lop~;
#X obj 120 154 hsl 128 15 0 127 0 1 \$0-millerverb-lowpass-s \$0-millerverb-lowpass-r
LOWPASS 133 7 0 10 -262144 -1 -1 9400 1;
#X obj 132 203 / 127;
#X obj 132 247 * 4950;
#X obj 132 269 + 50;
#X obj 132 291 pack 0 50;
#X obj 132 313 line;
#X obj 132 335 t f f f f;
#X obj 222 357 *~ 0.033;
#X obj 289 357 *~ 0.033;
#X obj 120 131 cnv 5 5 5 empty empty MILLERVERB 0 0 0 12 -262144 -66577
0;
#X obj 272 217 cnv 5 5 5 empty empty RIGHT 0 0 0 8 -262144 -66577 0
;
#X obj 273 111 cnv 5 5 5 empty empty LPASS 0 0 0 8 -262144 -66577 0
;
#X obj 105 216 cnv 5 5 5 empty empty LEFT 0 0 0 8 -262144 -66577 0
;
#X obj 120 168 hsl 128 15 0 127 0 1 \$0-millerverb-drywet-s \$0-millerverb-drywet-r
DRY/WET 133 7 0 10 -262144 -1 -1 12700 1;
#X obj 171 495 *~;
#X text 135 495 DRY;
#X obj 4 309 / 127;
#X msg 4 262 127 \$1;
#X obj 4 284 -;
#X obj 4 334 pack 0 50;
#X obj 4 356 line~;
#X obj 64 244 / 127;
#X obj 64 268 pack 0 50;
#X obj 222 473 *~;
#X obj 289 472 *~;
#X obj 4 221 t f f;
#X obj 656 380 inlet~;
#X obj 656 402 *~ 0.452;
#X obj 586 402 pack 0 50;
#X obj 586 424 line~;
#X obj 586 446 +~;
#X text 654 361 REVERB CV IN;
#X obj 809 153 inlet~;
#X obj 132 225 +;
#X obj 809 184 snapshot~;
#X obj 809 208 t b f;
#X obj 857 153 bang~;
#X obj 586 468 min~ 0.452;
#X obj 586 490 max~ -0.452;
#X obj 103 111 cnv 5 5 5 empty empty IN 0 0 0 8 -262144 -66577 0;
#X obj 184 111 cnv 5 5 5 empty empty REVERB 0 0 0 8 -262144 -66577
0;
#X obj 288 635 *~;
#X obj 222 653 *~;
#X obj 222 675 clip~ -1 1;
#X obj 288 675 clip~ -1 1;
#X obj 222 697 outlet~;
#X obj 288 697 outlet~;
#X obj 120 183 hsl 128 15 0 127 0 1 \$0-millerverb-gain-s \$0-millerverb-gain-r
GAIN 133 7 0 10 -262144 -1 -1 12700 1;
#X obj 21 515 r \$0-millerverb-gain-s;
#X obj 21 537 / 127;
#X obj 21 624 pack 0 50;
#X obj 21 646 line~;
#X obj 21 581 + 1;
#X obj 21 559 * 4;
#X obj 194 131 cnv 5 5 5 empty \$0-instance-num 0 0 0 0 12 -262144
-66577 0;
#X obj 66 344 line~;
#X obj 222 610 *~ 1;
#X obj 290 600 *~ 1;
#X obj 492 147 delread~ \$0-loop11 60;
#X obj 499 179 delread~ \$0-loop22 71.9345;
#X obj 482 565 delwrite~ \$0-loop44 95.945;
#X obj 450 595 delwrite~ \$0-loop33 86.754;
#X obj 410 622 delwrite~ \$0-loop22 71.9345;
#X obj 366 645 delwrite~ \$0-loop11 60;
#X connect 0 0 1 0;
#X connect 0 0 44 0;
#X connect 1 0 2 0;
#X connect 1 1 2 1;
#X connect 2 0 3 0;
#X connect 2 1 3 1;
#X connect 3 0 4 0;
#X connect 3 1 4 1;
#X connect 4 0 5 0;
#X connect 4 1 5 1;
#X connect 5 0 6 0;
#X connect 5 1 6 1;
#X connect 6 0 7 0;
#X connect 6 1 8 0;
#X connect 7 0 9 0;
#X connect 7 0 10 0;
#X connect 7 0 37 0;
#X connect 8 0 9 1;
#X connect 8 0 10 1;
#X connect 8 0 38 0;
#X connect 9 0 13 0;
#X connect 9 0 16 0;
#X connect 10 0 14 0;
#X connect 10 0 12 0;
#X connect 11 0 13 1;
#X connect 11 0 16 1;
#X connect 12 0 19 0;
#X connect 13 0 18 0;
#X connect 14 0 17 0;
#X connect 15 0 12 1;
#X connect 15 0 14 1;
#X connect 16 0 20 0;
#X connect 17 0 92 0;
#X connect 18 0 93 0;
#X connect 19 0 90 0;
#X connect 20 0 91 0;
#X connect 21 0 24 0;
#X connect 22 0 11 0;
#X connect 22 0 15 0;
#X connect 23 0 11 1;
#X connect 23 0 15 1;
#X connect 24 0 25 0;
#X connect 25 0 58 0;
#X connect 26 0 27 0;
#X connect 27 0 53 0;
#X connect 28 0 29 0;
#X connect 29 0 54 0;
#X connect 30 0 31 0;
#X connect 31 0 63 0;
#X connect 32 0 33 0;
#X connect 33 0 34 0;
#X connect 34 0 35 0;
#X connect 35 0 36 0;
#X connect 36 0 26 1;
#X connect 36 1 27 1;
#X connect 36 2 28 1;
#X connect 36 3 29 1;
#X connect 37 0 26 0;
#X connect 38 0 28 0;
#X connect 43 0 55 0;
#X connect 44 0 86 0;
#X connect 44 0 87 0;
#X connect 46 0 49 0;
#X connect 47 0 48 0;
#X connect 48 0 46 0;
#X connect 49 0 50 0;
#X connect 50 0 44 1;
#X connect 51 0 52 0;
#X connect 52 0 85 0;
#X connect 53 0 86 0;
#X connect 54 0 87 0;
#X connect 55 0 47 0;
#X connect 55 1 51 0;
#X connect 56 0 57 0;
#X connect 57 0 60 1;
#X connect 58 0 59 0;
#X connect 59 0 60 0;
#X connect 60 0 67 0;
#X connect 62 0 64 0;
#X connect 63 0 32 0;
#X connect 64 0 65 0;
#X connect 65 0 63 0;
#X connect 65 1 63 1;
#X connect 66 0 64 0;
#X connect 67 0 68 0;
#X connect 68 0 19 1;
#X connect 68 0 20 1;
#X connect 68 0 17 1;
#X connect 68 0 18 1;
#X connect 71 0 74 0;
#X connect 72 0 73 0;
#X connect 73 0 75 0;
#X connect 74 0 76 0;
#X connect 78 0 79 0;
#X connect 79 0 83 0;
#X connect 80 0 81 0;
#X connect 81 0 72 1;
#X connect 81 0 71 1;
#X connect 82 0 80 0;
#X connect 83 0 82 0;
#X connect 85 0 53 1;
#X connect 85 0 54 1;
#X connect 86 0 72 0;
#X connect 87 0 71 0;
#X connect 88 0 7 1;
#X connect 89 0 8 1;
#X restore 971 480 pd reverb;
#X obj 1042 480 *~;
#X obj 155 323 catch~ \$0-grain-fx-fback;
#X obj 155 345 *~ 0.1566;
#N canvas 0 22 872 596 reader-11&12 0;
#X obj 297 122 / 44.1;
#X floatatom 297 144 5 0 0 0 - - -;
#X obj 205 169 phasor~;
#X obj 205 236 *~ -1;
#X obj 205 258 +~ 1;
#X obj 205 328 *~;
#X obj 220 281 sig~;
#X obj 220 303 samphold~;
#X obj 205 350 vd~ \$0-cloud1;
#X obj 205 372 *~;
#N canvas 0 22 250 217 hanning 0;
#X obj 78 73 sig~ 1;
#X obj 78 104 -~;
#X obj 78 126 *~ 0.5;
#X obj 132 87 cos~;
#X obj 132 39 inlet~;
#X obj 78 148 outlet~;
#X connect 0 0 1 0;
#X connect 1 0 2 0;
#X connect 2 0 5 0;
#X connect 3 0 1 1;
#X connect 4 0 3 0;
#X restore 344 356 pd hanning;
#X obj 437 234 *~ -1;
#X obj 437 256 +~ 1;
#X obj 437 326 *~;
#X obj 452 279 sig~;
#X obj 452 301 samphold~;
#X obj 437 348 vd~ \$0-cloud1;
#X obj 437 370 *~;
#N canvas 0 22 250 217 hanning 0;
#X obj 78 73 sig~ 1;
#X obj 78 104 -~;
#X obj 78 126 *~ 0.5;
#X obj 132 87 cos~;
#X obj 132 39 inlet~;
#X obj 78 148 outlet~;
#X connect 0 0 1 0;
#X connect 1 0 2 0;
#X connect 2 0 5 0;
#X connect 3 0 1 1;
#X connect 4 0 3 0;
#X restore 576 354 pd hanning;
#X obj 437 186 +~ 0.5;
#X obj 437 208 wrap~;
#X obj 297 263 t f f;
#X floatatom 297 185 5 0 0 0 - - -;
#X obj 294 440 *~ 0.5;
#X msg 297 204 \$1 50;
#X obj 297 226 line;
#X obj 294 469 throw~ \$0-grain-fx-fback;
#X obj 205 51 r~ \$0-gran-fx-freq-to-reader;
#X obj 297 95 r \$0-gran-fx-delay-to-reader;
#X obj 205 439 *~ 0.5;
#X obj 468 478 throw~ \$0-gran-fx-LEFT;
#X obj 467 441 *~ 0.5;
#X obj 201 500 throw~ \$0-gran-fx-RIGHT;
#X obj 297 163 * 3;
#X connect 0 0 1 0;
#X connect 1 0 33 0;
#X connect 2 0 3 0;
#X connect 2 0 7 1;
#X connect 2 0 10 0;
#X connect 2 0 19 0;
#X connect 3 0 4 0;
#X connect 4 0 5 0;
#X connect 5 0 8 0;
#X connect 6 0 7 0;
#X connect 7 0 5 1;
#X connect 8 0 9 0;
#X connect 8 0 23 0;
#X connect 9 0 29 0;
#X connect 10 0 9 1;
#X connect 11 0 12 0;
#X connect 12 0 13 0;
#X connect 13 0 16 0;
#X connect 14 0 15 0;
#X connect 15 0 13 1;
#X connect 16 0 17 0;
#X connect 16 0 23 0;
#X connect 17 0 31 0;
#X connect 18 0 17 1;
#X connect 19 0 20 0;
#X connect 20 0 11 0;
#X connect 20 0 15 1;
#X connect 20 0 18 0;
#X connect 21 0 6 0;
#X connect 21 1 14 0;
#X connect 22 0 24 0;
#X connect 23 0 26 0;
#X connect 24 0 25 0;
#X connect 25 0 21 0;
#X connect 27 0 2 0;
#X connect 28 0 0 0;
#X connect 29 0 32 0;
#X connect 31 0 30 0;
#X connect 33 0 22 0;
#X restore 487 368 pd reader-11&12;
#X obj 216 421 * 0.8;
#N canvas 0 22 872 596 reader-15&16 0;
#X obj 297 122 / 44.1;
#X floatatom 297 144 5 0 0 0 - - -;
#X obj 205 169 phasor~;
#X obj 205 236 *~ -1;
#X obj 205 258 +~ 1;
#X obj 205 328 *~;
#X obj 220 281 sig~;
#X obj 220 303 samphold~;
#X obj 205 350 vd~ \$0-cloud1;
#X obj 205 372 *~;
#N canvas 0 22 250 217 hanning 0;
#X obj 78 73 sig~ 1;
#X obj 78 104 -~;
#X obj 78 126 *~ 0.5;
#X obj 132 87 cos~;
#X obj 132 39 inlet~;
#X obj 78 148 outlet~;
#X connect 0 0 1 0;
#X connect 1 0 2 0;
#X connect 2 0 5 0;
#X connect 3 0 1 1;
#X connect 4 0 3 0;
#X restore 344 356 pd hanning;
#X obj 437 234 *~ -1;
#X obj 437 256 +~ 1;
#X obj 437 326 *~;
#X obj 452 279 sig~;
#X obj 452 301 samphold~;
#X obj 437 348 vd~ \$0-cloud1;
#X obj 437 370 *~;
#N canvas 0 22 250 217 hanning 0;
#X obj 78 73 sig~ 1;
#X obj 78 104 -~;
#X obj 78 126 *~ 0.5;
#X obj 132 87 cos~;
#X obj 132 39 inlet~;
#X obj 78 148 outlet~;
#X connect 0 0 1 0;
#X connect 1 0 2 0;
#X connect 2 0 5 0;
#X connect 3 0 1 1;
#X connect 4 0 3 0;
#X restore 576 354 pd hanning;
#X obj 437 186 +~ 0.5;
#X obj 437 208 wrap~;
#X obj 297 263 t f f;
#X floatatom 297 185 5 0 0 0 - - -;
#X obj 294 440 *~ 0.5;
#X msg 297 204 \$1 50;
#X obj 297 226 line;
#X obj 294 469 throw~ \$0-grain-fx-fback;
#X obj 205 51 r~ \$0-gran-fx-freq-to-reader;
#X obj 297 95 r \$0-gran-fx-delay-to-reader;
#X obj 205 439 *~ 0.5;
#X obj 459 489 throw~ \$0-gran-fx-LEFT;
#X obj 467 441 *~ 0.5;
#X obj 206 497 throw~ \$0-gran-fx-RIGHT;
#X obj 297 163 * 1;
#X connect 0 0 1 0;
#X connect 1 0 33 0;
#X connect 2 0 3 0;
#X connect 2 0 7 1;
#X connect 2 0 10 0;
#X connect 2 0 19 0;
#X connect 3 0 4 0;
#X connect 4 0 5 0;
#X connect 5 0 8 0;
#X connect 6 0 7 0;
#X connect 7 0 5 1;
#X connect 8 0 9 0;
#X connect 8 0 23 0;
#X connect 9 0 29 0;
#X connect 10 0 9 1;
#X connect 11 0 12 0;
#X connect 12 0 13 0;
#X connect 13 0 16 0;
#X connect 14 0 15 0;
#X connect 15 0 13 1;
#X connect 16 0 17 0;
#X connect 16 0 23 0;
#X connect 17 0 31 0;
#X connect 18 0 17 1;
#X connect 19 0 20 0;
#X connect 20 0 11 0;
#X connect 20 0 15 1;
#X connect 20 0 18 0;
#X connect 21 0 6 0;
#X connect 21 1 14 0;
#X connect 22 0 24 0;
#X connect 23 0 26 0;
#X connect 24 0 25 0;
#X connect 25 0 21 0;
#X connect 27 0 2 0;
#X connect 28 0 0 0;
#X connect 29 0 32 0;
#X connect 31 0 30 0;
#X connect 33 0 22 0;
#X restore 487 428 pd reader-15&16;
#N canvas 0 22 872 596 reader-13&14 0;
#X obj 297 122 / 44.1;
#X floatatom 297 144 5 0 0 0 - - -;
#X obj 205 169 phasor~;
#X obj 205 236 *~ -1;
#X obj 205 258 +~ 1;
#X obj 205 328 *~;
#X obj 220 281 sig~;
#X obj 220 303 samphold~;
#X obj 205 350 vd~ \$0-cloud1;
#X obj 205 372 *~;
#N canvas 0 22 250 217 hanning 0;
#X obj 78 73 sig~ 1;
#X obj 78 104 -~;
#X obj 78 126 *~ 0.5;
#X obj 132 87 cos~;
#X obj 132 39 inlet~;
#X obj 78 148 outlet~;
#X connect 0 0 1 0;
#X connect 1 0 2 0;
#X connect 2 0 5 0;
#X connect 3 0 1 1;
#X connect 4 0 3 0;
#X restore 344 356 pd hanning;
#X obj 437 234 *~ -1;
#X obj 437 256 +~ 1;
#X obj 437 326 *~;
#X obj 452 279 sig~;
#X obj 452 301 samphold~;
#X obj 437 348 vd~ \$0-cloud1;
#X obj 437 370 *~;
#N canvas 0 22 250 217 hanning 0;
#X obj 78 73 sig~ 1;
#X obj 78 104 -~;
#X obj 78 126 *~ 0.5;
#X obj 132 87 cos~;
#X obj 132 39 inlet~;
#X obj 78 148 outlet~;
#X connect 0 0 1 0;
#X connect 1 0 2 0;
#X connect 2 0 5 0;
#X connect 3 0 1 1;
#X connect 4 0 3 0;
#X restore 576 354 pd hanning;
#X obj 437 186 +~ 0.5;
#X obj 437 208 wrap~;
#X obj 297 263 t f f;
#X floatatom 297 185 5 0 0 0 - - -;
#X obj 294 440 *~ 0.5;
#X msg 297 204 \$1 50;
#X obj 297 226 line;
#X obj 294 469 throw~ \$0-grain-fx-fback;
#X obj 205 51 r~ \$0-gran-fx-freq-to-reader;
#X obj 297 95 r \$0-gran-fx-delay-to-reader;
#X obj 205 439 *~ 0.5;
#X obj 200 522 throw~ \$0-gran-fx-LEFT;
#X obj 467 441 *~ 0.5;
#X obj 455 494 throw~ \$0-gran-fx-RIGHT;
#X obj 297 163 * 2;
#X connect 0 0 1 0;
#X connect 1 0 33 0;
#X connect 2 0 3 0;
#X connect 2 0 7 1;
#X connect 2 0 10 0;
#X connect 2 0 19 0;
#X connect 3 0 4 0;
#X connect 4 0 5 0;
#X connect 5 0 8 0;
#X connect 6 0 7 0;
#X connect 7 0 5 1;
#X connect 8 0 9 0;
#X connect 8 0 23 0;
#X connect 9 0 29 0;
#X connect 10 0 9 1;
#X connect 11 0 12 0;
#X connect 12 0 13 0;
#X connect 13 0 16 0;
#X connect 14 0 15 0;
#X connect 15 0 13 1;
#X connect 16 0 17 0;
#X connect 16 0 23 0;
#X connect 17 0 31 0;
#X connect 18 0 17 1;
#X connect 19 0 20 0;
#X connect 20 0 11 0;
#X connect 20 0 15 1;
#X connect 20 0 18 0;
#X connect 21 0 6 0;
#X connect 21 1 14 0;
#X connect 22 0 24 0;
#X connect 23 0 26 0;
#X connect 24 0 25 0;
#X connect 25 0 21 0;
#X connect 27 0 2 0;
#X connect 28 0 0 0;
#X connect 29 0 30 0;
#X connect 31 0 32 0;
#X connect 33 0 22 0;
#X restore 487 398 pd reader-13&14;
#X obj 205 123 cnv 5 5 5 empty \$0-instance-num 0 0 0 0 12 -262144
-66577 0;
#X obj 103 123 cnv 5 5 5 empty empty GRANULAR-DELAY 0 0 0 12 -262144
-66577 0;
#X obj 618 320 r \$0-gran-fx-dry/wet-s;
#X obj 618 342 / 127;
#X obj 618 364 t f f;
#X obj 817 600 *~;
#X obj 971 612 *~;
#X text 845 602 WET LEFT;
#X text 1048 659 WET RIGHT;
#X obj 601 559 *~;
#X obj 681 381 pack 0 50;
#X obj 817 628 clip~ -1 1;
#X obj 971 647 clip~ -1 1;
#X msg 618 386 1 \$1;
#X obj 618 408 -;
#X obj 618 430 pack 0 50;
#X obj 618 452 line~;
#X obj 817 689 outlet~;
#X obj 971 698 outlet~;
#X obj 103 108 cnv 5 5 5 empty empty IN 0 0 0 8 -262144 -66577 0;
#X obj 222 108 cnv 5 5 5 empty empty REVERB 0 0 0 8 -262144 -66577
0;
#X obj 135 108 cnv 5 5 5 empty empty PITCH 0 0 0 8 -262144 -66577 0
;
#X obj 181 108 cnv 5 5 5 empty empty GRAIN 0 0 0 8 -262144 -66577 0
;
#X obj 267 108 cnv 5 5 5 empty empty D/W 0 0 0 8 -262144 -66577 0;
#X obj 484 51 / 127;
#X obj 484 77 t f f;
#X obj 534 94 * 2;
#X obj 534 116 - 1;
#X floatatom 239 114 5 0 0 0 - - -;
#X obj 985 157 * 1;
#X obj 484 99 +;
#X obj 365 93 +;
#X obj 986 259 +~;
#X obj 986 281 clip~ 0 1;
#X obj 1052 281 clip~ 0 1;
#X obj 1052 233 line~;
#X obj 1052 255 +~;
#X obj 618 474 +~;
#X obj 618 496 clip~ 0 1;
#X obj 680 495 clip~ 0 1;
#X obj 681 403 line~;
#X obj 681 425 +~;
#N canvas 297 27 518 295 parameter-nudging-system 0;
#X obj 21 171 clip 0 127;
#X obj 23 67 clip 0 127;
#X obj 171 67 clip 0 127;
#X obj 343 69 clip 0 127;
#X obj 23 22 r \$0-gran-fx-pitch-s;
#X obj 23 95 s \$0-gran-fx-pitch-r;
#X obj 171 22 r \$0-gran-fx-grainsize-s;
#X obj 171 95 s \$0-gran-fx-grainsize-r;
#X obj 343 22 r \$0-gran-fx-reverb-s;
#X obj 343 95 s \$0-gran-fx-reverb-r;
#X obj 21 126 r \$0-gran-fx-dry/wet-s;
#X obj 21 198 s \$0-gran-fx-dry/wet-r;
#N canvas 0 22 484 497 nudge-parameters 0;
#X obj 124 234 random;
#X obj 232 335 f;
#X obj 232 368 +;
#X obj 257 166 random 2;
#X obj 124 275 t f f;
#X obj 124 351 t b f;
#X obj 124 297 *;
#X obj 257 188 sel 0 1;
#X msg 257 280 -1;
#X msg 335 280 1;
#X obj 124 149 t b b b;
#X obj 124 74 r NUDGE!;
#X obj 157 193 r NUDGE-RANGE;
#X obj 247 308 inlet;
#X obj 232 397 outlet;
#X obj 124 96 spigot;
#X obj 185 79 r parameters2-s;
#X connect 0 0 4 0;
#X connect 1 0 2 0;
#X connect 2 0 14 0;
#X connect 3 0 7 0;
#X connect 4 0 6 0;
#X connect 5 0 2 0;
#X connect 5 1 2 1;
#X connect 6 0 5 0;
#X connect 7 0 8 0;
#X connect 7 1 9 0;
#X connect 8 0 6 1;
#X connect 9 0 6 1;
#X connect 10 0 0 0;
#X connect 10 1 1 0;
#X connect 10 2 3 0;
#X connect 11 0 15 0;
#X connect 12 0 0 1;
#X connect 13 0 1 1;
#X connect 15 0 10 0;
#X connect 16 0 15 1;
#X restore 351 44 pd nudge-parameters;
#N canvas 0 22 484 497 nudge-parameters 0;
#X obj 124 234 random;
#X obj 232 335 f;
#X obj 232 368 +;
#X obj 257 166 random 2;
#X obj 124 275 t f f;
#X obj 124 351 t b f;
#X obj 124 297 *;
#X obj 257 188 sel 0 1;
#X msg 257 280 -1;
#X msg 335 280 1;
#X obj 124 149 t b b b;
#X obj 124 74 r NUDGE!;
#X obj 157 193 r NUDGE-RANGE;
#X obj 247 308 inlet;
#X obj 232 397 outlet;
#X obj 124 96 spigot;
#X obj 185 79 r parameters2-s;
#X connect 0 0 4 0;
#X connect 1 0 2 0;
#X connect 2 0 14 0;
#X connect 3 0 7 0;
#X connect 4 0 6 0;
#X connect 5 0 2 0;
#X connect 5 1 2 1;
#X connect 6 0 5 0;
#X connect 7 0 8 0;
#X connect 7 1 9 0;
#X connect 8 0 6 1;
#X connect 9 0 6 1;
#X connect 10 0 0 0;
#X connect 10 1 1 0;
#X connect 10 2 3 0;
#X connect 11 0 15 0;
#X connect 12 0 0 1;
#X connect 13 0 1 1;
#X connect 15 0 10 0;
#X connect 16 0 15 1;
#X restore 23 45 pd nudge-parameters;
#N canvas 0 22 484 497 nudge-parameters 0;
#X obj 124 234 random;
#X obj 232 335 f;
#X obj 232 368 +;
#X obj 257 166 random 2;
#X obj 124 275 t f f;
#X obj 124 351 t b f;
#X obj 124 297 *;
#X obj 257 188 sel 0 1;
#X msg 257 280 -1;
#X msg 335 280 1;
#X obj 124 149 t b b b;
#X obj 124 74 r NUDGE!;
#X obj 157 193 r NUDGE-RANGE;
#X obj 247 308 inlet;
#X obj 232 397 outlet;
#X obj 124 96 spigot;
#X obj 185 79 r parameters2-s;
#X connect 0 0 4 0;
#X connect 1 0 2 0;
#X connect 2 0 14 0;
#X connect 3 0 7 0;
#X connect 4 0 6 0;
#X connect 5 0 2 0;
#X connect 5 1 2 1;
#X connect 6 0 5 0;
#X connect 7 0 8 0;
#X connect 7 1 9 0;
#X connect 8 0 6 1;
#X connect 9 0 6 1;
#X connect 10 0 0 0;
#X connect 10 1 1 0;
#X connect 10 2 3 0;
#X connect 11 0 15 0;
#X connect 12 0 0 1;
#X connect 13 0 1 1;
#X connect 15 0 10 0;
#X connect 16 0 15 1;
#X restore 22 149 pd nudge-parameters;
#N canvas 0 22 484 497 nudge-parameters 0;
#X obj 124 234 random;
#X obj 232 335 f;
#X obj 232 368 +;
#X obj 257 166 random 2;
#X obj 124 275 t f f;
#X obj 124 351 t b f;
#X obj 124 297 *;
#X obj 257 188 sel 0 1;
#X msg 257 280 -1;
#X msg 335 280 1;
#X obj 124 149 t b b b;
#X obj 124 74 r NUDGE!;
#X obj 157 193 r NUDGE-RANGE;
#X obj 247 308 inlet;
#X obj 232 397 outlet;
#X obj 124 96 spigot;
#X obj 185 79 r parameters2-s;
#X connect 0 0 4 0;
#X connect 1 0 2 0;
#X connect 2 0 14 0;
#X connect 3 0 7 0;
#X connect 4 0 6 0;
#X connect 5 0 2 0;
#X connect 5 1 2 1;
#X connect 6 0 5 0;
#X connect 7 0 8 0;
#X connect 7 1 9 0;
#X connect 8 0 6 1;
#X connect 9 0 6 1;
#X connect 10 0 0 0;
#X connect 10 1 1 0;
#X connect 10 2 3 0;
#X connect 11 0 15 0;
#X connect 12 0 0 1;
#X connect 13 0 1 1;
#X connect 15 0 10 0;
#X connect 16 0 15 1;
#X restore 168 46 pd nudge-parameters;
#X connect 0 0 11 0;
#X connect 1 0 5 0;
#X connect 2 0 7 0;
#X connect 3 0 9 0;
#X connect 4 0 13 0;
#X connect 6 0 15 0;
#X connect 8 0 12 0;
#X connect 10 0 14 0;
#X connect 12 0 3 0;
#X connect 13 0 1 0;
#X connect 14 0 0 0;
#X connect 15 0 2 0;
#X restore 106 548 pd parameter-nudging-system;
#X obj 817 650 *~ 1;
#X obj 971 669 *~ 1;
#X obj 365 71 + 1;
#X connect 0 0 18 0;
#X connect 0 0 64 0;
#X connect 3 0 79 0;
#X connect 4 0 5 0;
#X connect 5 0 12 0;
#X connect 6 0 33 0;
#X connect 6 1 7 0;
#X connect 7 0 11 0;
#X connect 8 0 33 0;
#X connect 9 0 10 0;
#X connect 9 1 10 1;
#X connect 10 0 32 0;
#X connect 11 0 10 0;
#X connect 11 1 27 0;
#X connect 12 0 100 0;
#X connect 15 0 52 0;
#X connect 16 0 17 0;
#X connect 17 0 13 1;
#X connect 22 0 23 0;
#X connect 23 0 26 0;
#X connect 24 0 36 0;
#X connect 24 0 45 0;
#X connect 25 0 46 0;
#X connect 25 0 48 0;
#X connect 32 0 22 0;
#X connect 33 0 9 0;
#X connect 34 0 15 0;
#X connect 35 0 60 0;
#X connect 36 0 35 0;
#X connect 37 0 38 0;
#X connect 38 0 39 0;
#X connect 39 0 84 0;
#X connect 39 1 42 0;
#X connect 40 0 41 0;
#X connect 41 0 87 0;
#X connect 42 0 43 0;
#X connect 43 0 44 0;
#X connect 44 0 90 0;
#X connect 45 0 60 0;
#X connect 46 0 47 0;
#X connect 47 0 61 0;
#X connect 48 0 61 0;
#X connect 49 0 50 0;
#X connect 50 0 13 0;
#X connect 52 0 16 0;
#X connect 57 0 58 0;
#X connect 58 0 59 0;
#X connect 59 0 68 0;
#X connect 59 1 65 0;
#X connect 60 0 66 0;
#X connect 61 0 67 0;
#X connect 64 0 66 0;
#X connect 64 0 67 0;
#X connect 65 0 95 0;
#X connect 66 0 98 0;
#X connect 67 0 99 0;
#X connect 68 0 69 0;
#X connect 69 0 70 0;
#X connect 70 0 71 0;
#X connect 71 0 92 0;
#X connect 79 0 80 0;
#X connect 80 0 85 0;
#X connect 80 1 81 0;
#X connect 81 0 82 0;
#X connect 82 0 83 0;
#X connect 84 0 40 0;
#X connect 85 0 8 0;
#X connect 86 0 6 0;
#X connect 87 0 88 0;
#X connect 88 0 36 1;
#X connect 88 0 46 1;
#X connect 89 0 45 1;
#X connect 89 0 48 1;
#X connect 90 0 91 0;
#X connect 91 0 89 0;
#X connect 92 0 93 0;
#X connect 93 0 64 1;
#X connect 94 0 60 1;
#X connect 94 0 61 1;
#X connect 95 0 96 0;
#X connect 96 0 94 0;
#X connect 98 0 72 0;
#X connect 99 0 73 0;
#X connect 100 0 86 0;
#X coords 0 -1 1 1 200 100 1 100 100;
#X restore 221 399 pd grandel;
#X connect 0 0 7 0;
#X connect 0 1 7 0;
#X connect 1 0 0 1;
#X connect 2 0 0 0;
#X connect 3 0 2 0;
#X connect 4 0 5 0;
#X connect 5 0 3 0;
#X connect 7 0 6 0;
#X connect 7 1 6 1;
