#N canvas -8 -8 1366 725 12;
#X obj 16 36 loadbang;
#X obj 16 91 s bela_setTrill;
#X text 132 92 Objeto responsável pela inicialização;
#X obj 16 116 r bela_trillCreated;
#X text 162 117 Recebe mensagem por cada sensor Iniciado;
#X obj 50 141 print bela_trillCreated;
#X obj 16 168 route BarTeste;
#X text 378 254 Ver mais em Examples>Trill>general_pd;
#X obj 159 222 r bela_trill;
#X text 252 222 Recebe as leituras de todos os Sensores Trill iniciados
;
#X obj 134 300 list;
#X obj 16 228 bng 15 250 50 0 empty empty empty 17 7 0 10 -262144 -1
-1;
#X obj 16 248 metro 200;
#X obj 16 274 delay 30;
#X obj 134 326 print bar;
#X msg 16 66 new BarTeste 1 BAR \, new SquareTeste 1 SQUARE;
#X obj 159 252 route BarTeste SquareTeste;
#X obj 235 295 list;
#X obj 290 315 print square;
#X text 82 25 Iniciar Sensor Trill Bar com o ID "BarTeste" e Trill
Square com o ID "SquareTeste";
#X obj 228 137 route SquareTeste;
#X msg 228 163 mode SquareTeste AUTO;
#X msg 23 194 mode BarTeste AUTO, f 19;
#X obj 19 354 unpack f f f f f f f f f f f;
#X obj 19 389 s NrToquesBar;
#X obj 38 414 s PosicaoBar1;
#X obj 57 438 s TamanhoBar1;
#X obj 76 463 s PosicaoBar2;
#X obj 96 487 s TamanhoBar2;
#X obj 114 512 s PosicaoBar3;
#X obj 134 536 s TamanhoBar3;
#X obj 154 560 s PosicaoBar4;
#X obj 174 584 s TamanhoBar4;
#X obj 192 608 s PosicaoBar5;
#X obj 211 632 s TamanhoBar5;
#X obj 223 354 unpack f f f f;
#X obj 223 389 s NrToquesSqr;
#X obj 254 414 s SqrX;
#X obj 286 438 s SqrY;
#X obj 318 463 s TamanhoSqr;
#X obj 464 314 adc~ 3 4 5 6 7 8 9 10, f 32;
#X obj 464 348 lop~ 10;
#X obj 464 377 snapshot~;
#X obj 464 405 s FSR1;
#X obj 389 356 metro 100;
#X obj 366 58 s loadbang;
#X obj 381 332 r loadbang;
#X obj 494 429 lop~ 10;
#X obj 494 458 snapshot~;
#X obj 494 486 s FSR2;
#X obj 526 512 lop~ 10;
#X obj 526 541 snapshot~;
#X obj 526 569 s FSR3;
#X obj 559 597 lop~ 10;
#X obj 559 626 snapshot~;
#X obj 559 654 s FSR4;
#X obj 591 481 *~;
#X obj 625 460 r piezzoAMOUNT;
#X obj 620 345 accelerometer-integration, f 14;
#X obj 621 389 r~ swingVelocity;
#X obj 19 328 route list;
#X obj 212 327 route list;
#X text 654 527 Analog INs;
#X text 275 512 I2C sensores Trill;
#X connect 0 0 15 0;
#X connect 0 0 45 0;
#X connect 3 0 5 0;
#X connect 3 0 6 0;
#X connect 3 0 20 0;
#X connect 6 0 22 0;
#X connect 6 0 11 0;
#X connect 8 0 16 0;
#X connect 10 0 14 0;
#X connect 11 0 12 0;
#X connect 12 0 13 0;
#X connect 13 0 10 0;
#X connect 13 0 17 0;
#X connect 15 0 1 0;
#X connect 16 0 10 1;
#X connect 16 0 60 0;
#X connect 16 1 17 1;
#X connect 16 1 61 0;
#X connect 17 0 18 0;
#X connect 20 0 21 0;
#X connect 23 0 24 0;
#X connect 23 1 25 0;
#X connect 23 2 26 0;
#X connect 23 3 27 0;
#X connect 23 4 28 0;
#X connect 23 5 29 0;
#X connect 23 6 30 0;
#X connect 23 7 31 0;
#X connect 23 8 32 0;
#X connect 23 9 33 0;
#X connect 23 10 34 0;
#X connect 35 0 36 0;
#X connect 35 1 37 0;
#X connect 35 2 38 0;
#X connect 35 3 39 0;
#X connect 40 0 41 0;
#X connect 40 1 47 0;
#X connect 40 2 50 0;
#X connect 40 3 53 0;
#X connect 40 4 56 0;
#X connect 40 5 58 0;
#X connect 40 6 58 1;
#X connect 40 7 58 2;
#X connect 41 0 42 0;
#X connect 42 0 43 0;
#X connect 44 0 42 0;
#X connect 44 0 48 0;
#X connect 44 0 51 0;
#X connect 44 0 54 0;
#X connect 46 0 44 0;
#X connect 47 0 48 0;
#X connect 48 0 49 0;
#X connect 50 0 51 0;
#X connect 51 0 52 0;
#X connect 53 0 54 0;
#X connect 54 0 55 0;
#X connect 57 0 56 1;
#X connect 60 0 23 0;
#X connect 61 0 35 0;
