#N canvas -8 -8 1366 725 12;
#N canvas -8 -8 1366 725 fm 0;
#X obj 107 133 hsl 128 15 0 127 0 1 \$0-polyfm-pitch-s \$0-polyfm-pitch-r
PITCH 135 7 0 10 -262144 -1 -1 3400 1;
#X obj 319 430 pack f f f;
#X obj 319 291 f;
#X msg 374 142 100;
#X obj 319 361 unpack f f;
#X obj 319 393 poly 4 1, f 10;
#X obj 319 455 route 1 2 3 4;
#X obj 107 163 hsl 128 15 0 127 0 1 \$0-polyfm-ratio-s \$0-polyfm-ratio-r
RATIO 135 7 0 10 -262144 -1 -1 0 1;
#X obj 107 213 hsl 128 15 1.27 127 1 1 \$0-polyfm-attack-s \$0-polyfm-attack-r
ATTACK 135 7 0 10 -262144 -1 -1 2900 1;
#X obj 107 228 hsl 128 15 0 127 0 1 \$0-polyfm-hold-s \$0-polyfm-hold-r
HOLD 135 7 0 10 -262144 -1 -1 9779 1;
#X obj 107 242 hsl 128 15 0 127 0 1 \$0-polyfm-release-s \$0-polyfm-release-r
RELEASE 135 7 0 10 -262144 -1 -1 9779 1;
#X obj 319 334 pack f f;
#X obj 319 115 t b b b;
#X obj 337 247 clip 0 127;
#X obj 677 660 outlet~ EG OUT;
#X obj 677 618 *~ 0.25;
#X obj 107 148 hsl 128 15 0 127 0 1 \$0-polyfm-index-s \$0-polyfm-index-r
INDEX 135 7 0 10 -262144 -1 -1 0 1;
#N canvas -8 -8 1366 725 voice1-ahr 0;
#X obj 246 42 inlet;
#X obj 246 64 unpack f f;
#X obj 303 87 sel 0;
#X obj 246 531 *~;
#X obj 246 553 outlet~;
#X obj 812 181 * 0.00787402;
#X obj 811 225 + 1;
#X obj 812 157 - 1.27;
#X obj 796 421 vline~;
#X obj 984 301 * 0.00787402;
#X obj 984 345 + 1;
#X obj 984 277 - 1.27;
#X obj 796 470 *~;
#X obj 796 514 *~;
#X obj 796 255 f;
#X obj 812 203 * 1999;
#X obj 857 246 * 0.00787402;
#X obj 857 268 * 999;
#X obj 857 290 + 1;
#X msg 796 389 1 \$1 \, 0 \$3 \$2;
#X obj 796 277 t f f;
#X obj 796 362 pack f f f;
#X obj 823 329 +;
#X obj 984 323 * 3999;
#X obj 246 246 phasor~;
#X obj 246 364 +~;
#X obj 246 386 cos~;
#X obj 458 96 r \$0-polyfm-ratio-s;
#X obj 443 232 *~;
#X obj 458 118 * 0.00787402;
#X obj 458 140 * 7;
#X obj 458 162 + 1;
#X obj 458 184 pack 0 50;
#X obj 458 206 line~;
#X obj 443 254 osc~;
#X obj 443 276 *~;
#X obj 587 127 r \$0-polyfm-index-s;
#X obj 587 149 * 0.00787402;
#X obj 587 193 pack 0 50;
#X obj 587 215 line~;
#X obj 812 135 r \$0-polyfm-attack-s;
#X obj 857 224 r \$0-polyfm-hold-s;
#X obj 984 253 r \$0-polyfm-release-s;
#X obj 796 544 throw~ \$0-polyfm-eg;
#X obj 587 171 * 1;
#N canvas 0 22 942 604 eg2 0;
#X obj 246 99 * 0.00787402;
#X obj 245 143 + 1;
#X obj 246 75 - 1.27;
#X obj 230 339 vline~;
#X obj 418 219 * 0.00787402;
#X obj 418 263 + 1;
#X obj 418 195 - 1.27;
#X obj 230 388 *~;
#X obj 230 432 *~;
#X obj 230 173 f;
#X obj 246 121 * 1999;
#X obj 291 164 * 0.00787402;
#X obj 291 186 * 999;
#X obj 291 208 + 1;
#X msg 230 307 1 \$1 \, 0 \$3 \$2;
#X obj 230 195 t f f;
#X obj 230 280 pack f f f;
#X obj 257 247 +;
#X obj 418 241 * 3999;
#X obj 246 53 r \$0-polyfm-attack2-s;
#X obj 291 142 r \$0-polyfm-hold2-s;
#X obj 418 171 r \$0-polyfm-release2-s;
#X obj 230 18 inlet;
#X obj 230 454 outlet~;
#X connect 0 0 10 0;
#X connect 1 0 9 1;
#X connect 2 0 0 0;
#X connect 3 0 7 0;
#X connect 3 0 7 1;
#X connect 4 0 18 0;
#X connect 5 0 16 2;
#X connect 6 0 4 0;
#X connect 7 0 8 0;
#X connect 7 0 8 1;
#X connect 8 0 23 0;
#X connect 9 0 15 0;
#X connect 10 0 1 0;
#X connect 11 0 12 0;
#X connect 12 0 13 0;
#X connect 13 0 17 1;
#X connect 14 0 3 0;
#X connect 15 0 16 0;
#X connect 15 1 17 0;
#X connect 16 0 14 0;
#X connect 17 0 16 1;
#X connect 18 0 5 0;
#X connect 19 0 2 0;
#X connect 20 0 11 0;
#X connect 21 0 6 0;
#X connect 22 0 9 0;
#X restore 357 192 pd eg2;
#X obj 342 312 *~;
#X obj 587 237 +~;
#X obj 587 259 clip~ 0 1;
#X obj 653 220 r~ \$0-polyfm-index-cv;
#X obj 920 398 +;
#X obj 920 422 delay;
#X obj 920 446 0;
#X obj 920 470 switch~;
#X obj 950 446 1;
#X obj 330 110 t b b b;
#X obj 246 132 mtof;
#X obj 140 201 spigot;
#X obj 21 209 spigot;
#X obj 7 77 r loadbangz;
#X obj 95 125 > 0.5;
#X msg 60 100 1;
#X obj 95 100 r sensorBarPress1;
#X obj 83 149 sel 1 0;
#X msg 83 172 0;
#X text 209 168 mudança freqs;
#X obj 246 222 +, f 9;
#X obj 212 191 * 100;
#X obj 108 15 r sensorBarPress2;
#X obj 108 40 > 0.5;
#X obj 145 66 spigot;
#X obj 195 66 * 150;
#X obj 101 280 > 0.5;
#X obj 138 306 spigot;
#X obj 101 255 r sensorBarPress3;
#X obj 188 306 * 200;
#X connect 0 0 1 0;
#X connect 1 0 56 0;
#X connect 1 1 2 0;
#X connect 2 1 55 0;
#X connect 3 0 4 0;
#X connect 5 0 15 0;
#X connect 6 0 14 1;
#X connect 7 0 5 0;
#X connect 8 0 12 0;
#X connect 8 0 12 1;
#X connect 9 0 23 0;
#X connect 10 0 21 2;
#X connect 10 0 50 1;
#X connect 11 0 9 0;
#X connect 12 0 13 0;
#X connect 12 0 13 1;
#X connect 13 0 3 1;
#X connect 13 0 43 0;
#X connect 14 0 20 0;
#X connect 15 0 6 0;
#X connect 16 0 17 0;
#X connect 17 0 18 0;
#X connect 18 0 22 1;
#X connect 19 0 8 0;
#X connect 20 0 21 0;
#X connect 20 1 22 0;
#X connect 21 0 19 0;
#X connect 22 0 21 1;
#X connect 22 0 50 0;
#X connect 23 0 10 0;
#X connect 24 0 25 0;
#X connect 25 0 26 0;
#X connect 26 0 3 0;
#X connect 27 0 29 0;
#X connect 28 0 34 0;
#X connect 29 0 30 0;
#X connect 30 0 31 0;
#X connect 31 0 32 0;
#X connect 32 0 33 0;
#X connect 33 0 28 1;
#X connect 34 0 35 0;
#X connect 35 0 46 0;
#X connect 36 0 37 0;
#X connect 37 0 44 0;
#X connect 38 0 39 0;
#X connect 39 0 47 0;
#X connect 40 0 7 0;
#X connect 41 0 16 0;
#X connect 42 0 11 0;
#X connect 44 0 38 0;
#X connect 45 0 46 1;
#X connect 46 0 25 1;
#X connect 47 0 48 0;
#X connect 48 0 35 1;
#X connect 49 0 47 1;
#X connect 50 0 51 0;
#X connect 51 0 52 0;
#X connect 52 0 53 0;
#X connect 54 0 53 0;
#X connect 55 0 14 0;
#X connect 55 1 45 0;
#X connect 55 2 54 0;
#X connect 56 0 28 0;
#X connect 56 0 57 0;
#X connect 56 0 58 0;
#X connect 57 0 66 0;
#X connect 58 0 24 0;
#X connect 59 0 61 0;
#X connect 60 0 63 0;
#X connect 60 0 57 1;
#X connect 61 0 58 1;
#X connect 62 0 60 0;
#X connect 62 0 67 0;
#X connect 63 0 64 0;
#X connect 63 1 61 0;
#X connect 64 0 58 1;
#X connect 66 0 24 0;
#X connect 67 0 66 1;
#X connect 68 0 69 0;
#X connect 68 0 70 0;
#X connect 69 0 70 1;
#X connect 70 0 71 0;
#X connect 71 0 67 1;
#X connect 72 0 73 1;
#X connect 73 0 75 0;
#X connect 74 0 72 0;
#X connect 74 0 73 0;
#X connect 75 0 67 1;
#X restore 319 481 pd voice1-ahr;
#X obj 102 110 cnv 5 5 5 empty empty TRIG 0 0 0 8 -262144 -226533 0
;
#X obj 104 267 cnv 5 5 5 empty empty modulator-EG 0 0 0 12 -262144
-66577 0;
#X obj 177 123 cnv 5 5 5 empty \$0-instance-num 0 0 0 0 12 -262144
-66577 0;
#X obj 105 115 bng 15 50 50 0 empty empty empty 17 7 0 10 -262144 -226533
-1;
#N canvas 297 27 723 391 parameter-nudging-system 0;
#N canvas 0 22 484 497 param-nudge 0;
#X obj 124 234 random;
#X obj 232 335 f;
#X obj 232 368 +;
#X obj 257 166 random 2;
#X obj 124 275 t f f;
#X obj 124 351 t b f;
#X obj 124 297 *;
#X obj 257 188 sel 0 1;
#X msg 257 280 -1;
#X msg 335 280 1;
#X obj 124 149 t b b b;
#X obj 124 123 r NUDGE!;
#X obj 157 193 r NUDGE-RANGE;
#X obj 247 308 inlet;
#X obj 232 397 outlet;
#X floatatom 316 396 5 0 0 0 - - -;
#X connect 0 0 4 0;
#X connect 1 0 2 0;
#X connect 2 0 14 0;
#X connect 2 0 15 0;
#X connect 3 0 7 0;
#X connect 4 0 6 0;
#X connect 5 0 2 0;
#X connect 5 1 2 1;
#X connect 6 0 5 0;
#X connect 7 0 8 0;
#X connect 7 1 9 0;
#X connect 8 0 6 1;
#X connect 9 0 6 1;
#X connect 10 0 0 0;
#X connect 10 1 1 0;
#X connect 10 2 3 0;
#X connect 11 0 10 0;
#X connect 12 0 0 1;
#X connect 13 0 1 1;
#X restore 23 45 pd param-nudge;
#N canvas 0 22 484 497 param-nudge 0;
#X obj 124 234 random;
#X obj 232 335 f;
#X obj 232 368 +;
#X obj 257 166 random 2;
#X obj 124 275 t f f;
#X obj 124 351 t b f;
#X obj 124 297 *;
#X obj 257 188 sel 0 1;
#X msg 257 280 -1;
#X msg 335 280 1;
#X obj 124 149 t b b b;
#X obj 124 123 r NUDGE!;
#X obj 157 193 r NUDGE-RANGE;
#X obj 247 308 inlet;
#X obj 232 397 outlet;
#X connect 0 0 4 0;
#X connect 1 0 2 0;
#X connect 2 0 14 0;
#X connect 3 0 7 0;
#X connect 4 0 6 0;
#X connect 5 0 2 0;
#X connect 5 1 2 1;
#X connect 6 0 5 0;
#X connect 7 0 8 0;
#X connect 7 1 9 0;
#X connect 8 0 6 1;
#X connect 9 0 6 1;
#X connect 10 0 0 0;
#X connect 10 1 1 0;
#X connect 10 2 3 0;
#X connect 11 0 10 0;
#X connect 12 0 0 1;
#X connect 13 0 1 1;
#X restore 214 47 pd param-nudge;
#N canvas 0 22 484 497 param-nudge 0;
#X obj 124 234 random;
#X obj 232 335 f;
#X obj 232 368 +;
#X obj 257 166 random 2;
#X obj 124 275 t f f;
#X obj 124 351 t b f;
#X obj 124 297 *;
#X obj 257 188 sel 0 1;
#X msg 257 280 -1;
#X msg 335 280 1;
#X obj 124 149 t b b b;
#X obj 124 123 r NUDGE!;
#X obj 157 193 r NUDGE-RANGE;
#X obj 247 308 inlet;
#X obj 232 397 outlet;
#X connect 0 0 4 0;
#X connect 1 0 2 0;
#X connect 2 0 14 0;
#X connect 3 0 7 0;
#X connect 4 0 6 0;
#X connect 5 0 2 0;
#X connect 5 1 2 1;
#X connect 6 0 5 0;
#X connect 7 0 8 0;
#X connect 7 1 9 0;
#X connect 8 0 6 1;
#X connect 9 0 6 1;
#X connect 10 0 0 0;
#X connect 10 1 1 0;
#X connect 10 2 3 0;
#X connect 11 0 10 0;
#X connect 12 0 0 1;
#X connect 13 0 1 1;
#X restore 407 47 pd param-nudge;
#N canvas 0 22 484 497 param-nudge 0;
#X obj 124 234 random;
#X obj 232 335 f;
#X obj 232 368 +;
#X obj 257 166 random 2;
#X obj 124 275 t f f;
#X obj 124 351 t b f;
#X obj 124 297 *;
#X obj 257 188 sel 0 1;
#X msg 257 280 -1;
#X msg 335 280 1;
#X obj 124 149 t b b b;
#X obj 124 123 r NUDGE!;
#X obj 157 193 r NUDGE-RANGE;
#X obj 247 308 inlet;
#X obj 232 397 outlet;
#X connect 0 0 4 0;
#X connect 1 0 2 0;
#X connect 2 0 14 0;
#X connect 3 0 7 0;
#X connect 4 0 6 0;
#X connect 5 0 2 0;
#X connect 5 1 2 1;
#X connect 6 0 5 0;
#X connect 7 0 8 0;
#X connect 7 1 9 0;
#X connect 8 0 6 1;
#X connect 9 0 6 1;
#X connect 10 0 0 0;
#X connect 10 1 1 0;
#X connect 10 2 3 0;
#X connect 11 0 10 0;
#X connect 12 0 0 1;
#X connect 13 0 1 1;
#X restore 21 149 pd param-nudge;
#N canvas 0 22 484 497 param-nudge 0;
#X obj 124 234 random;
#X obj 232 335 f;
#X obj 232 368 +;
#X obj 257 166 random 2;
#X obj 124 275 t f f;
#X obj 124 351 t b f;
#X obj 124 297 *;
#X obj 257 188 sel 0 1;
#X msg 257 280 -1;
#X msg 335 280 1;
#X obj 124 149 t b b b;
#X obj 124 123 r NUDGE!;
#X obj 157 193 r NUDGE-RANGE;
#X obj 247 308 inlet;
#X obj 232 397 outlet;
#X connect 0 0 4 0;
#X connect 1 0 2 0;
#X connect 2 0 14 0;
#X connect 3 0 7 0;
#X connect 4 0 6 0;
#X connect 5 0 2 0;
#X connect 5 1 2 1;
#X connect 6 0 5 0;
#X connect 7 0 8 0;
#X connect 7 1 9 0;
#X connect 8 0 6 1;
#X connect 9 0 6 1;
#X connect 10 0 0 0;
#X connect 10 1 1 0;
#X connect 10 2 3 0;
#X connect 11 0 10 0;
#X connect 12 0 0 1;
#X connect 13 0 1 1;
#X restore 213 151 pd param-nudge;
#X obj 21 171 clip 0 127;
#X obj 213 173 clip 0 127;
#X obj 23 67 clip 0 127;
#X obj 214 69 clip 0 127;
#X obj 407 71 clip 0 127;
#N canvas 0 22 484 497 param-nudge 0;
#X obj 124 234 random;
#X obj 232 335 f;
#X obj 232 368 +;
#X obj 257 166 random 2;
#X obj 124 275 t f f;
#X obj 124 351 t b f;
#X obj 124 297 *;
#X obj 257 188 sel 0 1;
#X msg 257 280 -1;
#X msg 335 280 1;
#X obj 124 149 t b b b;
#X obj 124 123 r NUDGE!;
#X obj 157 193 r NUDGE-RANGE;
#X obj 247 308 inlet;
#X obj 232 397 outlet;
#X connect 0 0 4 0;
#X connect 1 0 2 0;
#X connect 2 0 14 0;
#X connect 3 0 7 0;
#X connect 4 0 6 0;
#X connect 5 0 2 0;
#X connect 5 1 2 1;
#X connect 6 0 5 0;
#X connect 7 0 8 0;
#X connect 7 1 9 0;
#X connect 8 0 6 1;
#X connect 9 0 6 1;
#X connect 10 0 0 0;
#X connect 10 1 1 0;
#X connect 10 2 3 0;
#X connect 11 0 10 0;
#X connect 12 0 0 1;
#X connect 13 0 1 1;
#X restore 409 151 pd param-nudge;
#X obj 409 173 clip 0 127;
#N canvas 0 22 484 497 param-nudge 0;
#X obj 124 234 random;
#X obj 232 335 f;
#X obj 232 368 +;
#X obj 257 166 random 2;
#X obj 124 275 t f f;
#X obj 124 351 t b f;
#X obj 124 297 *;
#X obj 257 188 sel 0 1;
#X msg 257 280 -1;
#X msg 335 280 1;
#X obj 124 149 t b b b;
#X obj 124 123 r NUDGE!;
#X obj 157 193 r NUDGE-RANGE;
#X obj 247 308 inlet;
#X obj 232 397 outlet;
#X connect 0 0 4 0;
#X connect 1 0 2 0;
#X connect 2 0 14 0;
#X connect 3 0 7 0;
#X connect 4 0 6 0;
#X connect 5 0 2 0;
#X connect 5 1 2 1;
#X connect 6 0 5 0;
#X connect 7 0 8 0;
#X connect 7 1 9 0;
#X connect 8 0 6 1;
#X connect 9 0 6 1;
#X connect 10 0 0 0;
#X connect 10 1 1 0;
#X connect 10 2 3 0;
#X connect 11 0 10 0;
#X connect 12 0 0 1;
#X connect 13 0 1 1;
#X restore 25 264 pd param-nudge;
#N canvas 0 22 484 497 param-nudge 0;
#X obj 124 234 random;
#X obj 232 335 f;
#X obj 232 368 +;
#X obj 257 166 random 2;
#X obj 124 275 t f f;
#X obj 124 351 t b f;
#X obj 124 297 *;
#X obj 257 188 sel 0 1;
#X msg 257 280 -1;
#X msg 335 280 1;
#X obj 124 149 t b b b;
#X obj 124 123 r NUDGE!;
#X obj 157 193 r NUDGE-RANGE;
#X obj 247 308 inlet;
#X obj 232 397 outlet;
#X connect 0 0 4 0;
#X connect 1 0 2 0;
#X connect 2 0 14 0;
#X connect 3 0 7 0;
#X connect 4 0 6 0;
#X connect 5 0 2 0;
#X connect 5 1 2 1;
#X connect 6 0 5 0;
#X connect 7 0 8 0;
#X connect 7 1 9 0;
#X connect 8 0 6 1;
#X connect 9 0 6 1;
#X connect 10 0 0 0;
#X connect 10 1 1 0;
#X connect 10 2 3 0;
#X connect 11 0 10 0;
#X connect 12 0 0 1;
#X connect 13 0 1 1;
#X restore 217 266 pd param-nudge;
#X obj 25 286 clip 0 127;
#X obj 217 288 clip 0 127;
#N canvas 0 22 484 497 param-nudge 0;
#X obj 124 234 random;
#X obj 232 335 f;
#X obj 232 368 +;
#X obj 257 166 random 2;
#X obj 124 275 t f f;
#X obj 124 351 t b f;
#X obj 124 297 *;
#X obj 257 188 sel 0 1;
#X msg 257 280 -1;
#X msg 335 280 1;
#X obj 124 149 t b b b;
#X obj 124 123 r NUDGE!;
#X obj 157 193 r NUDGE-RANGE;
#X obj 247 308 inlet;
#X obj 232 397 outlet;
#X connect 0 0 4 0;
#X connect 1 0 2 0;
#X connect 2 0 14 0;
#X connect 3 0 7 0;
#X connect 4 0 6 0;
#X connect 5 0 2 0;
#X connect 5 1 2 1;
#X connect 6 0 5 0;
#X connect 7 0 8 0;
#X connect 7 1 9 0;
#X connect 8 0 6 1;
#X connect 9 0 6 1;
#X connect 10 0 0 0;
#X connect 10 1 1 0;
#X connect 10 2 3 0;
#X connect 11 0 10 0;
#X connect 12 0 0 1;
#X connect 13 0 1 1;
#X restore 413 266 pd param-nudge;
#X obj 413 288 clip 0 127;
#X obj 23 22 r \$0-polyfm-pitch-s;
#X obj 23 95 s \$0-polyfm-pitch-r;
#X obj 214 24 r \$0-polyfm-index-s;
#X obj 214 97 s \$0-polyfm-index-r;
#X obj 407 24 r \$0-polyfm-ratio-s;
#X obj 407 97 s \$0-polyfm-ratio-r;
#X obj 21 126 r \$0-polyfm-attack-s;
#X obj 21 198 s \$0-polyfm-attack-r;
#X obj 213 128 r \$0-polyfm-hold-s;
#X obj 213 199 s \$0-polyfm-hold-r;
#X obj 409 128 r \$0-polyfm-release-s;
#X obj 409 199 s \$0-polyfm-release-r;
#X obj 25 241 r \$0-polyfm-attack2-s;
#X obj 25 313 s \$0-polyfm-attack2-r;
#X obj 217 243 r \$0-polyfm-hold2-s;
#X obj 217 314 s \$0-polyfm-hold2-r;
#X obj 413 243 r \$0-polyfm-release2-s;
#X obj 413 314 s \$0-polyfm-release2-r;
#X connect 0 0 7 0;
#X connect 1 0 8 0;
#X connect 2 0 9 0;
#X connect 3 0 5 0;
#X connect 4 0 6 0;
#X connect 5 0 25 0;
#X connect 6 0 27 0;
#X connect 7 0 19 0;
#X connect 8 0 21 0;
#X connect 9 0 23 0;
#X connect 10 0 11 0;
#X connect 11 0 29 0;
#X connect 12 0 14 0;
#X connect 13 0 15 0;
#X connect 14 0 31 0;
#X connect 15 0 33 0;
#X connect 16 0 17 0;
#X connect 17 0 35 0;
#X connect 18 0 0 0;
#X connect 20 0 1 0;
#X connect 22 0 2 0;
#X connect 24 0 3 0;
#X connect 26 0 4 0;
#X connect 28 0 10 0;
#X connect 30 0 12 0;
#X connect 32 0 13 0;
#X connect 34 0 16 0;
#X restore 100 352 pd parameter-nudging-system;
#X obj 269 332 cnv 5 5 5 empty empty ENV 0 0 0 8 -262144 -1 0;
#X obj 103 332 cnv 5 5 5 empty empty LEFT 0 0 0 8 -262144 -1 0;
#X obj 183 332 cnv 5 5 5 empty empty RIGHT 0 0 0 8 -262144 -1 0;
#X obj 260 110 cnv 5 5 5 empty empty INDEX 0 0 0 8 -262144 -66577 0
;
#X obj 319 670 outlet~ LEFT;
#X obj 677 596 catch~ \$0-polyfm-eg;
#X obj 337 172 r \$0-polyfm-pitch-s;
#X obj 107 276 hsl 128 15 1.27 127 1 1 \$0-polyfm-attack2-s \$0-polyfm-attack2-r
ATTACK 135 7 0 10 -262144 -1 -1 4100 1;
#X obj 107 291 hsl 128 15 0 127 0 1 \$0-polyfm-hold2-s \$0-polyfm-hold2-r
HOLD 135 7 0 10 -262144 -1 -1 9779 1;
#X obj 107 305 hsl 128 15 0 127 0 1 \$0-polyfm-release2-s \$0-polyfm-release2-r
RELEASE 135 7 0 10 -262144 -1 -1 9779 1;
#X obj 127 123 cnv 5 5 5 empty empty polyFM 0 0 0 12 -262144 -66577
0;
#X obj 104 204 cnv 5 5 5 empty empty carrier-EG 0 0 0 12 -262144 -66577
0;
#X obj 638 31 inlet~ INDEX CV;
#X obj 637 64 s~ \$0-polyfm-index-cv;
#N canvas -8 -8 1366 725 voice2-ahr 0;
#X obj 364 72 inlet;
#X obj 364 94 unpack f f;
#X obj 421 117 sel 0;
#X obj 364 561 *~;
#X obj 364 583 outlet~;
#X obj 930 211 * 0.00787402;
#X obj 929 255 + 1;
#X obj 930 187 - 1.27;
#X obj 914 451 vline~;
#X obj 1102 331 * 0.00787402;
#X obj 1102 375 + 1;
#X obj 1102 307 - 1.27;
#X obj 914 500 *~;
#X obj 914 544 *~;
#X obj 914 285 f;
#X obj 930 233 * 1999;
#X obj 975 276 * 0.00787402;
#X obj 975 298 * 999;
#X obj 975 320 + 1;
#X msg 914 419 1 \$1 \, 0 \$3 \$2;
#X obj 914 307 t f f;
#X obj 914 392 pack f f f;
#X obj 941 359 +;
#X obj 1102 353 * 3999;
#X obj 364 276 phasor~;
#X obj 364 394 +~;
#X obj 364 416 cos~;
#X obj 576 126 r \$0-polyfm-ratio-s;
#X obj 561 262 *~;
#X obj 576 148 * 0.00787402;
#X obj 576 170 * 7;
#X obj 576 192 + 1;
#X obj 576 214 pack 0 50;
#X obj 576 236 line~;
#X obj 561 284 osc~;
#X obj 561 306 *~;
#X obj 705 157 r \$0-polyfm-index-s;
#X obj 705 179 * 0.00787402;
#X obj 705 223 pack 0 50;
#X obj 705 245 line~;
#X obj 930 165 r \$0-polyfm-attack-s;
#X obj 975 254 r \$0-polyfm-hold-s;
#X obj 1102 283 r \$0-polyfm-release-s;
#X obj 914 574 throw~ \$0-polyfm-eg;
#X obj 705 201 * 1;
#N canvas 0 22 942 604 eg2 0;
#X obj 246 99 * 0.00787402;
#X obj 245 143 + 1;
#X obj 246 75 - 1.27;
#X obj 230 339 vline~;
#X obj 418 219 * 0.00787402;
#X obj 418 263 + 1;
#X obj 418 195 - 1.27;
#X obj 230 388 *~;
#X obj 230 432 *~;
#X obj 230 173 f;
#X obj 246 121 * 1999;
#X obj 291 164 * 0.00787402;
#X obj 291 186 * 999;
#X obj 291 208 + 1;
#X msg 230 307 1 \$1 \, 0 \$3 \$2;
#X obj 230 195 t f f;
#X obj 230 280 pack f f f;
#X obj 257 247 +;
#X obj 418 241 * 3999;
#X obj 246 53 r \$0-polyfm-attack2-s;
#X obj 291 142 r \$0-polyfm-hold2-s;
#X obj 418 171 r \$0-polyfm-release2-s;
#X obj 230 18 inlet;
#X obj 230 454 outlet~;
#X connect 0 0 10 0;
#X connect 1 0 9 1;
#X connect 2 0 0 0;
#X connect 3 0 7 0;
#X connect 3 0 7 1;
#X connect 4 0 18 0;
#X connect 5 0 16 2;
#X connect 6 0 4 0;
#X connect 7 0 8 0;
#X connect 7 0 8 1;
#X connect 8 0 23 0;
#X connect 9 0 15 0;
#X connect 10 0 1 0;
#X connect 11 0 12 0;
#X connect 12 0 13 0;
#X connect 13 0 17 1;
#X connect 14 0 3 0;
#X connect 15 0 16 0;
#X connect 15 1 17 0;
#X connect 16 0 14 0;
#X connect 17 0 16 1;
#X connect 18 0 5 0;
#X connect 19 0 2 0;
#X connect 20 0 11 0;
#X connect 21 0 6 0;
#X connect 22 0 9 0;
#X restore 475 222 pd eg2;
#X obj 460 342 *~;
#X obj 705 267 +~;
#X obj 705 289 clip~ 0 1;
#X obj 771 250 r~ \$0-polyfm-index-cv;
#X obj 1058 449 +;
#X obj 1058 473 delay;
#X obj 1058 497 0;
#X obj 1058 521 switch~;
#X obj 1088 497 1;
#X obj 448 140 t b b b;
#X obj 364 116 mtof;
#X obj 188 209 spigot;
#X obj 69 217 spigot;
#X obj 55 85 r loadbangz;
#X obj 143 133 > 0.5;
#X msg 108 108 1;
#X obj 143 108 r sensorBarPress1;
#X obj 131 157 sel 1 0;
#X msg 131 180 0;
#X text 257 176 mudança freqs;
#X obj 294 230 +, f 9;
#X obj 260 199 * 100;
#X obj 156 23 r sensorBarPress2;
#X obj 156 48 > 0.5;
#X obj 193 74 spigot;
#X obj 243 74 * 150;
#X obj 149 288 > 0.5;
#X obj 186 314 spigot;
#X obj 149 263 r sensorBarPress3;
#X obj 236 314 * 200;
#X connect 0 0 1 0;
#X connect 1 0 56 0;
#X connect 1 1 2 0;
#X connect 2 1 55 0;
#X connect 3 0 4 0;
#X connect 5 0 15 0;
#X connect 6 0 14 1;
#X connect 7 0 5 0;
#X connect 8 0 12 0;
#X connect 8 0 12 1;
#X connect 9 0 23 0;
#X connect 10 0 21 2;
#X connect 10 0 50 1;
#X connect 11 0 9 0;
#X connect 12 0 13 0;
#X connect 12 0 13 1;
#X connect 13 0 3 1;
#X connect 13 0 43 0;
#X connect 14 0 20 0;
#X connect 15 0 6 0;
#X connect 16 0 17 0;
#X connect 17 0 18 0;
#X connect 18 0 22 1;
#X connect 19 0 8 0;
#X connect 20 0 21 0;
#X connect 20 1 22 0;
#X connect 21 0 19 0;
#X connect 22 0 21 1;
#X connect 22 0 50 0;
#X connect 23 0 10 0;
#X connect 24 0 25 0;
#X connect 25 0 26 0;
#X connect 26 0 3 0;
#X connect 27 0 29 0;
#X connect 28 0 34 0;
#X connect 29 0 30 0;
#X connect 30 0 31 0;
#X connect 31 0 32 0;
#X connect 32 0 33 0;
#X connect 33 0 28 1;
#X connect 34 0 35 0;
#X connect 35 0 46 0;
#X connect 36 0 37 0;
#X connect 37 0 44 0;
#X connect 38 0 39 0;
#X connect 39 0 47 0;
#X connect 40 0 7 0;
#X connect 41 0 16 0;
#X connect 42 0 11 0;
#X connect 44 0 38 0;
#X connect 45 0 46 1;
#X connect 46 0 25 1;
#X connect 47 0 48 0;
#X connect 48 0 35 1;
#X connect 49 0 47 1;
#X connect 50 0 51 0;
#X connect 51 0 52 0;
#X connect 52 0 53 0;
#X connect 54 0 53 0;
#X connect 55 0 14 0;
#X connect 55 1 45 0;
#X connect 55 2 54 0;
#X connect 56 0 28 0;
#X connect 56 0 57 0;
#X connect 56 0 58 0;
#X connect 57 0 66 0;
#X connect 58 0 24 0;
#X connect 59 0 61 0;
#X connect 60 0 63 0;
#X connect 60 0 57 1;
#X connect 61 0 58 1;
#X connect 62 0 60 0;
#X connect 62 0 67 0;
#X connect 63 0 64 0;
#X connect 63 1 61 0;
#X connect 64 0 58 1;
#X connect 66 0 24 0;
#X connect 67 0 66 1;
#X connect 68 0 69 0;
#X connect 68 0 70 0;
#X connect 69 0 70 1;
#X connect 70 0 71 0;
#X connect 71 0 67 1;
#X connect 72 0 73 1;
#X connect 73 0 75 0;
#X connect 74 0 72 0;
#X connect 74 0 73 0;
#X connect 75 0 67 1;
#X restore 337 508 pd voice2-ahr;
#N canvas -8 -8 1366 725 voice3-ahr 0;
#X obj 396 72 inlet;
#X obj 396 94 unpack f f;
#X obj 453 117 sel 0;
#X obj 396 561 *~;
#X obj 396 583 outlet~;
#X obj 962 211 * 0.00787402;
#X obj 961 255 + 1;
#X obj 962 187 - 1.27;
#X obj 946 451 vline~;
#X obj 1134 331 * 0.00787402;
#X obj 1134 375 + 1;
#X obj 1134 307 - 1.27;
#X obj 946 500 *~;
#X obj 946 544 *~;
#X obj 946 285 f;
#X obj 962 233 * 1999;
#X obj 1007 276 * 0.00787402;
#X obj 1007 298 * 999;
#X obj 1007 320 + 1;
#X msg 946 419 1 \$1 \, 0 \$3 \$2;
#X obj 946 307 t f f;
#X obj 946 392 pack f f f;
#X obj 973 359 +;
#X obj 1134 353 * 3999;
#X obj 396 276 phasor~;
#X obj 396 394 +~;
#X obj 396 416 cos~;
#X obj 608 126 r \$0-polyfm-ratio-s;
#X obj 593 262 *~;
#X obj 608 148 * 0.00787402;
#X obj 608 170 * 7;
#X obj 608 192 + 1;
#X obj 608 214 pack 0 50;
#X obj 608 236 line~;
#X obj 593 284 osc~;
#X obj 593 306 *~;
#X obj 737 157 r \$0-polyfm-index-s;
#X obj 737 179 * 0.00787402;
#X obj 737 223 pack 0 50;
#X obj 737 245 line~;
#X obj 962 165 r \$0-polyfm-attack-s;
#X obj 1007 254 r \$0-polyfm-hold-s;
#X obj 1134 283 r \$0-polyfm-release-s;
#X obj 946 574 throw~ \$0-polyfm-eg;
#X obj 737 201 * 1;
#N canvas 0 22 942 604 eg2 0;
#X obj 246 99 * 0.00787402;
#X obj 245 143 + 1;
#X obj 246 75 - 1.27;
#X obj 230 339 vline~;
#X obj 418 219 * 0.00787402;
#X obj 418 263 + 1;
#X obj 418 195 - 1.27;
#X obj 230 388 *~;
#X obj 230 432 *~;
#X obj 230 173 f;
#X obj 246 121 * 1999;
#X obj 291 164 * 0.00787402;
#X obj 291 186 * 999;
#X obj 291 208 + 1;
#X msg 230 307 1 \$1 \, 0 \$3 \$2;
#X obj 230 195 t f f;
#X obj 230 280 pack f f f;
#X obj 257 247 +;
#X obj 418 241 * 3999;
#X obj 246 53 r \$0-polyfm-attack2-s;
#X obj 291 142 r \$0-polyfm-hold2-s;
#X obj 418 171 r \$0-polyfm-release2-s;
#X obj 230 18 inlet;
#X obj 230 454 outlet~;
#X connect 0 0 10 0;
#X connect 1 0 9 1;
#X connect 2 0 0 0;
#X connect 3 0 7 0;
#X connect 3 0 7 1;
#X connect 4 0 18 0;
#X connect 5 0 16 2;
#X connect 6 0 4 0;
#X connect 7 0 8 0;
#X connect 7 0 8 1;
#X connect 8 0 23 0;
#X connect 9 0 15 0;
#X connect 10 0 1 0;
#X connect 11 0 12 0;
#X connect 12 0 13 0;
#X connect 13 0 17 1;
#X connect 14 0 3 0;
#X connect 15 0 16 0;
#X connect 15 1 17 0;
#X connect 16 0 14 0;
#X connect 17 0 16 1;
#X connect 18 0 5 0;
#X connect 19 0 2 0;
#X connect 20 0 11 0;
#X connect 21 0 6 0;
#X connect 22 0 9 0;
#X restore 507 222 pd eg2;
#X obj 492 342 *~;
#X obj 737 267 +~;
#X obj 737 289 clip~ 0 1;
#X obj 803 250 r~ \$0-polyfm-index-cv;
#X obj 1090 449 +;
#X obj 1090 473 delay;
#X obj 1090 497 0;
#X obj 1090 521 switch~;
#X obj 1120 497 1;
#X obj 480 140 t b b b;
#X obj 396 116 mtof;
#X obj 203 229 spigot;
#X obj 84 237 spigot;
#X obj 70 105 r loadbangz;
#X obj 158 153 > 0.5;
#X msg 123 128 1;
#X obj 158 128 r sensorBarPress1;
#X obj 146 177 sel 1 0;
#X msg 146 200 0;
#X text 272 196 mudança freqs;
#X obj 309 250 +, f 9;
#X obj 275 219 * 100;
#X obj 171 43 r sensorBarPress2;
#X obj 171 68 > 0.5;
#X obj 208 94 spigot;
#X obj 258 94 * 150;
#X obj 164 308 > 0.5;
#X obj 201 334 spigot;
#X obj 164 283 r sensorBarPress3;
#X obj 251 334 * 200;
#X connect 0 0 1 0;
#X connect 1 0 56 0;
#X connect 1 1 2 0;
#X connect 2 1 55 0;
#X connect 3 0 4 0;
#X connect 5 0 15 0;
#X connect 6 0 14 1;
#X connect 7 0 5 0;
#X connect 8 0 12 0;
#X connect 8 0 12 1;
#X connect 9 0 23 0;
#X connect 10 0 21 2;
#X connect 10 0 50 1;
#X connect 11 0 9 0;
#X connect 12 0 13 0;
#X connect 12 0 13 1;
#X connect 13 0 3 1;
#X connect 13 0 43 0;
#X connect 14 0 20 0;
#X connect 15 0 6 0;
#X connect 16 0 17 0;
#X connect 17 0 18 0;
#X connect 18 0 22 1;
#X connect 19 0 8 0;
#X connect 20 0 21 0;
#X connect 20 1 22 0;
#X connect 21 0 19 0;
#X connect 22 0 21 1;
#X connect 22 0 50 0;
#X connect 23 0 10 0;
#X connect 24 0 25 0;
#X connect 25 0 26 0;
#X connect 26 0 3 0;
#X connect 27 0 29 0;
#X connect 28 0 34 0;
#X connect 29 0 30 0;
#X connect 30 0 31 0;
#X connect 31 0 32 0;
#X connect 32 0 33 0;
#X connect 33 0 28 1;
#X connect 34 0 35 0;
#X connect 35 0 46 0;
#X connect 36 0 37 0;
#X connect 37 0 44 0;
#X connect 38 0 39 0;
#X connect 39 0 47 0;
#X connect 40 0 7 0;
#X connect 41 0 16 0;
#X connect 42 0 11 0;
#X connect 44 0 38 0;
#X connect 45 0 46 1;
#X connect 46 0 25 1;
#X connect 47 0 48 0;
#X connect 48 0 35 1;
#X connect 49 0 47 1;
#X connect 50 0 51 0;
#X connect 51 0 52 0;
#X connect 52 0 53 0;
#X connect 54 0 53 0;
#X connect 55 0 14 0;
#X connect 55 1 45 0;
#X connect 55 2 54 0;
#X connect 56 0 28 0;
#X connect 56 0 57 0;
#X connect 56 0 58 0;
#X connect 57 0 66 0;
#X connect 58 0 24 0;
#X connect 59 0 61 0;
#X connect 60 0 63 0;
#X connect 60 0 57 1;
#X connect 61 0 58 1;
#X connect 62 0 60 0;
#X connect 62 0 67 0;
#X connect 63 0 64 0;
#X connect 63 1 61 0;
#X connect 64 0 58 1;
#X connect 66 0 24 0;
#X connect 67 0 66 1;
#X connect 68 0 69 0;
#X connect 68 0 70 0;
#X connect 69 0 70 1;
#X connect 70 0 71 0;
#X connect 71 0 67 1;
#X connect 72 0 73 1;
#X connect 73 0 75 0;
#X connect 74 0 72 0;
#X connect 74 0 73 0;
#X connect 75 0 67 1;
#X restore 356 537 pd voice3-ahr;
#N canvas -8 -8 1366 725 voice4-ahr 0;
#X obj 386 71 inlet;
#X obj 386 93 unpack f f;
#X obj 443 116 sel 0;
#X obj 386 560 *~;
#X obj 386 582 outlet~;
#X obj 952 210 * 0.00787402;
#X obj 951 254 + 1;
#X obj 952 186 - 1.27;
#X obj 936 450 vline~;
#X obj 1124 330 * 0.00787402;
#X obj 1124 374 + 1;
#X obj 1124 306 - 1.27;
#X obj 936 499 *~;
#X obj 936 543 *~;
#X obj 936 284 f;
#X obj 952 232 * 1999;
#X obj 997 275 * 0.00787402;
#X obj 997 297 * 999;
#X obj 997 319 + 1;
#X msg 936 418 1 \$1 \, 0 \$3 \$2;
#X obj 936 306 t f f;
#X obj 936 391 pack f f f;
#X obj 963 358 +;
#X obj 1124 352 * 3999;
#X obj 386 275 phasor~;
#X obj 386 393 +~;
#X obj 386 415 cos~;
#X obj 598 125 r \$0-polyfm-ratio-s;
#X obj 583 261 *~;
#X obj 598 147 * 0.00787402;
#X obj 598 169 * 7;
#X obj 598 191 + 1;
#X obj 598 213 pack 0 50;
#X obj 598 235 line~;
#X obj 583 283 osc~;
#X obj 583 305 *~;
#X obj 727 156 r \$0-polyfm-index-s;
#X obj 727 178 * 0.00787402;
#X obj 727 222 pack 0 50;
#X obj 727 244 line~;
#X obj 952 164 r \$0-polyfm-attack-s;
#X obj 997 253 r \$0-polyfm-hold-s;
#X obj 1124 282 r \$0-polyfm-release-s;
#X obj 936 573 throw~ \$0-polyfm-eg;
#X obj 727 200 * 1;
#N canvas 0 22 942 604 eg2 0;
#X obj 246 99 * 0.00787402;
#X obj 245 143 + 1;
#X obj 246 75 - 1.27;
#X obj 230 339 vline~;
#X obj 418 219 * 0.00787402;
#X obj 418 263 + 1;
#X obj 418 195 - 1.27;
#X obj 230 388 *~;
#X obj 230 432 *~;
#X obj 230 173 f;
#X obj 246 121 * 1999;
#X obj 291 164 * 0.00787402;
#X obj 291 186 * 999;
#X obj 291 208 + 1;
#X msg 230 307 1 \$1 \, 0 \$3 \$2;
#X obj 230 195 t f f;
#X obj 230 280 pack f f f;
#X obj 257 247 +;
#X obj 418 241 * 3999;
#X obj 246 53 r \$0-polyfm-attack2-s;
#X obj 291 142 r \$0-polyfm-hold2-s;
#X obj 418 171 r \$0-polyfm-release2-s;
#X obj 230 18 inlet;
#X obj 230 454 outlet~;
#X connect 0 0 10 0;
#X connect 1 0 9 1;
#X connect 2 0 0 0;
#X connect 3 0 7 0;
#X connect 3 0 7 1;
#X connect 4 0 18 0;
#X connect 5 0 16 2;
#X connect 6 0 4 0;
#X connect 7 0 8 0;
#X connect 7 0 8 1;
#X connect 8 0 23 0;
#X connect 9 0 15 0;
#X connect 10 0 1 0;
#X connect 11 0 12 0;
#X connect 12 0 13 0;
#X connect 13 0 17 1;
#X connect 14 0 3 0;
#X connect 15 0 16 0;
#X connect 15 1 17 0;
#X connect 16 0 14 0;
#X connect 17 0 16 1;
#X connect 18 0 5 0;
#X connect 19 0 2 0;
#X connect 20 0 11 0;
#X connect 21 0 6 0;
#X connect 22 0 9 0;
#X restore 497 221 pd eg2;
#X obj 482 341 *~;
#X obj 727 266 +~;
#X obj 727 288 clip~ 0 1;
#X obj 793 249 r~ \$0-polyfm-index-cv;
#X obj 1080 448 +;
#X obj 1080 472 delay;
#X obj 1080 496 0;
#X obj 1080 520 switch~;
#X obj 1110 496 1;
#X obj 470 139 t b b b;
#X obj 386 115 mtof;
#X obj 181 243 spigot;
#X obj 62 251 spigot;
#X obj 48 119 r loadbangz;
#X obj 136 167 > 0.5;
#X msg 101 142 1;
#X obj 136 142 r sensorBarPress1;
#X obj 124 191 sel 1 0;
#X msg 124 214 0;
#X text 250 210 mudança freqs;
#X obj 287 264 +, f 9;
#X obj 253 233 * 100;
#X obj 149 57 r sensorBarPress2;
#X obj 149 82 > 0.5;
#X obj 186 108 spigot;
#X obj 236 108 * 150;
#X obj 142 322 > 0.5;
#X obj 179 348 spigot;
#X obj 142 297 r sensorBarPress3;
#X obj 229 348 * 200;
#X connect 0 0 1 0;
#X connect 1 0 56 0;
#X connect 1 1 2 0;
#X connect 2 1 55 0;
#X connect 3 0 4 0;
#X connect 5 0 15 0;
#X connect 6 0 14 1;
#X connect 7 0 5 0;
#X connect 8 0 12 0;
#X connect 8 0 12 1;
#X connect 9 0 23 0;
#X connect 10 0 21 2;
#X connect 10 0 50 1;
#X connect 11 0 9 0;
#X connect 12 0 13 0;
#X connect 12 0 13 1;
#X connect 13 0 3 1;
#X connect 13 0 43 0;
#X connect 14 0 20 0;
#X connect 15 0 6 0;
#X connect 16 0 17 0;
#X connect 17 0 18 0;
#X connect 18 0 22 1;
#X connect 19 0 8 0;
#X connect 20 0 21 0;
#X connect 20 1 22 0;
#X connect 21 0 19 0;
#X connect 22 0 21 1;
#X connect 22 0 50 0;
#X connect 23 0 10 0;
#X connect 24 0 25 0;
#X connect 25 0 26 0;
#X connect 26 0 3 0;
#X connect 27 0 29 0;
#X connect 28 0 34 0;
#X connect 29 0 30 0;
#X connect 30 0 31 0;
#X connect 31 0 32 0;
#X connect 32 0 33 0;
#X connect 33 0 28 1;
#X connect 34 0 35 0;
#X connect 35 0 46 0;
#X connect 36 0 37 0;
#X connect 37 0 44 0;
#X connect 38 0 39 0;
#X connect 39 0 47 0;
#X connect 40 0 7 0;
#X connect 41 0 16 0;
#X connect 42 0 11 0;
#X connect 44 0 38 0;
#X connect 45 0 46 1;
#X connect 46 0 25 1;
#X connect 47 0 48 0;
#X connect 48 0 35 1;
#X connect 49 0 47 1;
#X connect 50 0 51 0;
#X connect 51 0 52 0;
#X connect 52 0 53 0;
#X connect 54 0 53 0;
#X connect 55 0 14 0;
#X connect 55 1 45 0;
#X connect 55 2 54 0;
#X connect 56 0 28 0;
#X connect 56 0 57 0;
#X connect 56 0 58 0;
#X connect 57 0 66 0;
#X connect 58 0 24 0;
#X connect 59 0 61 0;
#X connect 60 0 63 0;
#X connect 60 0 57 1;
#X connect 61 0 58 1;
#X connect 62 0 60 0;
#X connect 62 0 67 0;
#X connect 63 0 64 0;
#X connect 63 1 61 0;
#X connect 64 0 58 1;
#X connect 66 0 24 0;
#X connect 67 0 66 1;
#X connect 68 0 69 0;
#X connect 68 0 70 0;
#X connect 69 0 70 1;
#X connect 70 0 71 0;
#X connect 71 0 67 1;
#X connect 72 0 73 1;
#X connect 73 0 75 0;
#X connect 74 0 72 0;
#X connect 74 0 73 0;
#X connect 75 0 67 1;
#X restore 375 564 pd voice4-ahr;
#X obj 430 671 outlet~ RIGHT;
#X floatatom 104 178 5 0 0 0 - #0-polyfm-ratio-gui-r -;
#X obj 539 299 r \$0-polyfm-ratio-s;
#X obj 539 321 / 127;
#X obj 539 343 * 7;
#X obj 539 365 + 1;
#X obj 539 409 s \$0-polyfm-ratio-gui-r;
#X obj 184 110 cnv 5 5 5 empty empty PITCH 0 0 0 8 -262144 -66577 0
;
#X obj 319 24 inlet TRIG;
#X msg 398 85 0;
#X obj 321 52 sel 1 0;
#X msg 321 82 1;
#X obj 337 213 + 50.8;
#X text 392 212 calibraçao tuning;
#X obj 319 595 *~ 0.2;
#X obj 35 153 r CH;
#X obj 36 191 r CR;
#X obj 44 243 r MH;
#X obj 42 273 r MR;
#X connect 1 0 6 0;
#X connect 2 0 11 0;
#X connect 3 0 11 1;
#X connect 4 0 5 0;
#X connect 4 1 5 1;
#X connect 5 0 1 0;
#X connect 5 1 1 1;
#X connect 5 2 1 2;
#X connect 6 0 17 0;
#X connect 6 1 37 0;
#X connect 6 2 38 0;
#X connect 6 3 39 0;
#X connect 11 0 4 0;
#X connect 12 0 2 0;
#X connect 12 1 3 0;
#X connect 13 0 2 1;
#X connect 15 0 14 0;
#X connect 17 0 54 0;
#X connect 28 0 15 0;
#X connect 29 0 52 0;
#X connect 35 0 36 0;
#X connect 37 0 54 0;
#X connect 38 0 54 0;
#X connect 39 0 54 0;
#X connect 42 0 43 0;
#X connect 43 0 44 0;
#X connect 44 0 45 0;
#X connect 45 0 46 0;
#X connect 48 0 50 0;
#X connect 49 0 11 1;
#X connect 50 0 51 0;
#X connect 50 1 49 0;
#X connect 51 0 12 0;
#X connect 52 0 13 0;
#X connect 54 0 27 0;
#X connect 54 0 40 0;
#X connect 55 0 9 0;
#X connect 56 0 10 0;
#X connect 57 0 31 0;
#X connect 58 0 32 0;
#X coords 0 -1 1 1 200 245 1 100 100;
#X restore 16 136 pd fm;
#X obj 16 7 loadbang;
#X obj 15 31 s loadbangz;
#X text 139 4 IPT - AtomBoxes e Objetos interface \, eliminar;
#N canvas -8 -8 1370 729 MapSensorBarWIP 0;
#X obj 359 99 s \$0-polyfm-pitch-r;
#X obj 14 11 r PosicaoBar1;
#X obj 311 11 r NrToquesBar;
#X obj 11 120 r TamanhoBar1;
#X obj 13 78 spigot;
#X obj 68 63 == 1;
#X obj 114 11 r PosicaoBar2;
#X obj 115 78 spigot;
#X obj 153 55 == 2;
#X obj 114 120 r TamanhoBar2;
#X obj 213 121 r TamanhoBar3;
#X obj 212 11 r PosicaoBar3;
#X obj 212 79 spigot;
#X obj 288 58 == 3;
#X obj 640 354 moses 0.125;
#X obj 714 378 moses 0.25;
#X obj 781 403 moses 0.375;
#X obj 855 429 moses 0.5;
#X obj 915 454 moses 0.625;
#X obj 989 481 moses 0.75;
#X obj 1056 508 moses 0.875;
#X obj 1130 534 moses 1;
#X obj 640 583 sel 1 2 3 4 5 6 7 8;
#X msg 640 380 1;
#X msg 714 404 2;
#X msg 781 434 3;
#X msg 855 458 4;
#X msg 915 482 5;
#X msg 989 508 6;
#X msg 1056 537 7;
#X msg 1130 562 8;
#X msg 640 604 29;
#X msg 678 604 31;
#X msg 715 604 33;
#X msg 748 604 34;
#X msg 783 603 36;
#X msg 816 603 37;
#X msg 850 603 39;
#X msg 884 603 41;
#X obj 13 38 r escala1;
#X text 805 345 https://www.pianoscales.org/aeolian-dominant.html;
#X obj 640 633 s escala2;
#X obj 640 36 moses 0.125;
#X obj 714 60 moses 0.25;
#X obj 781 85 moses 0.375;
#X obj 855 111 moses 0.5;
#X obj 915 136 moses 0.625;
#X obj 989 163 moses 0.75;
#X obj 1056 190 moses 0.875;
#X obj 1130 216 moses 1;
#X obj 639 261 sel 1 2 3 4 5 6 7 8;
#X msg 640 62 1;
#X msg 714 86 2;
#X msg 781 116 3;
#X msg 855 140 4;
#X msg 915 164 5;
#X msg 989 190 6;
#X msg 1056 219 7;
#X msg 1130 244 8;
#X obj 640 321 s escala1;
#X msg 639 291 17;
#X msg 674 291 19;
#X msg 708 291 21;
#X msg 742 291 22;
#X msg 776 291 23;
#X msg 809 291 25;
#X msg 843 290 27;
#X msg 877 290 29;
#X text 805 368 Aeolian Dominant (Hindu Scale) G#;
#X text 841 27 https://www.pianoscales.org/arabic.html;
#X text 841 51 Arabic Scale G#;
#X obj 58 362 moses 0.125;
#X obj 132 386 moses 0.25;
#X obj 199 411 moses 0.375;
#X obj 273 437 moses 0.5;
#X obj 333 462 moses 0.625;
#X obj 407 489 moses 0.75;
#X obj 474 516 moses 0.875;
#X obj 548 542 moses 1;
#X obj 59 591 sel 1 2 3 4 5 6 7 8;
#X msg 58 388 1;
#X msg 132 412 2;
#X msg 199 442 3;
#X msg 273 466 4;
#X msg 333 490 5;
#X msg 407 516 6;
#X msg 474 545 7;
#X msg 548 570 8;
#X msg 94 626 42;
#X msg 132 626 45;
#X msg 168 626 46;
#X msg 204 626 48;
#X msg 238 626 49;
#X msg 271 626 51;
#X msg 305 626 53;
#X text 249 374 Spanish Gypsy Scales (Phrygian Dominant) G#;
#X text 250 354 https://www.pianoscales.org/spanish-gypsy.html;
#X msg 59 626 41;
#X obj 59 663 s escala3;
#X obj 116 38 r escala2;
#X obj 213 38 r escala3;
#X obj 11 161 s sensorBarPress1;
#X obj 114 183 s sensorBarPress2;
#X obj 213 208 s sensorBarPress3;
#X connect 1 0 42 0;
#X connect 2 0 5 0;
#X connect 2 0 8 0;
#X connect 2 0 13 0;
#X connect 3 0 101 0;
#X connect 4 0 0 0;
#X connect 5 0 4 1;
#X connect 6 0 14 0;
#X connect 7 0 0 0;
#X connect 8 0 7 1;
#X connect 9 0 102 0;
#X connect 10 0 103 0;
#X connect 11 0 71 0;
#X connect 12 0 0 0;
#X connect 13 0 12 1;
#X connect 14 0 23 0;
#X connect 14 1 15 0;
#X connect 15 0 24 0;
#X connect 15 1 16 0;
#X connect 16 0 25 0;
#X connect 16 1 17 0;
#X connect 17 0 26 0;
#X connect 17 1 18 0;
#X connect 18 0 27 0;
#X connect 18 1 19 0;
#X connect 19 0 28 0;
#X connect 19 1 20 0;
#X connect 20 0 29 0;
#X connect 20 1 21 0;
#X connect 21 0 30 0;
#X connect 22 0 31 0;
#X connect 22 1 32 0;
#X connect 22 2 33 0;
#X connect 22 3 34 0;
#X connect 22 4 35 0;
#X connect 22 5 36 0;
#X connect 22 6 37 0;
#X connect 22 7 38 0;
#X connect 23 0 22 0;
#X connect 24 0 22 0;
#X connect 25 0 22 0;
#X connect 26 0 22 0;
#X connect 27 0 22 0;
#X connect 28 0 22 0;
#X connect 29 0 22 0;
#X connect 30 0 22 0;
#X connect 31 0 41 0;
#X connect 32 0 41 0;
#X connect 33 0 41 0;
#X connect 34 0 41 0;
#X connect 35 0 41 0;
#X connect 36 0 41 0;
#X connect 37 0 41 0;
#X connect 38 0 41 0;
#X connect 39 0 4 0;
#X connect 42 0 51 0;
#X connect 42 1 43 0;
#X connect 43 0 52 0;
#X connect 43 1 44 0;
#X connect 44 0 53 0;
#X connect 44 1 45 0;
#X connect 45 0 54 0;
#X connect 45 1 46 0;
#X connect 46 0 55 0;
#X connect 46 1 47 0;
#X connect 47 0 56 0;
#X connect 47 1 48 0;
#X connect 48 0 57 0;
#X connect 48 1 49 0;
#X connect 49 0 58 0;
#X connect 50 0 60 0;
#X connect 50 1 61 0;
#X connect 50 2 62 0;
#X connect 50 3 63 0;
#X connect 50 4 64 0;
#X connect 50 5 65 0;
#X connect 50 6 66 0;
#X connect 50 7 67 0;
#X connect 51 0 50 0;
#X connect 52 0 50 0;
#X connect 53 0 50 0;
#X connect 54 0 50 0;
#X connect 55 0 50 0;
#X connect 56 0 50 0;
#X connect 57 0 50 0;
#X connect 58 0 50 0;
#X connect 60 0 59 0;
#X connect 61 0 59 0;
#X connect 62 0 59 0;
#X connect 63 0 59 0;
#X connect 64 0 59 0;
#X connect 65 0 59 0;
#X connect 66 0 59 0;
#X connect 67 0 59 0;
#X connect 71 0 80 0;
#X connect 71 1 72 0;
#X connect 72 0 81 0;
#X connect 72 1 73 0;
#X connect 73 0 82 0;
#X connect 73 1 74 0;
#X connect 74 0 83 0;
#X connect 74 1 75 0;
#X connect 75 0 84 0;
#X connect 75 1 76 0;
#X connect 76 0 85 0;
#X connect 76 1 77 0;
#X connect 77 0 86 0;
#X connect 77 1 78 0;
#X connect 78 0 87 0;
#X connect 79 0 97 0;
#X connect 79 1 88 0;
#X connect 79 2 89 0;
#X connect 79 3 90 0;
#X connect 79 4 91 0;
#X connect 79 5 92 0;
#X connect 79 6 93 0;
#X connect 79 7 94 0;
#X connect 80 0 79 0;
#X connect 81 0 79 0;
#X connect 82 0 79 0;
#X connect 83 0 79 0;
#X connect 84 0 79 0;
#X connect 85 0 79 0;
#X connect 86 0 79 0;
#X connect 87 0 79 0;
#X connect 88 0 98 0;
#X connect 89 0 98 0;
#X connect 90 0 98 0;
#X connect 91 0 98 0;
#X connect 92 0 98 0;
#X connect 93 0 98 0;
#X connect 94 0 98 0;
#X connect 97 0 98 0;
#X connect 99 0 7 0;
#X connect 100 0 12 0;
#X restore 237 58 pd MapSensorBarWIP;
#X f 21;
#N canvas -8 -8 1370 729 MapSensorSquareWIP 0;
#X obj 304 8 r SqrX;
#X obj 457 8 r SqrY;
#X obj 6 7 r TamanhoSqr;
#X obj 26 155 s \$0-polyfm-release-r;
#X obj 37 177 s \$0-polyfm-release2-r;
#X obj 26 128 * 127;
#X obj 203 72 * 2;
#X obj 203 93 * 127;
#X obj 208 121 spigot;
#X obj 260 120 - 0.5;
#X obj 247 93 <= 0.5;
#X obj 261 143 * 2;
#X obj 261 162 * 127;
#X obj 304 161 >= 0.51;
#X obj 261 188 spigot;
#X obj 357 72 * 2;
#X obj 357 93 * 127;
#X obj 362 121 spigot;
#X obj 415 120 - 0.5;
#X obj 401 93 <= 0.5;
#X obj 415 143 * 2;
#X obj 415 162 * 127;
#X obj 458 161 >= 0.51;
#X obj 415 188 spigot;
#X text 46 532 Medir distância do centro do square ao dedo (map envolventes)
Outra forma de mapeamento.;
#X obj 47 394 hsl 128 15 0 1 0 0 empty empty empty -2 -8 0 10 -262144
-1 -1 0 1;
#X floatatom 44 417 5 0 0 0 - - -;
#X obj 44 438 * 2;
#X obj 44 459 * 127;
#X floatatom 49 504 5 0 0 0 - - -;
#X obj 49 482 spigot;
#X obj 122 416 - 0.5;
#X obj 88 459 <= 0.5;
#X obj 144 442 * 2;
#X obj 144 461 * 127;
#X obj 187 460 >= 0.51;
#X obj 144 482 spigot;
#X floatatom 144 504 5 0 0 0 - - -;
#X text 43 357 Sistema para aproveitar o Square em 4 quadrantes \,
2 parâmetros por eixo;
#X obj 14 60 - 1;
#X obj 40 104 abs;
#X obj 57 50 * 0.5;
#X obj 812 123 vsl 15 128 0 127 0 0 empty empty empty 0 -9 0 10 -262144
-1 -1 0 1;
#X obj 888 177 hsl 128 15 0 127 0 0 empty empty empty -2 -8 0 10 -262144
-1 -1 0 1;
#X text 838 129 Y;
#X text 890 154 X;
#X floatatom 812 278 5 0 0 0 - - -;
#X floatatom 885 218 5 0 0 0 - - -;
#X obj 812 374 -;
#X obj 871 326 t b f;
#X floatatom 812 402 5 0 0 0 - - -;
#X obj 812 426 abs;
#X floatatom 812 453 5 0 0 0 - - -;
#X obj 415 257 s holdz1;
#X obj 362 208 s holdz2;
#X obj 261 228 s atacks1;
#X obj 208 208 s atacks2;
#X connect 0 0 9 0;
#X connect 0 0 6 0;
#X connect 0 0 10 0;
#X connect 0 0 13 0;
#X connect 1 0 15 0;
#X connect 1 0 18 0;
#X connect 1 0 19 0;
#X connect 1 0 22 0;
#X connect 5 0 3 0;
#X connect 5 0 4 0;
#X connect 6 0 7 0;
#X connect 7 0 8 0;
#X connect 8 0 56 0;
#X connect 9 0 11 0;
#X connect 10 0 8 1;
#X connect 11 0 12 0;
#X connect 12 0 14 0;
#X connect 13 0 14 1;
#X connect 14 0 55 0;
#X connect 15 0 16 0;
#X connect 16 0 17 0;
#X connect 17 0 54 0;
#X connect 18 0 20 0;
#X connect 19 0 17 1;
#X connect 20 0 21 0;
#X connect 21 0 23 0;
#X connect 22 0 23 1;
#X connect 23 0 53 0;
#X connect 25 0 26 0;
#X connect 25 0 31 0;
#X connect 25 0 32 0;
#X connect 25 0 35 0;
#X connect 26 0 27 0;
#X connect 27 0 28 0;
#X connect 28 0 30 0;
#X connect 30 0 29 0;
#X connect 31 0 33 0;
#X connect 32 0 30 1;
#X connect 33 0 34 0;
#X connect 34 0 36 0;
#X connect 35 0 36 1;
#X connect 36 0 37 0;
#X connect 39 0 40 0;
#X connect 40 0 5 0;
#X connect 41 0 39 0;
#X connect 42 0 46 0;
#X connect 43 0 47 0;
#X connect 46 0 48 0;
#X connect 47 0 49 0;
#X connect 48 0 50 0;
#X connect 49 0 48 0;
#X connect 49 1 48 1;
#X connect 50 0 51 0;
#X connect 51 0 52 0;
#X restore 238 78 pd MapSensorSquareWIP;
#N canvas -8 -8 1366 725 SensoresTrillR 0;
#X obj 5 81 s bela_setTrill;
#X text 121 82 Objeto responsável pela inicialização;
#X obj 5 106 r bela_trillCreated;
#X text 151 107 Recebe mensagem por cada sensor Iniciado;
#X obj 39 131 print bela_trillCreated;
#X obj 5 151 route BarTeste;
#X text 155 31 Ver mais em Examples>Trill>general_pd;
#X obj 77 191 r bela_trill;
#X text 170 191 Recebe as leituras de todos os Sensores Trill iniciados
;
#X obj 8 260 list, f 10;
#X obj 13 131 bng 15 250 50 0 empty empty empty 17 7 0 10 -262144 -1
-1;
#X obj 83 280 print bar, f 10;
#X text 1 3 Iniciar Sensor Trill Bar com o ID "BarTeste" e Trill Square
com o ID "SquareTeste";
#X msg 5 170 mode BarTeste AUTO, f 19;
#X obj 5 325 unpack f f f f f f f f f f f;
#X obj 5 360 s NrToquesBar;
#X obj 24 385 s PosicaoBar1;
#X obj 43 409 s TamanhoBar1;
#X obj 62 434 s PosicaoBar2;
#X obj 82 458 s TamanhoBar2;
#X obj 100 483 s PosicaoBar3;
#X obj 120 507 s TamanhoBar3;
#X obj 140 531 s PosicaoBar4;
#X obj 160 555 s TamanhoBar4;
#X obj 178 579 s PosicaoBar5;
#X obj 197 603 s TamanhoBar5;
#X obj 50 306 route list, f 13;
#X text 263 485 I2C sensores Trill;
#X obj 5 39 r loadbangz;
#X msg 5 56 new BarTeste 1 BAR \, new SquareTeste 1 SQUARE;
#X obj 150 152 route SquareTeste;
#X msg 150 170 mode SquareTeste AUTO;
#X obj 77 210 route BarTeste SquareTeste;
#X obj 232 282 list, f 12;
#X obj 357 251 print square;
#X obj 231 309 unpack f f f f;
#X obj 231 334 s NrToquesSqr;
#X obj 262 360 s SqrX;
#X obj 296 389 s SqrY;
#X obj 326 425 s TamanhoSqr;
#X obj 445 278 print toquesfloat;
#X obj 7 194 metro 50;
#X connect 2 0 4 0;
#X connect 2 0 5 0;
#X connect 2 0 30 0;
#X connect 5 0 13 0;
#X connect 5 0 10 0;
#X connect 7 0 32 0;
#X connect 10 0 41 0;
#X connect 14 0 15 0;
#X connect 14 1 16 0;
#X connect 14 2 17 0;
#X connect 14 3 18 0;
#X connect 14 4 19 0;
#X connect 14 5 20 0;
#X connect 14 6 21 0;
#X connect 14 7 22 0;
#X connect 14 8 23 0;
#X connect 14 9 24 0;
#X connect 14 10 25 0;
#X connect 26 0 14 0;
#X connect 28 0 29 0;
#X connect 29 0 0 0;
#X connect 30 0 31 0;
#X connect 32 0 9 1;
#X connect 32 0 26 0;
#X connect 32 1 33 1;
#X connect 33 0 35 0;
#X connect 35 0 36 0;
#X connect 35 1 37 0;
#X connect 35 2 38 0;
#X connect 35 3 39 0;
#X connect 41 0 33 0;
#X restore 237 38 pd SensoresTrillR;
#X f 21;
#X obj 572 25 adc~ 3 4 5 6 7 8 9 10, f 32;
#X text 570 2 Analog INs;
#X obj 806 49 r loadbangz;
#X obj 102 55 change, f 7;
#X obj 100 31 r NrToquesSqr;
#N canvas -8 -8 1366 725 mapsFSRs 0;
#X obj 18 96 s fb;
#X obj 18 10 r FSR3;
#X obj 18 36 * 0.4;
#X obj 18 56 + 0.035;
#X connect 1 0 2 0;
#X connect 2 0 3 0;
#X restore 806 25 pd mapsFSRs;
#X f 29;
#X obj 325 558 *~ 0.3;
#N canvas -8 -8 1366 725 KarplusFeedback 0;
#X text 215 115 ==============;
#X obj 219 566 vd~ \$0-wg1;
#X obj 299 579 lop~ 1000;
#X obj 299 623 s~ \$0-fb1;
#X obj 218 258 hip~ 100;
#X obj 283 317 r~ \$0-fb1;
#X obj 218 340 delwrite~ \$0-wg1 100;
#X obj 219 482 *~;
#X obj 219 504 *~ 10;
#X text 313 258 <<< centre (i.e. DC block) signal with high-pass filter
;
#X text 305 436 <<< use potentiometer or fader on second analog in
;
#X text 215 162 EXCITATION INPUT:;
#X text 216 362 DELAY PERIOD:;
#X text 393 599 <<< and decay here [0-0.9999];
#X text 333 279 <<< thresholding to remove any consistent noise in
the excitation signal;
#X obj 219 410 sig~ 1;
#X obj 219 459 -~;
#X obj 219 526 +~ 2;
#X text 393 579 <<< set damping here [100-20000];
#X text 305 517 <<< period range between 2-12ms;
#X text 330 449 to set period (or 'length of string');
#X text 294 206 <<< use piezo or microphone on left audio channel;
#X text 215 172 ----------------;
#X text 216 373 ------------;
#X obj 299 601 *~ 0.9999;
#X obj 76 326 snapshot~;
#X obj 91 301 metro 10;
#X obj 76 368 + 100;
#X obj 76 347 * 5000;
#X text 216 129 https://learn.bela.io/tutorials/pure-data/audio/virtual-string-synthesis/
;
#X text 240 230 piezzo;
#X obj 91 279 r loadbangz;
#X obj 219 602 outlet~;
#X text 215 97 Karplus Strong;
#X text 215 107 ==============;
#X obj 219 191 inlet~;
#X obj 77 249 inlet~;
#X obj 273 410 inlet~;
#X connect 1 0 2 0;
#X connect 1 0 32 0;
#X connect 2 0 24 0;
#X connect 4 0 6 0;
#X connect 5 0 6 0;
#X connect 7 0 8 0;
#X connect 8 0 17 0;
#X connect 15 0 16 0;
#X connect 16 0 7 1;
#X connect 16 0 7 0;
#X connect 17 0 1 0;
#X connect 24 0 3 0;
#X connect 25 0 28 0;
#X connect 26 0 25 0;
#X connect 27 0 2 1;
#X connect 28 0 27 0;
#X connect 31 0 26 0;
#X connect 35 0 4 0;
#X connect 36 0 25 0;
#X connect 37 0 16 1;
#X restore 326 528 pd KarplusFeedback;
#X text 388 557 1 - Damping control 2 - Piezzo 3 - Length of string
;
#X obj 896 103 dac~ 27 28 29 30;
#X obj 643 300 snapshot~;
#X obj 773 331 s \$0-polyfm-ratio-r;
#X text 857 352 0 - 127;
#X obj 709 201 sig~ 1;
#X obj 709 231 *~;
#X obj 644 251 +~;
#X obj 644 201 sig~ 0, f 8;
#X obj 879 202 sig~ 1;
#X obj 879 232 *~;
#X obj 814 252 +~;
#X obj 814 202 sig~ 0, f 8;
#X obj 806 69 metro 150;
#X obj 773 279 snapshot~;
#X obj 773 304 * 127;
#X obj 699 99 s~ piezzo_inlet2;
#X obj 434 46 s~ fsr_inlet1;
#X obj 434 115 s~ fsr_inlet3;
#X obj 643 326 * 127;
#X obj 643 355 s \$0-polyfm-index-r;
#X obj 16 672 dac~ 1 2;
#X msg 16 90 1;
#X obj 327 439 r~ fsr_inlet1;
#X obj 386 466 r~ piezzo_inlet2;
#X obj 449 493 r~ fsr_inlet3;
#X obj 596 499 s mix;
#X text 594 523 dry/wet 0 - 1;
#X obj 489 331 s dist;
#X text 485 353 distortion 0 - 1;
#X obj 964 476 s fb;
#X text 960 500 feedback 0 - 0.4;
#X obj 965 291 s time;
#X text 962 317 time 50 - 2800;
#X floatatom 1008 668 5 0 0 0 - - -;
#X obj 1008 633 expr (($f1-$f2)*(($f5-$f4)/($f3-$f2)))+$f4;
#X floatatom 1008 587 5 0 0 0 - - -;
#X floatatom 1070 587 5 0 0 0 - - -;
#X floatatom 1133 590 5 0 0 0 - - -;
#X floatatom 1195 592 5 0 0 0 - - -;
#X floatatom 1257 593 5 0 0 0 - - -;
#X obj 965 265 expr (($f1-$f2)*(($f5-$f4)/($f3-$f2)))+$f4;
#X msg 1037 242 0;
#X text 434 156 adc entradas 3 - FSR 2 4 - FSR 4 5 - FSR ? 6 - FSR
? 7 - Piezzo 8 - Pot1 9 - Pot2;
#X obj 102 83 sel 1;
#X obj 16 549 *~;
#X obj 38 523 line~;
#X obj 173 400 r TamanhoSqr;
#X msg 142 533 \$1 \$2;
#X obj 142 505 pack f f;
#X msg 142 472 0;
#X obj 195 434 * 50000;
#X text 390 80 *;
#X obj 213 520 * 127;
#X obj 225 556 s CH;
#X obj 265 557 s CR;
#X obj 224 589 s MH;
#X obj 266 589 s MR;
#X msg 75 490 \$1 200;
#X obj 75 462 float;
#X obj 489 304 snapshot~;
#X obj 555 205 sig~ 1;
#X obj 555 235 *~;
#X obj 490 255 +~;
#X obj 490 205 sig~ 0, f 8;
#X obj 965 240 snapshot~;
#X obj 1031 166 sig~ 1;
#X obj 1031 196 *~;
#X obj 966 216 +~;
#X obj 966 166 sig~ 0, f 8;
#X msg 1110 242 1;
#X msg 1183 242 50;
#X msg 1226 242 2800;
#X obj 1226 206 r loadbangz;
#X obj 1081 176 r~ fsr_inlet3;
#X obj 964 451 expr (($f1-$f2)*(($f5-$f4)/($f3-$f2)))+$f4;
#X msg 1036 428 0;
#X obj 964 426 snapshot~;
#X obj 1030 352 sig~ 1;
#X obj 1030 382 *~;
#X obj 965 402 +~;
#X obj 965 352 sig~ 0, f 8;
#X msg 1109 428 1;
#X obj 1225 392 r loadbangz;
#X obj 1080 362 r~ fsr5;
#X obj 634 71 s~ fsr5;
#X msg 1182 428 0;
#X msg 1225 428 0.4;
#X obj 596 473 snapshot~;
#X obj 595 431 r~ fsr6;
#X obj 665 127 s~ fsr6;
#X obj 174 458 expr pow($f1 \, 0.5);
#X obj 119 676 *~ 0;
#X obj 144 645 r SqrX;
#X obj 524 595 r SqrY;
#X obj 518 644 expr (($f1-$f2)*(($f5-$f4)/($f3-$f2)))+$f4;
#X msg 663 621 1;
#X msg 736 621 50;
#X msg 779 621 2800;
#X obj 779 585 r loadbangz;
#X obj 53 607 delread4~ teste1 50;
#X obj 467 671 sig~;
#X msg 590 621 0;
#X obj 43 576 delwrite~ teste1 3000;
#X text 165 677 feedback (0-0.99);
#X obj 876 621 moses 0.5;
#X connect 0 0 60 0;
#X connect 1 0 2 0;
#X connect 7 0 32 0;
#X connect 7 0 77 1;
#X connect 7 1 33 0;
#X connect 7 2 100 0;
#X connect 7 3 105 0;
#X connect 7 4 31 0;
#X connect 7 5 21 1;
#X connect 7 6 25 1;
#X connect 9 0 28 0;
#X connect 10 0 0 0;
#X connect 10 0 59 0;
#X connect 11 0 10 0;
#X connect 13 0 36 0;
#X connect 14 0 13 0;
#X connect 17 0 34 0;
#X connect 20 0 21 0;
#X connect 21 0 22 1;
#X connect 22 0 17 0;
#X connect 23 0 22 0;
#X connect 24 0 25 0;
#X connect 25 0 26 1;
#X connect 26 0 29 0;
#X connect 27 0 26 0;
#X connect 28 0 17 0;
#X connect 28 0 29 0;
#X connect 28 0 75 0;
#X connect 28 0 80 0;
#X connect 28 0 92 0;
#X connect 28 0 103 0;
#X connect 29 0 30 0;
#X connect 30 0 18 0;
#X connect 34 0 35 0;
#X connect 37 0 0 0;
#X connect 38 0 14 0;
#X connect 39 0 14 1;
#X connect 40 0 14 2;
#X connect 50 0 49 0;
#X connect 51 0 50 0;
#X connect 52 0 50 1;
#X connect 53 0 50 2;
#X connect 54 0 50 3;
#X connect 55 0 50 4;
#X connect 56 0 47 0;
#X connect 57 0 56 1;
#X connect 59 0 74 0;
#X connect 59 1 65 0;
#X connect 60 0 36 0;
#X connect 60 0 36 1;
#X connect 60 0 118 0;
#X connect 61 0 60 1;
#X connect 62 0 66 0;
#X connect 62 0 68 0;
#X connect 62 0 106 0;
#X connect 63 0 61 0;
#X connect 64 0 63 0;
#X connect 65 0 64 0;
#X connect 66 0 64 1;
#X connect 68 0 69 0;
#X connect 68 0 70 0;
#X connect 68 0 71 0;
#X connect 68 0 72 0;
#X connect 73 0 61 0;
#X connect 74 0 73 0;
#X connect 75 0 43 0;
#X connect 76 0 77 0;
#X connect 77 0 78 1;
#X connect 78 0 75 0;
#X connect 79 0 78 0;
#X connect 80 0 56 0;
#X connect 81 0 82 0;
#X connect 82 0 83 1;
#X connect 83 0 80 0;
#X connect 84 0 83 0;
#X connect 85 0 56 2;
#X connect 86 0 56 3;
#X connect 87 0 56 4;
#X connect 88 0 57 0;
#X connect 88 0 85 0;
#X connect 88 0 86 0;
#X connect 88 0 87 0;
#X connect 89 0 82 1;
#X connect 90 0 45 0;
#X connect 91 0 90 1;
#X connect 92 0 90 0;
#X connect 93 0 94 0;
#X connect 94 0 95 1;
#X connect 95 0 92 0;
#X connect 96 0 95 0;
#X connect 97 0 90 2;
#X connect 98 0 91 0;
#X connect 98 0 97 0;
#X connect 98 0 101 0;
#X connect 98 0 102 0;
#X connect 99 0 94 1;
#X connect 101 0 90 3;
#X connect 102 0 90 4;
#X connect 103 0 41 0;
#X connect 104 0 103 0;
#X connect 106 0 74 1;
#X connect 107 0 118 0;
#X connect 108 0 107 1;
#X connect 109 0 110 0;
#X connect 110 0 116 0;
#X connect 111 0 110 2;
#X connect 112 0 110 3;
#X connect 113 0 110 4;
#X connect 114 0 117 0;
#X connect 114 0 111 0;
#X connect 114 0 112 0;
#X connect 114 0 113 0;
#X connect 115 0 107 0;
#X connect 115 0 36 1;
#X connect 115 0 36 0;
#X connect 116 0 115 0;
#X connect 117 0 110 1;
