#N canvas -8 -8 1366 725 12;
#X obj 206 91 loadbang;
#X msg 206 118 in 18 \, out 17;
#X obj 206 151 s bela_setDigital;
#X obj 204 181 r bela_digitalIn18;
#X obj 204 233 tgl 15 0 empty empty empty 17 7 0 10 -262144 -1 -1 0
1;
#X obj 204 264 s bela_digitalOut17;
#X obj 418 364 kick, f 7;
#X obj 456 497 dac~ 1 2;
#X obj 419 403 *~ 0.5;
#X obj 483 364 snare;
#X obj 479 403 *~ 0.5;
#X obj 418 336 sel 1 0;
#X obj 421 102 adc~ 3 4;
#X obj 646 300 *~;
#X floatatom 646 215 0 0 0 0 - - -;
#X floatatom 556 250 0 0 0 0 - - -;
#X obj 556 320 +~;
#X floatatom 668 270 0 0 0 0 - - -;
#X text 553 207 carrier;
#X text 552 225 frequency;
#X text 644 176 frequency;
#X text 645 159 modulation;
#X obj 555 364 osc~;
#X text 714 312 index;
#X text 716 293 modulation;
#X obj 646 240 osc~;
#X obj 421 168 snapshot~;
#X obj 421 134 lop~ 10;
#X obj 479 134 lop~ 10;
#X obj 492 168 snapshot~;
#X obj 429 204 * 127;
#X obj 429 229 mtof;
#X obj 577 141 * 16000;
#X obj 577 167 - 4000;
#X obj 344 112 metro 100;
#X obj 550 403 *~ 0.1;
#X obj 378 269 random 500;
#X obj 418 297 + 50;
#X obj 378 248 bng 15 250 50 0 empty empty empty 17 7 0 10 -262144
-1 -1;
#X obj 740 210 * 700;
#X connect 0 0 1 0;
#X connect 0 0 34 0;
#X connect 1 0 2 0;
#X connect 3 0 4 0;
#X connect 3 0 11 0;
#X connect 4 0 5 0;
#X connect 4 0 38 0;
#X connect 6 0 8 0;
#X connect 8 0 7 0;
#X connect 8 0 7 1;
#X connect 9 0 10 0;
#X connect 10 0 7 0;
#X connect 10 0 7 1;
#X connect 11 0 6 0;
#X connect 11 1 9 0;
#X connect 12 0 27 0;
#X connect 12 1 28 0;
#X connect 13 0 16 1;
#X connect 14 0 25 0;
#X connect 15 0 16 0;
#X connect 16 0 22 0;
#X connect 17 0 13 1;
#X connect 22 0 35 0;
#X connect 25 0 13 0;
#X connect 26 0 30 0;
#X connect 27 0 26 0;
#X connect 28 0 29 0;
#X connect 29 0 32 0;
#X connect 29 0 39 0;
#X connect 30 0 31 0;
#X connect 30 0 17 0;
#X connect 31 0 15 0;
#X connect 32 0 33 0;
#X connect 33 0 14 0;
#X connect 34 0 26 0;
#X connect 34 0 29 0;
#X connect 35 0 7 0;
#X connect 35 0 7 1;
#X connect 36 0 37 0;
#X connect 37 0 34 1;
#X connect 38 0 36 0;
#X connect 39 0 25 1;
