#N canvas -8 -8 1366 725 12;
#X obj 125 63 loadbang;
#X msg 125 92 out 17;
#X obj 125 120 s bela_setDigital;
#X obj 124 162 loadbang;
#X obj 124 226 tgl 15 0 empty empty empty 17 7 0 10 -262144 -1 -1 0
1;
#X obj 124 248 s bela_digitalOut17;
#X obj 124 194 metro 500;
#X obj 298 293 osc~ 440;
#X obj 298 381 *~ 0.1;
#X obj 298 342 *~ 1;
#X obj 299 423 dac~ 1 2;
#X msg 298 229 440;
#X obj 298 137 sel 0 1;
#X msg 334 229 480;
#X msg 370 229 540;
#X msg 407 230 660;
#X msg 442 230 685;
#X msg 476 230 380;
#X obj 313 193 delay 130;
#X obj 385 193 delay 260;
#X obj 458 193 delay 130;
#X obj 529 193 delay 260;
#X connect 0 0 1 0;
#X connect 1 0 2 0;
#X connect 3 0 6 0;
#X connect 4 0 5 0;
#X connect 4 0 12 0;
#X connect 6 0 4 0;
#X connect 7 0 9 0;
#X connect 8 0 10 0;
#X connect 8 0 10 1;
#X connect 9 0 8 0;
#X connect 11 0 7 0;
#X connect 12 0 11 0;
#X connect 12 0 18 0;
#X connect 12 0 19 0;
#X connect 12 1 15 0;
#X connect 12 1 20 0;
#X connect 12 1 21 0;
#X connect 13 0 7 0;
#X connect 14 0 7 0;
#X connect 15 0 7 0;
#X connect 16 0 7 0;
#X connect 17 0 7 0;
#X connect 18 0 13 0;
#X connect 19 0 14 0;
#X connect 20 0 16 0;
#X connect 21 0 17 0;
