#N canvas -8 -8 1366 725 12;
#X obj 145 114 dac~ 27;
#X text 204 115 Scope \, para ver sinal do Mic;
#X obj 78 82 adc~ 3 4 5;
#X text 76 36 3 e 4 - FDR 5 - Electret;
#X obj 78 144 lop~ 10;
#X obj 111 175 lop~ 10;
#X obj 78 218 *~ 200;
#X obj 78 257 delread4~ mydelay;
#X obj 78 300 *~, f 5;
#X obj 142 365 +~;
#X obj 168 397 delwrite~ mydelay 1000;
#X obj 142 471 dac~ 1 2;
#X obj 142 435 *~ 0.4;
#X connect 2 0 4 0;
#X connect 2 1 5 0;
#X connect 2 2 0 0;
#X connect 2 2 9 0;
#X connect 4 0 6 0;
#X connect 5 0 8 1;
#X connect 6 0 7 0;
#X connect 7 0 8 0;
#X connect 8 0 9 1;
#X connect 9 0 10 0;
#X connect 9 0 12 0;
#X connect 12 0 11 0;
#X connect 12 0 11 1;
