#N canvas -8 -8 1366 725 12;
#X obj 829 499 dac~ 1 2, f 13;
#X obj 828 172 catch~ LEFT;
#X obj 917 172 catch~ RIGHT;
#X obj 828 214 *~ 0.25;
#X obj 916 214 *~ 0.25;
#N canvas -8 -8 1366 725 synthPhaseMod 0;
#X obj 39 563 throw~ LEFT;
#X obj 124 563 throw~ RIGHT;
#X obj 35 371 phasor~ 220;
#X floatatom 35 337 5 0 0 0 - - -;
#X obj 36 428 +~;
#X obj 37 474 cos~;
#X obj 38 524 *~, f 4;
#X obj 96 487 vline~, f 7;
#X msg 96 462 1 5 \, 0 1000 5, f 14;
#X obj 96 436 r trig;
#X obj 556 467 s trig;
#X obj 556 447 bng 15 250 50 0 empty empty empty 17 7 0 10 -262144
-1 -1;
#X obj 154 255 phasor~ 220;
#X floatatom 154 221 5 0 0 0 - - -;
#X obj 155 312 +~;
#X obj 156 358 cos~;
#X obj 157 408 *~, f 4;
#X obj 215 371 vline~, f 7;
#X msg 215 346 1 5 \, 0 1000 5, f 14;
#X obj 215 320 r trig;
#X connect 2 0 4 0;
#X connect 3 0 2 0;
#X connect 4 0 5 0;
#X connect 5 0 6 0;
#X connect 6 0 0 0;
#X connect 6 0 1 0;
#X connect 7 0 6 1;
#X connect 8 0 7 0;
#X connect 9 0 8 0;
#X connect 11 0 10 0;
#X connect 12 0 14 0;
#X connect 13 0 12 0;
#X connect 14 0 15 0;
#X connect 15 0 16 0;
#X connect 16 0 4 1;
#X connect 17 0 16 1;
#X connect 18 0 17 0;
#X connect 19 0 18 0;
#X restore 69 341 pd synthPhaseMod;
#X obj 208 363 s trig;
#X obj 208 343 bng 15 250 50 0 empty empty empty 17 7 0 10 -262144
-1 -1;
#X obj 208 276 loadbang;
#X obj 208 310 metro 350;
#X obj 353 31 cnv 15 320 320 empty empty empty 20 12 0 14 -204800 -66577
0;
#X obj 371 51 cnv 15 280 280 empty empty empty 20 12 0 14 -260823 -66577
0;
#X obj 532 97 vu 30 80 outL empty -1 -8 0 10 -261682 -1 0 0;
#X obj 402 209 hsl 100 30 0 1 0 0 dist screendrive empty -2 -8 0 10
-261682 -86853 -1 2970 1;
#X text 397 193 distortion;
#X obj 402 269 hsl 100 30 0 1 0 0 mix screenmix empty -2 -8 0 10 -261682
-86853 -257985 8120 1;
#X text 397 253 dry / wet;
#X obj 402 95 hsl 100 30 50 2800 0 0 time screentime empty -2 -8 0
10 -204800 -13330 -1 7020 1;
#X text 397 79 time;
#X text 396 133 feedback;
#X obj 402 149 hsl 100 30 0 0.4 0 0 fb screenfb empty -2 -8 0 10 -261682
-86853 -1 2475 1;
#X obj 591 149 tgl 30 0 smear screensmear empty 17 7 0 10 -261682 -86853
-1 0 1;
#X obj 531 209 tgl 90 0 input screenon empty 17 7 0 10 -204800 -86853
-1 1 1;
#X text 528 193 input;
#X text 588 134 smear;
#X text 529 80 level;
#X text 529 301 // coronalay //;
#X obj 591 95 cnv 30 30 30 empty empty empty 20 12 0 14 -204800 -66577
0;
#N canvas -8 -8 1366 725 guts 0;
#X obj 387 367 *~ 0.05, f 21;
#X obj 527 367 *~ 0.05, f 21;
#X obj 387 453 lop~ 2000;
#X obj 387 475 lop~ 2000;
#X obj 247 453 lop~ 5000;
#X obj 247 475 lop~ 5000;
#X obj 527 453 lop~ 800;
#X obj 527 475 lop~ 800;
#N canvas 78 109 1202 655 wowflutter 0;
#X obj 412 441 cos~;
#X obj 487 441 line;
#X obj 412 467 *~ 0, f 13;
#X obj 412 489 lop~ 5;
#X obj 261 277 +~ 1;
#X msg 487 417 \$1 300;
#X obj 412 524 vd~ nägemist;
#X obj 409 101 delwrite~ nägemist 500;
#X obj 261 61 loadbang;
#X obj 261 127 random 40;
#X obj 261 152 / 100;
#X obj 261 204 line;
#X floatatom 261 226 5 0 0 0 - - -;
#X obj 412 417 phasor~ 3.9;
#X obj 261 105 metro 2300;
#X obj 409 61 inlet~;
#X obj 412 560 outlet~;
#X msg 261 178 \$1 2070;
#X obj 463 284 tgl 15 0 empty empty empty 17 7 0 10 -262144 -1 -1 0
1;
#X msg 463 306 0, f 2;
#X obj 431 263 random 4;
#X obj 431 284 == 3;
#X obj 431 305 == 0;
#X obj 431 244 metro 5200;
#X text 430 184 FX turns off 25% of the time, f 10;
#X obj 487 332 spigot;
#X text 189 225 wow speed >;
#X obj 261 251 osc~ 1;
#X floatatom 562 303 5 0 0 0 - - -;
#X obj 780 245 metro 430;
#X obj 562 196 loadbang;
#X obj 636 245 metro 732;
#X obj 709 245 metro 254;
#X obj 562 245 metro 450;
#X floatatom 636 296 5 0 0 0 - - -;
#X obj 431 223 loadbang;
#X text 520 443 < flutter depth;
#X obj 261 310 *~ 2, f 9;
#X text 325 310 < wow depth;
#X floatatom 501 467 5 0 0 0 - - -;
#X obj 562 274 random 2;
#X obj 636 274 random 1.5;
#X connect 0 0 2 0;
#X connect 1 0 2 1;
#X connect 1 0 39 0;
#X connect 2 0 3 0;
#X connect 3 0 6 0;
#X connect 4 0 37 0;
#X connect 5 0 1 0;
#X connect 6 0 16 0;
#X connect 8 0 14 0;
#X connect 9 0 10 0;
#X connect 10 0 17 0;
#X connect 11 0 12 0;
#X connect 12 0 27 0;
#X connect 13 0 0 0;
#X connect 14 0 9 0;
#X connect 15 0 7 0;
#X connect 17 0 11 0;
#X connect 18 0 19 0;
#X connect 18 0 25 1;
#X connect 19 0 5 0;
#X connect 20 0 21 0;
#X connect 21 0 22 0;
#X connect 22 0 18 0;
#X connect 23 0 20 0;
#X connect 25 0 5 0;
#X connect 27 0 4 0;
#X connect 28 0 25 0;
#X connect 29 0 41 0;
#X connect 30 0 29 0;
#X connect 30 0 31 0;
#X connect 30 0 32 0;
#X connect 30 0 33 0;
#X connect 31 0 41 0;
#X connect 32 0 41 0;
#X connect 33 0 40 0;
#X connect 35 0 23 0;
#X connect 37 0 6 0;
#X connect 40 0 28 0;
#X connect 41 0 28 0;
#X connect 41 0 34 0;
#X restore 247 402 pd wowflutter;
#N canvas 0 23 567 699 masterdist 0;
#X obj 86 79 inlet~;
#X obj 212 398 /~;
#X obj 227 339 abs~;
#X obj 212 292 *~;
#X floatatom 227 175 5 0 0 0 - - -;
#X obj 86 557 outlet~;
#X obj 86 501 *~;
#X obj 148 422 == 0;
#X obj 101 421 tgl 15 0 empty empty empty 17 7 0 10 -262144 -1 -1 0
1;
#X obj 211 502 *~;
#X obj 226 423 tgl 15 0 empty empty empty 17 7 0 10 -262144 -1 -1 1
1;
#X obj 227 151 * 4;
#X obj 406 79 inlet~;
#X obj 525 398 /~;
#X obj 540 339 abs~;
#X obj 525 292 *~;
#X obj 405 557 outlet~;
#X obj 406 501 *~;
#X obj 464 422 == 0;
#X obj 421 421 tgl 15 0 empty empty empty 17 7 0 10 -262144 -1 -1 0
1;
#X obj 346 309 loadbang;
#X obj 525 502 *~;
#X obj 540 422 tgl 15 0 empty empty empty 17 7 0 10 -262144 -1 -1 1
1;
#X floatatom 300 379 5 0 0 0 - - -;
#X obj 227 368 +~ 0.4;
#X obj 540 368 +~ 0.4;
#N canvas 581 474 450 300 scale 0;
#X obj 260 64 loadbang;
#X obj 125 110 f \$1;
#X obj 194 110 f \$2;
#X obj 260 109 f \$3;
#X obj 328 110 f \$4;
#X obj 58 133 expr if($f2 == $f3 \, -1 \, (((($f1-$f2) / ($f3-$f2))
* ($f5-$f4)) + $f4)) \; $f4 \; $f5 \;, f 39;
#X obj 58 42 inlet;
#X text 123 44 low;
#X text 195 41 high;
#X text 262 37 new low, f 4;
#X text 328 57 new high, f 4;
#X obj 58 214 outlet;
#X msg 194 89 4;
#X msg 260 89 0.9;
#X msg 125 89 0.16;
#X msg 328 89 0.6;
#X connect 0 0 13 0;
#X connect 0 0 15 0;
#X connect 0 0 12 0;
#X connect 0 0 14 0;
#X connect 1 0 5 1;
#X connect 2 0 5 2;
#X connect 3 0 5 3;
#X connect 4 0 5 4;
#X connect 5 0 11 0;
#X connect 6 0 5 0;
#X connect 12 0 2 0;
#X connect 13 0 3 0;
#X connect 14 0 1 0;
#X connect 15 0 4 0;
#X restore 300 356 pd scale;
#X obj 101 476 line;
#X msg 101 455 \$1 300;
#X obj 226 476 line;
#X msg 226 455 \$1 300;
#X obj 421 476 line;
#X msg 421 455 \$1 300;
#X obj 540 476 line;
#X msg 540 455 \$1 300;
#X obj 540 247 line;
#X msg 540 226 \$1 30;
#X obj 227 246 line;
#X msg 227 225 \$1 30;
#X text 279 451 gain reduction to partially counter boost, f 14;
#X obj 101 385 < 0.15;
#X obj 421 385 < 0.15;
#X obj 227 125 r dist;
#X connect 0 0 3 0;
#X connect 0 0 6 0;
#X connect 1 0 9 0;
#X connect 2 0 24 0;
#X connect 3 0 1 0;
#X connect 3 0 2 0;
#X connect 4 0 26 0;
#X connect 4 0 36 0;
#X connect 4 0 38 0;
#X connect 4 0 40 0;
#X connect 4 0 41 0;
#X connect 6 0 5 0;
#X connect 7 0 10 0;
#X connect 8 0 7 0;
#X connect 8 0 28 0;
#X connect 9 0 5 0;
#X connect 10 0 30 0;
#X connect 11 0 4 0;
#X connect 12 0 15 0;
#X connect 12 0 17 0;
#X connect 13 0 21 0;
#X connect 14 0 25 0;
#X connect 15 0 13 0;
#X connect 15 0 14 0;
#X connect 17 0 16 0;
#X connect 18 0 22 0;
#X connect 19 0 18 0;
#X connect 19 0 32 0;
#X connect 20 0 19 0;
#X connect 20 0 8 0;
#X connect 21 0 16 0;
#X connect 22 0 34 0;
#X connect 23 0 30 0;
#X connect 23 0 34 0;
#X connect 24 0 1 1;
#X connect 25 0 13 1;
#X connect 26 0 23 0;
#X connect 27 0 6 1;
#X connect 28 0 27 0;
#X connect 29 0 9 1;
#X connect 30 0 29 0;
#X connect 31 0 17 1;
#X connect 32 0 31 0;
#X connect 33 0 21 1;
#X connect 34 0 33 0;
#X connect 35 0 15 1;
#X connect 36 0 35 0;
#X connect 37 0 3 1;
#X connect 38 0 37 0;
#X connect 40 0 8 0;
#X connect 41 0 19 0;
#X connect 42 0 11 0;
#X restore 247 543 pd masterdist;
#N canvas 707 28 573 746 8vb 0;
#X floatatom 87 140 0 0 0 0 - - -;
#X obj 150 411 *~;
#X obj 273 348 line~;
#X obj 273 322 pack 0 200;
#X obj 305 139 r window;
#X obj 87 196 exp;
#X floatatom 87 222 6 0 0 0 - - -;
#X obj 87 312 /;
#X obj 214 242 * 0.001;
#X obj 382 418 line~;
#X obj 382 393 pack 0 200;
#X floatatom 382 342 0 0 0 0 - - -;
#X obj 382 316 r delay;
#X obj 150 437 +~;
#X obj 87 463 cos~;
#X obj 87 490 *~;
#X obj 87 519 +~;
#X obj 174 370 wrap~;
#X obj 319 413 *~;
#X obj 319 446 +~;
#X obj 256 473 cos~;
#X obj 256 500 *~;
#X obj 214 269 t b f;
#X floatatom 87 338 6 0 0 0 - - -;
#X obj 174 343 +~ 0.5;
#X obj 87 411 -~ 0.5;
#X obj 87 437 *~ 0.5;
#X obj 256 412 -~ 0.5;
#X obj 256 445 *~ 0.5;
#X obj 87 249 - 1;
#X obj 87 170 * 0.05776;
#X obj 87 275 * -1;
#X text 121 139 <-- transposition;
#X text 164 152 (halftones);
#X text 150 216 speed;
#X text 149 230 change;
#X text 349 164 <--window (msec);
#X text 122 305 tape head;
#X obj 87 369 phasor~;
#X obj 382 369 max 1.5;
#X text 385 275 delay;
#X text 382 293 (msec);
#X obj 305 192 max 1;
#X text 123 318 rotation freq;
#X obj 87 656 outlet~;
#X floatatom 351 228 5 0 0 0 - - -;
#X obj 86 43 inlet~;
#X obj 301 42 loadbang;
#X obj 86 80 delwrite~ billdown 5000;
#X obj 150 463 vd~ billdown;
#X obj 319 475 vd~ billdown;
#X obj 87 114 r transposer;
#X floatatom 305 160 5 0 0 0 - - -;
#X floatatom 118 191 5 0 0 0 - - -;
#X msg 301 63 \; transposer -12 \; window 30 \; delay 0;
#N canvas 1 82 789 622 wetdrymover 0;
#X obj 194 104 inlet~;
#X obj 194 351 outlet~;
#X obj 259 103 inlet~;
#X text 194 84 wet;
#X text 259 84 dry;
#X obj 434 80 tgl 15 0 empty empty empty 17 7 0 10 -262144 -1 -1 1
1;
#X obj 434 120 random 8;
#X obj 434 141 select 1 2 3 4 5 6;
#X obj 433 313 line 0 80;
#X obj 450 80 loadbang;
#X obj 434 99 metro 5800;
#X msg 433 291 \$1 2850;
#X msg 434 160 0.3;
#X msg 451 177 0.6;
#X msg 469 194 0.3;
#X msg 486 211 0.4;
#X msg 504 228 0.35;
#X msg 521 245 0.5;
#X msg 539 262 0.25;
#X obj 292 278 expr 1 - $f1;
#X text 327 237 wet/dry;
#X text 497 313 <- wet level. weighted to low;
#X obj 194 299 *~ 0.4;
#X obj 259 299 *~ 0.6;
#X connect 0 0 22 0;
#X connect 2 0 23 0;
#X connect 5 0 10 0;
#X connect 6 0 7 0;
#X connect 7 0 12 0;
#X connect 7 1 13 0;
#X connect 7 2 14 0;
#X connect 7 3 15 0;
#X connect 7 4 16 0;
#X connect 7 5 17 0;
#X connect 7 6 18 0;
#X connect 8 0 22 1;
#X connect 8 0 19 0;
#X connect 9 0 5 0;
#X connect 10 0 6 0;
#X connect 11 0 8 0;
#X connect 12 0 11 0;
#X connect 13 0 11 0;
#X connect 14 0 11 0;
#X connect 15 0 11 0;
#X connect 16 0 11 0;
#X connect 17 0 11 0;
#X connect 18 0 11 0;
#X connect 19 0 23 1;
#X connect 22 0 1 0;
#X connect 23 0 1 0;
#X restore 87 604 pd wetdrymover;
#X connect 0 0 30 0;
#X connect 1 0 13 0;
#X connect 2 0 1 1;
#X connect 2 0 18 1;
#X connect 3 0 2 0;
#X connect 4 0 52 0;
#X connect 5 0 6 0;
#X connect 6 0 29 0;
#X connect 7 0 23 0;
#X connect 8 0 22 0;
#X connect 9 0 13 1;
#X connect 9 0 19 1;
#X connect 10 0 9 0;
#X connect 11 0 39 0;
#X connect 12 0 11 0;
#X connect 13 0 49 0;
#X connect 14 0 15 0;
#X connect 15 0 16 0;
#X connect 16 0 55 0;
#X connect 17 0 18 0;
#X connect 17 0 27 0;
#X connect 18 0 19 0;
#X connect 19 0 50 0;
#X connect 20 0 21 0;
#X connect 21 0 16 1;
#X connect 22 0 7 0;
#X connect 22 1 7 1;
#X connect 23 0 38 0;
#X connect 24 0 17 0;
#X connect 25 0 26 0;
#X connect 26 0 14 0;
#X connect 27 0 28 0;
#X connect 28 0 20 0;
#X connect 29 0 31 0;
#X connect 30 0 5 0;
#X connect 30 0 53 0;
#X connect 31 0 7 0;
#X connect 38 0 1 0;
#X connect 38 0 25 0;
#X connect 38 0 24 0;
#X connect 39 0 10 0;
#X connect 39 0 45 0;
#X connect 42 0 8 0;
#X connect 42 0 3 0;
#X connect 42 0 45 0;
#X connect 46 0 48 0;
#X connect 46 0 55 1;
#X connect 47 0 54 0;
#X connect 49 0 15 1;
#X connect 50 0 21 1;
#X connect 51 0 0 0;
#X connect 52 0 42 0;
#X connect 55 0 44 0;
#X restore 527 401 pd 8vb;
#X obj 247 367 *~ 0.008, f 21;
#X floatatom 247 105 5 0 0 0 - - -;
#N canvas 78 54 1202 655 wowflutter 0;
#X obj 412 441 cos~;
#X obj 487 441 line;
#X obj 412 467 *~ 0, f 13;
#X obj 412 489 lop~ 5;
#X obj 261 277 +~ 1;
#X msg 487 417 \$1 300;
#X obj 261 61 loadbang;
#X obj 261 127 random 40;
#X obj 261 152 / 100;
#X obj 261 204 line;
#X floatatom 261 226 5 0 0 0 - - -;
#X obj 412 417 phasor~ 3.9;
#X obj 261 105 metro 2300;
#X obj 412 56 inlet~;
#X obj 412 560 outlet~;
#X msg 261 178 \$1 2070;
#X obj 463 284 tgl 15 0 empty empty empty 17 7 0 10 -262144 -1 -1 1
1;
#X msg 463 306 0, f 2;
#X obj 431 263 random 4;
#X obj 431 284 == 3;
#X obj 431 305 == 0;
#X obj 431 244 metro 5200;
#X text 430 184 FX turns off 25% of the time, f 10;
#X obj 487 332 spigot;
#X text 189 225 wow speed >;
#X obj 261 251 osc~ 1;
#X floatatom 562 283 5 0 0 0 - - -;
#X obj 780 225 metro 430;
#X obj 562 196 loadbang;
#X obj 636 225 metro 732;
#X obj 709 225 metro 254;
#X obj 562 225 metro 450;
#X obj 431 223 loadbang;
#X text 520 443 < flutter depth;
#X obj 412 96 delwrite~ vabandust 500;
#X obj 412 524 vd~ vabandust;
#X obj 261 310 *~ 2.3, f 9;
#X obj 636 254 random 1.45;
#X obj 562 254 random 2.03;
#X connect 0 0 2 0;
#X connect 1 0 2 1;
#X connect 2 0 3 0;
#X connect 3 0 35 0;
#X connect 4 0 36 0;
#X connect 5 0 1 0;
#X connect 6 0 12 0;
#X connect 7 0 8 0;
#X connect 8 0 15 0;
#X connect 9 0 10 0;
#X connect 10 0 25 0;
#X connect 11 0 0 0;
#X connect 12 0 7 0;
#X connect 13 0 34 0;
#X connect 15 0 9 0;
#X connect 16 0 17 0;
#X connect 16 0 23 1;
#X connect 17 0 5 0;
#X connect 18 0 19 0;
#X connect 19 0 20 0;
#X connect 20 0 16 0;
#X connect 21 0 18 0;
#X connect 23 0 5 0;
#X connect 25 0 4 0;
#X connect 26 0 23 0;
#X connect 27 0 37 0;
#X connect 28 0 27 0;
#X connect 28 0 29 0;
#X connect 28 0 30 0;
#X connect 28 0 31 0;
#X connect 29 0 37 0;
#X connect 30 0 37 0;
#X connect 31 0 38 0;
#X connect 32 0 21 0;
#X connect 35 0 14 0;
#X connect 36 0 35 0;
#X connect 37 0 26 0;
#X connect 38 0 26 0;
#X restore 387 401 pd wowflutter;
#X floatatom 410 126 5 0 0 0 - - -;
#X obj 410 105 / 1.3;
#X floatatom 450 126 5 0 0 0 - - -;
#X obj 450 105 / 1.6;
#X text 497 103 < tape heads 2 and 3 have feedback level scaled down
to prevent volume increase, f 40;
#N canvas 342 130 789 622 autopan 0;
#X obj 164 22 tgl 15 0 empty empty empty 17 7 0 10 -262144 -1 -1 1
1;
#X obj 164 62 random 8;
#X msg 248 170 0.6;
#X msg 164 102 0.4;
#X msg 206 136 0.5;
#X floatatom 163 239 5 0 0 0 - - -;
#X msg 267 187 0.55;
#X obj 164 83 select 1 2 3 4 5 6;
#X msg 289 204 0.45;
#X obj 163 217 line 0 80;
#X obj 20 23 inlet~;
#X obj 180 22 loadbang;
#X obj 74 258 *~;
#X obj 45 222 expr 1 - $f1;
#X obj 19 258 *~ 1;
#X obj 19 280 outlet~;
#X obj 74 280 outlet~;
#X text 50 52 mono input -> autopanner slow sweep, f 13;
#X msg 163 195 \$1 3850;
#X obj 164 41 metro 5800;
#X msg 183 119 0.38;
#X msg 226 153 0.67;
#X connect 0 0 19 0;
#X connect 1 0 7 0;
#X connect 2 0 18 0;
#X connect 3 0 18 0;
#X connect 4 0 18 0;
#X connect 5 0 12 1;
#X connect 5 0 13 0;
#X connect 6 0 18 0;
#X connect 7 0 3 0;
#X connect 7 1 20 0;
#X connect 7 2 4 0;
#X connect 7 3 21 0;
#X connect 7 4 2 0;
#X connect 7 5 6 0;
#X connect 7 6 8 0;
#X connect 8 0 18 0;
#X connect 9 0 5 0;
#X connect 10 0 14 0;
#X connect 10 0 12 0;
#X connect 11 0 0 0;
#X connect 12 0 16 0;
#X connect 13 0 14 1;
#X connect 14 0 15 0;
#X connect 18 0 9 0;
#X connect 19 0 1 0;
#X connect 20 0 18 0;
#X connect 21 0 18 0;
#X restore 387 427 pd autopan;
#X f 11;
#X obj 450 453 lop~ 2000;
#X obj 450 475 lop~ 2000;
#X obj 247 286 pack 0 1000;
#X obj 247 311 line~;
#X obj 387 286 pack 0 1000;
#X obj 387 311 line~;
#X obj 527 286 pack 0 1000;
#X obj 527 311 line~;
#N canvas 483 152 789 622 volumedip 0;
#X obj 164 22 tgl 15 0 empty empty empty 17 7 0 10 -262144 -1 -1 1
1;
#X obj 164 62 random 8;
#X floatatom 163 239 5 0 0 0 - - -;
#X obj 164 83 select 1 2 3 4 5 6;
#X obj 163 217 line 0 80;
#X obj 74 23 inlet~;
#X obj 180 22 loadbang;
#X obj 74 258 *~;
#X obj 74 280 outlet~;
#X obj 164 41 metro 5800;
#X msg 164 102 1;
#X msg 183 119 1;
#X msg 206 136 1;
#X msg 226 153 0.8;
#X msg 248 170 0.7;
#X msg 267 187 1;
#X msg 289 204 1;
#X text 202 239 <- drop volume occasionally;
#X msg 163 195 \$1 2850;
#X connect 0 0 9 0;
#X connect 1 0 3 0;
#X connect 2 0 7 1;
#X connect 3 0 10 0;
#X connect 3 1 11 0;
#X connect 3 2 12 0;
#X connect 3 3 13 0;
#X connect 3 4 14 0;
#X connect 3 5 15 0;
#X connect 3 6 16 0;
#X connect 4 0 2 0;
#X connect 5 0 7 0;
#X connect 6 0 0 0;
#X connect 7 0 8 0;
#X connect 9 0 1 0;
#X connect 10 0 18 0;
#X connect 11 0 18 0;
#X connect 12 0 18 0;
#X connect 13 0 18 0;
#X connect 14 0 18 0;
#X connect 15 0 18 0;
#X connect 16 0 18 0;
#X connect 18 0 4 0;
#X restore 60 297 pd volumedip;
#N canvas 0 23 586 444 limiter 0;
#X obj 76 312 *~, f 7;
#X obj 115 69 env~;
#X obj 115 98 dbtorms;
#X obj 76 27 inlet~;
#X obj 76 348 outlet~;
#X obj 166 312 *~, f 7;
#X obj 166 27 inlet~;
#X obj 166 348 outlet~;
#X msg 115 164 1 \$1;
#X obj 115 195 /;
#X obj 115 228 min 1;
#X obj 115 130 + 0.5;
#X obj 115 262 lop~ 5;
#X connect 0 0 4 0;
#X connect 1 0 2 0;
#X connect 2 0 11 0;
#X connect 3 0 1 0;
#X connect 3 0 0 0;
#X connect 5 0 7 0;
#X connect 6 0 5 0;
#X connect 6 0 1 0;
#X connect 8 0 9 0;
#X connect 9 0 10 0;
#X connect 10 0 12 0;
#X connect 11 0 8 0;
#X connect 12 0 0 1;
#X connect 12 0 5 1;
#X restore 247 573 pd limiter;
#X f 13;
#X obj 557 194 * 3.4;
#X obj 557 231 spigot;
#X obj 527 251 spigot 1;
#X obj 417 194 * 2.3;
#X obj 417 231 spigot;
#X obj 387 251 spigot 1;
#X obj 463 194 tgl 15 0 empty empty empty 17 7 0 10 -262144 -1 -1 0
1;
#X obj 463 214 == 0;
#X obj 463 236 tgl 15 0 empty empty empty 17 7 0 10 -262144 -1 -1 0
1;
#X obj 765 112 random 10;
#X obj 765 133 / 10;
#X floatatom 765 175 5 0 0 0 - - -;
#X obj 835 112 random 10;
#X obj 835 133 / 10;
#X floatatom 835 175 5 0 0 0 - - -;
#X obj 765 154 + 1.8;
#X text 798 39 smear;
#X obj 765 34 tgl 25 0 empty smear empty 17 7 0 10 -262144 -1 -1 0
1;
#X obj 835 154 + 2.68;
#X obj 247 80 bng 15 250 50 0 empty empty empty 17 7 0 10 -262144 -1
-1;
#X obj 557 168 bng 15 250 50 0 empty empty empty 17 7 0 10 -262144
-1 -1;
#X obj 527 204 * 3;
#X obj 247 335 delread4~ corona 1000;
#X obj 387 335 delread4~ corona 2000;
#X obj 527 335 delread4~ corona 3000;
#X obj 765 74 sel 1;
#X obj 417 167 bng 15 250 50 0 empty empty empty 17 7 0 10 -262144
-1 -1;
#X obj 387 194 * 2;
#N canvas 727 100 450 432 drywet 0;
#X obj 88 204 expr 1 - $f1;
#X obj 67 367 outlet~;
#X text 98 250 < dry;
#X obj 190 28 inlet~;
#X obj 88 176 line;
#X msg 88 155 \$1 30;
#X text 73 8 dry;
#X text 197 7 wet;
#X text 367 7 mix;
#X obj 190 250 *~ 1;
#X obj 67 250 *~, f 4;
#X obj 295 176 line;
#X msg 295 155 \$1 30;
#X obj 274 367 outlet~;
#X obj 274 28 inlet~;
#X text 281 7 wet;
#X obj 274 250 *~ 1;
#X text 224 251 < wet >;
#X text 67 387 Left;
#X text 274 387 Right;
#X text 201 47 Left;
#X text 280 47 Right;
#X text 79 47 Mono;
#X obj 361 28 r mix;
#X floatatom 110 229 5 0 0 0 - - -;
#X obj 67 28 r~ DRY;
#X connect 0 0 10 1;
#X connect 0 0 24 0;
#X connect 3 0 9 0;
#X connect 4 0 0 0;
#X connect 5 0 4 0;
#X connect 9 0 1 0;
#X connect 10 0 1 0;
#X connect 10 0 13 0;
#X connect 11 0 9 1;
#X connect 11 0 16 1;
#X connect 12 0 11 0;
#X connect 14 0 16 0;
#X connect 16 0 13 0;
#X connect 23 0 5 0;
#X connect 23 0 12 0;
#X connect 25 0 10 0;
#X restore 247 603 pd drywet;
#X f 13;
#X text 806 72 subtly change delay time to make less regular repeats
, f 28;
#X obj 94 236 s~ DRY;
#X obj 247 40 r time;
#X obj 370 40 r fb;
#X obj 60 191 *~, f 10;
#X text 116 66 i/o;
#X obj 117 85 tgl 15 0 empty input empty 17 7 0 10 -262144 -1 -1 1
1;
#X obj 117 147 line;
#X msg 117 126 \$1 100;
#X text 512 569 // coronalay // Seán Mac Erlaine / March 2020 //;
#X floatatom 490 263 5 0 0 0 - - -;
#X obj 60 402 delwrite~ corona 8400;
#X obj 60 30 inlet~;
#X obj 248 632 outlet~;
#X obj 335 633 outlet~;
#X connect 0 0 13 0;
#X connect 0 0 70 0;
#X connect 1 0 10 0;
#X connect 1 0 70 0;
#X connect 2 0 3 0;
#X connect 3 0 9 0;
#X connect 4 0 5 0;
#X connect 5 0 9 0;
#X connect 5 0 9 1;
#X connect 6 0 7 0;
#X connect 7 0 9 0;
#X connect 7 0 9 1;
#X connect 8 0 4 0;
#X connect 9 0 29 0;
#X connect 9 1 29 1;
#X connect 10 0 6 0;
#X connect 11 0 8 0;
#X connect 11 0 70 0;
#X connect 12 0 22 0;
#X connect 12 0 30 0;
#X connect 12 0 33 0;
#X connect 12 0 51 0;
#X connect 12 0 57 0;
#X connect 13 0 19 0;
#X connect 14 0 0 1;
#X connect 15 0 14 0;
#X connect 16 0 1 1;
#X connect 17 0 16 0;
#X connect 19 0 2 0;
#X connect 19 1 20 0;
#X connect 20 0 21 0;
#X connect 21 0 9 1;
#X connect 22 0 23 0;
#X connect 23 0 52 0;
#X connect 24 0 25 0;
#X connect 25 0 53 0;
#X connect 26 0 27 0;
#X connect 27 0 54 0;
#X connect 28 0 70 0;
#X connect 29 0 58 0;
#X connect 29 1 58 1;
#X connect 30 0 31 0;
#X connect 31 0 26 0;
#X connect 32 0 26 0;
#X connect 33 0 34 0;
#X connect 34 0 24 0;
#X connect 35 0 24 0;
#X connect 36 0 37 0;
#X connect 36 0 34 1;
#X connect 36 0 31 1;
#X connect 37 0 38 0;
#X connect 38 0 35 1;
#X connect 38 0 32 1;
#X connect 39 0 40 0;
#X connect 40 0 45 0;
#X connect 41 0 33 1;
#X connect 42 0 43 0;
#X connect 43 0 48 0;
#X connect 44 0 30 1;
#X connect 45 0 41 0;
#X connect 47 0 36 0;
#X connect 47 0 50 0;
#X connect 47 0 49 0;
#X connect 47 0 55 0;
#X connect 47 0 56 0;
#X connect 48 0 44 0;
#X connect 49 0 12 0;
#X connect 50 0 30 0;
#X connect 51 0 32 0;
#X connect 51 0 69 0;
#X connect 52 0 11 0;
#X connect 53 0 0 0;
#X connect 54 0 1 0;
#X connect 55 0 39 0;
#X connect 55 0 42 0;
#X connect 56 0 33 0;
#X connect 57 0 35 0;
#X connect 58 0 72 0;
#X connect 58 1 73 0;
#X connect 61 0 12 0;
#X connect 62 0 15 0;
#X connect 62 0 17 0;
#X connect 62 0 11 1;
#X connect 63 0 60 0;
#X connect 63 0 28 0;
#X connect 65 0 67 0;
#X connect 66 0 63 1;
#X connect 67 0 66 0;
#X connect 71 0 63 0;
#X restore 734 267 pd guts;
#X f 4;
#X obj 277 402 s screenon;
#X obj 305 457 s screenmix;
#X msg 305 430 0.8;
#X obj 322 511 s screendrive;
#X msg 322 484 0.3;
#X obj 333 565 s screenfb;
#X msg 333 538 0.1;
#X msg 277 373 1;
#X obj 380 624 s screentime;
#X msg 379 594 2000;
#X connect 1 0 3 0;
#X connect 2 0 4 0;
#X connect 3 0 28 0;
#X connect 7 0 6 0;
#X connect 8 0 9 0;
#X connect 8 0 31 0;
#X connect 8 0 33 0;
#X connect 8 0 35 0;
#X connect 8 0 36 0;
#X connect 8 0 38 0;
#X connect 9 0 7 0;
#X connect 28 0 0 0;
#X connect 28 1 0 1;
#X connect 31 0 30 0;
#X connect 33 0 32 0;
#X connect 35 0 34 0;
#X connect 36 0 29 0;
#X connect 38 0 37 0;
