#N canvas -8 -8 1366 725 12;
#X obj 445 160 snapshot~;
#X obj 445 104 loadbang;
#X obj 445 131 metro 100;
#X obj 445 187 * 127;
#X obj 506 388 dac~ 1 2;
#X obj 506 349 *~ 0.1;
#X obj 391 255 phasor~ 440;
#X obj 507 305 bob~, f 9;
#X floatatom 733 252 5 0 200 0 - - -;
#X obj 733 274 / 25;
#X floatatom 645 186 5 0 150 0 - - -;
#X obj 645 208 mtof;
#X obj 646 253 pack 0 50;
#X obj 646 278 line~;
#X floatatom 645 231 7 0 0 0 - - -;
#X text 744 147 "resonance";
#X text 743 164 (>4 to oscillate);
#X text 781 270 scaled to 0-8;
#X text 780 252 0-200 control;
#X obj 733 201 loadbang;
#X msg 733 226 10;
#X obj 732 302 line~;
#X obj 645 137 loadbang;
#X msg 645 162 69;
#X obj 532 110 random 250;
#X obj 532 78 metro 200;
#X obj 390 187 *~ 900;
#X obj 390 215 +~ 300;
#X obj 389 133 lop~ 10;
#X obj 390 104 adc~ 3;
#X connect 0 0 3 0;
#X connect 1 0 2 0;
#X connect 1 0 25 0;
#X connect 2 0 0 0;
#X connect 3 0 11 0;
#X connect 5 0 4 0;
#X connect 5 0 4 1;
#X connect 6 0 7 0;
#X connect 7 0 5 0;
#X connect 8 0 9 0;
#X connect 9 0 21 0;
#X connect 10 0 11 0;
#X connect 11 0 14 0;
#X connect 12 0 13 0;
#X connect 13 0 7 1;
#X connect 14 0 12 0;
#X connect 19 0 20 0;
#X connect 20 0 8 0;
#X connect 21 0 7 2;
#X connect 22 0 23 0;
#X connect 23 0 10 0;
#X connect 24 0 2 1;
#X connect 25 0 24 0;
#X connect 26 0 27 0;
#X connect 27 0 6 0;
#X connect 28 0 0 0;
#X connect 28 0 26 0;
#X connect 29 0 28 0;
