#N canvas -8 -8 1366 725 12;
#X obj 146 16 loadbang;
#X msg 146 46 new BarTeste 1 BAR;
#X obj 146 74 s bela_setTrill;
#X obj 146 99 r bela_trillCreated;
#X obj 180 124 print bela_trillCreated;
#X obj 146 151 route BarTeste;
#X msg 31 180 mode BarTeste AUTO \, prescaler BarTeste 1 \, threshold
BarTeste 0.1 \, updateBaseline BarTeste, f 91;
#X obj 289 202 r bela_trill;
#X obj 206 406 list;
#X obj 146 261 bng 15 250 50 0 empty empty empty 17 7 0 10 -262144
-1 -1;
#X obj 146 281 metro 200;
#X obj 146 307 delay 30;
#X obj 206 447 print bar;
#X obj 289 232 route BarTeste;
#X obj 327 260 route list;
#X obj 327 287 unpack f f f f f f f f f f f, f 32;
#X obj 334 416 print nrToques;
#X obj 377 363 print pos1;
#X obj 393 335 print pos2;
#X obj 509 343 print pos3;
#X obj 485 398 print pos4;
#X obj 595 325 print pos5;
#X obj 334 383 f;
#X obj 351 329 f;
#X obj 340 532 osc~ 440;
#X obj 340 503 mtof;
#X obj 340 469 * 127;
#X obj 340 559 *~ 0.1;
#X obj 341 592 dac~ 1 2;
#X connect 0 0 1 0;
#X connect 1 0 2 0;
#X connect 3 0 4 0;
#X connect 3 0 5 0;
#X connect 5 0 6 0;
#X connect 5 0 9 0;
#X connect 7 0 13 0;
#X connect 9 0 10 0;
#X connect 10 0 11 0;
#X connect 11 0 8 0;
#X connect 11 0 22 0;
#X connect 11 0 23 0;
#X connect 13 0 8 1;
#X connect 13 0 14 0;
#X connect 14 0 15 0;
#X connect 15 0 22 1;
#X connect 15 1 23 1;
#X connect 22 0 16 0;
#X connect 23 0 17 0;
#X connect 23 0 26 0;
#X connect 24 0 27 0;
#X connect 25 0 24 0;
#X connect 26 0 25 0;
#X connect 27 0 28 0;
#X connect 27 0 28 1;
