#N canvas -8 -8 1370 729 12;
#X obj 241 193 hsl 128 15 0 1 0 0 empty empty empty -2 -8 0 10 -262144
-1 -1 4800 0;
#X obj 238 215 sig~;
#X obj 790 59 inlet~ CHANNEL_ONE;
#X obj 800 369 *~;
#X obj 845 369 *~;
#X obj 643 159 r \$0-maestro4-pan1-s;
#X obj 643 209 t f f;
#X msg 643 231 1 \$1;
#X obj 643 253 -;
#X obj 643 275 pack 0 50;
#X obj 643 297 line~;
#X obj 643 320 +~;
#X obj 713 275 pack 0 50;
#X obj 713 297 line~;
#X obj 713 320 +~;
#X obj 800 416 throw~ \$0-left;
#X obj 845 394 throw~ \$0-right;
#X obj 802 264 *~;
#X obj 817 108 r \$0-maestro4-ch1-s;
#X obj 817 155 * 0.00787402;
#X obj 817 215 pack 0 50;
#X obj 817 237 line~;
#X obj 817 131 - 1.27;
#X obj 860 274 inlet~ PAN1 CV;
#X obj 860 303 *~ -1;
#X obj 817 182 clip 0 1;
#X floatatom 926 211 5 0 0 0 - - -;
#X obj 643 186 / 127;
#X obj 1136 302 *~;
#X obj 1181 302 *~;
#X obj 977 174 t f f;
#X msg 977 196 1 \$1;
#X obj 977 218 -;
#X obj 977 240 pack 0 50;
#X obj 977 262 line~;
#X obj 977 286 +~;
#X obj 1047 240 pack 0 50;
#X obj 1047 262 line~;
#X obj 1047 286 +~;
#X obj 1136 349 throw~ \$0-left;
#X obj 1181 327 throw~ \$0-right;
#X obj 1136 229 *~;
#X obj 1151 180 pack 0 50;
#X obj 1151 202 line~;
#X obj 1151 112 - 1.27;
#X obj 1136 61 inlet~ CHANNEL_TWO;
#X obj 1151 89 r \$0-maestro4-ch2-s;
#X obj 977 130 r \$0-maestro4-pan2-s;
#X obj 1184 268 *~ -1;
#X obj 1184 243 inlet~ PAN2 CV;
#X obj 1151 157 clip 0 1;
#X obj 1151 135 * 0.00787402;
#X obj 977 152 / 127;
#X obj 968 326 catch~ \$0-left;
#X obj 1013 355 catch~ \$0-right;
#X obj 1081 675 env~;
#X obj 1081 721 s \$0-maestro4-meter-left-r;
#X obj 1081 697 - 96;
#X obj 1064 587 env~;
#X obj 1064 609 - 96;
#X obj 1064 633 s \$0-maestro4-meter-right-r;
#X obj 1013 487 *~;
#X obj 968 487 *~;
#X obj 1046 381 r \$0-maestro4-master-s;
#X obj 1046 425 * 0.00787402;
#X obj 1046 447 pack 0 50;
#X obj 1046 470 line~;
#X obj 1046 403 - 1.27;
#X obj 1013 611 hip~ 5;
#X obj 1012 726 clip~ -1 1;
#X obj 968 540 hip~ 5;
#X obj 967 704 clip~ -1 1;
#X obj 968 513 *~ 1;
#X obj 1013 589 *~ 1;
#X obj 967 750 dac~ 1 2;
#X obj 1138 423 r \$0-maestro4-lpass-s;
#X obj 1138 445 / 127;
#X obj 1138 467 * 19950;
#X floatatom 1138 511 5 0 0 0 - - -;
#X obj 1138 489 - 150;
#X obj 1138 530 pack 0 50;
#X obj 968 562 lop~;
#X obj 968 584 lop~;
#X obj 1013 633 lop~;
#X obj 1013 655 lop~;
#X obj 1138 552 line;
#X obj 1138 574 t f f f f;
#X obj 382 209 hsl 30 15 0 127 0 1 \$0-maestro4-pan1-s \$0-maestro4-pan1-r
PAN1 0 25 0 10 -262144 -1 -1 0 1;
#X obj 379 126 vsl 17 80 1.27 127 1 1 \$0-maestro4-ch1-s \$0-maestro4-ch1-r
CH1 -1 -9 0 10 -262144 -1 -1 7300 1;
#X obj 398 126 vu 15 80 \$0-maestro4-ch1-meter-r empty -1 -8 0 10 -66577
-1 0 0;
#X obj 427 209 hsl 30 15 0 127 0 1 \$0-maestro4-pan2-s \$0-maestro4-pan2-r
PAN2 0 25 0 10 -262144 -1 -1 2900 1;
#X obj 424 126 vsl 17 80 1.27 127 1 1 \$0-maestro4-ch2-s \$0-maestro4-ch2-r
CH2 -1 -9 0 10 -262144 -1 -1 7200 1;
#X obj 443 126 vu 15 80 \$0-maestro4-ch2-meter-r empty -1 -8 0 10 -66577
-1 0 0;
#X obj 472 209 hsl 30 15 0 127 0 1 \$0-maestro4-pan3-s \$0-maestro4-pan3-r
PAN3 0 25 0 10 -262144 -1 -1 1500 1;
#X obj 469 126 vsl 17 80 1.27 127 1 1 \$0-maestro4-ch3-s \$0-maestro4-ch3-r
CH3 -1 -9 0 10 -262144 -1 -1 6400 1;
#X obj 488 126 vu 15 80 \$0-maestro4-ch3-meter-r empty -1 -8 0 10 -66577
-1 0 0;
#X obj 517 209 hsl 30 15 0 127 0 1 \$0-maestro4-pan4-s \$0-maestro4-pan4-r
PAN4 0 25 0 10 -262144 -1 -1 2900 1;
#X obj 514 126 vsl 17 80 1.27 127 1 1 \$0-maestro4-ch4-s \$0-maestro4-ch4-r
CH4 -1 -9 0 10 -262144 -1 -1 6800 1;
#X obj 533 126 vu 15 80 \$0-maestro4-ch4-meter-r empty -1 -8 0 10 -66577
-1 0 0;
#X obj 552 126 vsl 30 79 1.27 127 1 1 \$0-maestro4-master-s \$0-maestro4-master-r
MASTER 0 -8 0 10 -262144 -1 -1 5500 1;
#X obj 379 102 cnv 5 5 5 empty empty MAESTRO4 0 0 0 12 -262144 -66577
0;
#X obj 441 80 cnv 5 5 5 empty empty CH2 0 0 0 8 -262144 -66577 0;
#X obj 379 80 cnv 5 5 5 empty empty CH1 0 0 0 8 -262144 -66577 0;
#X obj 509 80 cnv 5 5 5 empty empty CH3 0 0 0 8 -262144 -66577 0;
#X obj 441 102 cnv 5 5 5 empty \$0-instance-num 0 0 0 0 12 -262144
-66577 0;
#X obj 601 80 cnv 5 5 5 empty empty PAN4 0 0 0 8 -262144 -66577 0;
#X obj 403 80 cnv 5 5 5 empty empty PAN1 0 0 0 8 -262144 -66577 0;
#X obj 472 80 cnv 5 5 5 empty empty PAN2 0 0 0 8 -262144 -66577 0;
#X obj 543 80 cnv 5 5 5 empty empty PAN3 0 0 0 8 -262144 -66577 0;
#X obj 579 80 cnv 5 5 5 empty empty CH4 0 0 0 8 -262144 -66577 0;
#X obj 455 96 hsl 128 15 1.27 127 1 1 \$0-maestro4-lpass-s \$0-maestro4-lpass-r
LPASS 135 7 0 10 -262144 -1 -1 9500 1;
#N canvas -8 -8 1366 725 osc1 0;
#X obj 93 296 t f f;
#X obj 93 384 line~;
#X obj 93 478 mtof~;
#X floatatom 205 118 5 0 0 0 - - -;
#X obj 350 621 outlet~;
#X obj 93 450 +~;
#X obj 217 433 *~ 127;
#X obj 465 463 *~;
#X obj 480 416 pack 0 50;
#X obj 480 438 line~;
#X obj 107 177 hsl 128 15 0 127 0 1 \$0-basic-osc-fm-att-s \$0-basic-osc-fm-att-r
FM 133 7 0 10 -158136 -1 -1 0 1;
#X obj 107 132 hsl 128 15 0 127 0 1 \$0-basic-osc-pitch-s \$0-basic-osc-pitch-r
PITCH 133 7 0 10 -262144 -1 -1 4700 1;
#X obj 192 109 cnv 5 5 5 empty empty PWM 0 0 0 8 -262144 -120682 0
;
#X text 462 227 FM IN;
#X obj 465 485 *~ 2000;
#X obj 93 502 +~;
#X text 214 230 PITCH CV IN;
#X obj 104 124 cnv 5 5 5 empty empty BASIC-OSC 0 0 0 12 -262144 -66577
0;
#X obj 93 361 pack 0 50;
#X obj 240 200 cnv 5 5 5 empty \$0-waveform-gui-r SAW 0 0 0 10 -262144
-66577 0;
#X obj 93 269 r \$0-basic-osc-pitch-s;
#X obj 107 147 hsl 128 15 0 127 0 1 \$0-basic-osc-pwidth-s \$0-basic-osc-pwidth-r
P-WIDTH 133 7 0 10 -262144 -1 -1 0 1;
#X obj 107 162 hsl 128 15 0 127 0 1 \$0-basic-osc-pwm-att-s \$0-basic-osc-pwm-att-r
PWM 133 7 0 10 -158136 -1 -1 0 1;
#X obj 480 350 r \$0-basic-osc-fm-att-s;
#X obj 480 372 * 0.00787402;
#X obj 480 394 * 2;
#X obj 105 204 cnv 5 5 5 empty empty OUT 0 0 0 8 -262144 -66577 0;
#X obj 679 14 r \$0-basic-osc-wform-s;
#X obj 679 35 sel 0 1 2 3;
#N canvas 0 22 897 458 sinewave 0;
#X obj 193 69 inlet~;
#X obj 193 147 osc~;
#X obj 193 226 outlet~;
#X obj 241 263 switch~;
#X obj 241 68 r \$0-basic-osc-sine-on/off;
#X obj 193 181 *~;
#X obj 241 90 t f f;
#X obj 268 164 line~;
#X obj 268 142 pack 0 100;
#X obj 241 186 sel 0;
#X obj 241 208 del 100;
#X msg 241 230 0;
#X connect 0 0 1 0;
#X connect 1 0 5 0;
#X connect 4 0 6 0;
#X connect 5 0 2 0;
#X connect 6 0 9 0;
#X connect 6 1 8 0;
#X connect 7 0 5 1;
#X connect 8 0 7 0;
#X connect 9 0 10 0;
#X connect 9 1 3 0;
#X connect 10 0 11 0;
#X connect 11 0 3 0;
#X restore 93 604 pd sinewave;
#X msg 679 522 1 0 0 0;
#X obj 679 498 t b b;
#X obj 177 192 hradio 15 1 1 4 \$0-basic-osc-wform-s \$0-basic-osc-wform-r
empty 65 7 0 10 -262144 -1 -1 2;
#X obj 175 124 cnv 5 5 5 empty \$0-instance-num 0 0 0 0 12 -262144
-66577 0;
#X obj 938 588 s \$0-waveform-gui-r;
#X obj 938 541 makefilename %s;
#X msg 938 565 label \$1;
#X msg 938 515 symbol SINE;
#X obj 285 109 cnv 5 5 5 empty empty FM 0 0 0 8 -262144 -120682 0;
#X obj 694 329 t b b;
#X msg 694 351 0 1 0 0;
#X obj 679 544 unpack f f f f;
#X obj 679 643 s \$0-basic-osc-sine-on/off;
#X obj 706 618 s \$0-basic-osc-triangle-on/off;
#X obj 733 592 s \$0-basic-osc-saw-on/off;
#X obj 760 567 s \$0-basic-osc-pulse-on/off;
#X obj 694 374 unpack f f f f;
#X obj 694 473 s \$0-basic-osc-sine-on/off;
#X obj 721 448 s \$0-basic-osc-triangle-on/off;
#X obj 748 422 s \$0-basic-osc-saw-on/off;
#X obj 775 397 s \$0-basic-osc-pulse-on/off;
#X msg 938 493 symbol TRIANGLE;
#X obj 710 161 t b b;
#X obj 710 206 unpack f f f f;
#X obj 710 305 s \$0-basic-osc-sine-on/off;
#X obj 737 280 s \$0-basic-osc-triangle-on/off;
#X obj 764 254 s \$0-basic-osc-saw-on/off;
#X obj 791 229 s \$0-basic-osc-pulse-on/off;
#X msg 710 183 0 0 1 0;
#X msg 939 471 symbol SAW;
#X obj 804 52 t b b;
#X obj 804 97 unpack f f f f;
#X obj 804 196 s \$0-basic-osc-sine-on/off;
#X obj 831 171 s \$0-basic-osc-triangle-on/off;
#X obj 858 145 s \$0-basic-osc-saw-on/off;
#X obj 885 120 s \$0-basic-osc-pulse-on/off;
#X msg 804 74 0 0 0 1;
#X msg 935 439 symbol PULSE;
#N canvas 0 23 632 532 triangle 0;
#X obj 90 62 inlet~;
#X obj 90 380 outlet~;
#X obj 138 344 switch~;
#X obj 90 335 *~;
#X obj 138 83 t f f;
#X obj 165 318 line~;
#X obj 138 61 r \$0-basic-osc-triangle-on/off;
#X obj 90 134 phasor~;
#X obj 90 222 min~;
#X obj 111 176 *~ -1;
#X obj 111 198 +~ 1;
#X obj 90 244 *~ 4;
#X obj 90 266 -~ 1;
#X obj 165 296 pack 0 100;
#X obj 138 234 sel 0;
#X obj 138 256 del 100;
#X msg 138 278 0;
#X connect 0 0 7 0;
#X connect 3 0 1 0;
#X connect 4 0 14 0;
#X connect 4 1 13 0;
#X connect 5 0 3 1;
#X connect 6 0 4 0;
#X connect 7 0 8 0;
#X connect 7 0 9 0;
#X connect 8 0 11 0;
#X connect 9 0 10 0;
#X connect 10 0 8 1;
#X connect 11 0 12 0;
#X connect 12 0 3 0;
#X connect 13 0 5 0;
#X connect 14 0 15 0;
#X connect 14 1 2 0;
#X connect 15 0 16 0;
#X connect 16 0 2 0;
#X restore 185 519 pd triangle;
#N canvas 0 22 344 453 saw 0;
#X obj 90 62 inlet~;
#X obj 90 380 outlet~;
#X obj 138 344 switch~;
#X obj 90 335 *~;
#X obj 138 83 t f f;
#X obj 165 318 line~;
#X obj 90 134 phasor~;
#X obj 90 266 -~ 1;
#X obj 90 209 *~ 2;
#X obj 138 61 r \$0-basic-osc-saw-on/off;
#X obj 165 296 pack 0 100;
#X obj 138 171 sel 0;
#X obj 138 193 del 100;
#X msg 138 215 0;
#X connect 0 0 6 0;
#X connect 3 0 1 0;
#X connect 4 0 11 0;
#X connect 4 1 10 0;
#X connect 5 0 3 1;
#X connect 6 0 8 0;
#X connect 7 0 3 0;
#X connect 8 0 7 0;
#X connect 9 0 4 0;
#X connect 10 0 5 0;
#X connect 11 0 12 0;
#X connect 11 1 2 0;
#X connect 12 0 13 0;
#X connect 13 0 2 0;
#X restore 278 519 pd saw;
#N canvas 0 22 633 594 pulse 0;
#X obj 164 62 inlet~;
#X obj 164 553 outlet~;
#X obj 212 517 switch~;
#X obj 164 508 *~;
#X obj 212 83 t f f;
#X obj 239 491 line~;
#X obj 164 134 phasor~;
#X obj 164 434 -~ 1;
#X obj 164 332 cos~;
#X obj 164 359 expr~ $v1 < $v2;
#X obj 251 262 * 0.99;
#X obj 251 284 pack 0 50;
#X obj 389 117 inlet~;
#X text 387 96 PWM CV INPUT;
#X obj 251 306 line~;
#X obj 251 330 +~;
#X obj 389 313 *~;
#X obj 404 257 pack 0 50;
#X obj 404 279 line~;
#X obj 251 207 r \$0-basic-osc-pwidth-s;
#X obj 251 240 * 0.00787402;
#X obj 404 235 * 0.00787402;
#X obj 404 206 r \$0-basic-osc-pwm-att-s;
#X obj 212 61 r \$0-basic-osc-pulse-on/off;
#X obj 164 413 *~ 2;
#X obj 239 469 pack 0 100;
#X obj 212 400 sel 0;
#X obj 212 422 del 100;
#X msg 212 444 0;
#X connect 0 0 6 0;
#X connect 3 0 1 0;
#X connect 4 0 26 0;
#X connect 4 1 25 0;
#X connect 5 0 3 1;
#X connect 6 0 8 0;
#X connect 7 0 3 0;
#X connect 8 0 9 0;
#X connect 9 0 24 0;
#X connect 10 0 11 0;
#X connect 11 0 14 0;
#X connect 12 0 16 0;
#X connect 14 0 15 0;
#X connect 15 0 9 1;
#X connect 16 0 15 1;
#X connect 17 0 18 0;
#X connect 18 0 16 1;
#X connect 19 0 20 0;
#X connect 20 0 10 0;
#X connect 21 0 17 0;
#X connect 22 0 21 0;
#X connect 23 0 4 0;
#X connect 24 0 7 0;
#X connect 25 0 5 0;
#X connect 26 0 27 0;
#X connect 26 1 2 0;
#X connect 27 0 28 0;
#X connect 28 0 2 0;
#X restore 350 519 pd pulse;
#X obj 395 272 inlet~ PWM;
#X obj 465 246 inlet~ FM;
#X obj 217 246 inlet~ PITCH;
#N canvas 396 31 798 399 parameter-nudging-system 0;
#X obj 23 22 r \$0-basic-osc-pitch-s;
#X obj 23 102 s \$0-basic-osc-pitch-r;
#X obj 182 22 r \$0-basic-osc-pwidth-s;
#X obj 182 99 s \$0-basic-osc-pwidth-r;
#X obj 337 20 r \$0-basic-osc-pwm-att-s;
#X obj 337 97 s \$0-basic-osc-pwm-att-r;
#X obj 21 139 r \$0-basic-osc-fm-att-s;
#X obj 21 215 s \$0-basic-osc-fm-att-r;
#X obj 21 184 clip 0 127;
#X obj 23 70 clip 0 127;
#X obj 182 67 clip 0 127;
#X obj 337 65 clip 0 127;
#N canvas 0 22 484 497 nudge-freq 0;
#X obj 124 234 random;
#X obj 232 335 f;
#X obj 232 368 +;
#X obj 257 166 random 2;
#X obj 124 275 t f f;
#X obj 124 351 t b f;
#X obj 124 297 *;
#X obj 257 188 sel 0 1;
#X msg 257 280 -1;
#X msg 335 280 1;
#X obj 124 149 t b b b;
#X obj 124 51 r NUDGE!;
#X obj 157 193 r NUDGE-RANGE;
#X obj 247 308 inlet;
#X obj 232 397 outlet;
#X obj 124 73 spigot;
#X obj 185 56 r frequencies2-s;
#X connect 0 0 4 0;
#X connect 1 0 2 0;
#X connect 2 0 14 0;
#X connect 3 0 7 0;
#X connect 4 0 6 0;
#X connect 5 0 2 0;
#X connect 5 1 2 1;
#X connect 6 0 5 0;
#X connect 7 0 8 0;
#X connect 7 1 9 0;
#X connect 8 0 6 1;
#X connect 9 0 6 1;
#X connect 10 0 0 0;
#X connect 10 1 1 0;
#X connect 10 2 3 0;
#X connect 11 0 15 0;
#X connect 12 0 0 1;
#X connect 13 0 1 1;
#X connect 15 0 10 0;
#X connect 16 0 15 1;
#X restore 23 48 pd nudge-freq;
#N canvas 0 22 484 497 nudge-parameters 0;
#X obj 124 234 random;
#X obj 232 335 f;
#X obj 232 368 +;
#X obj 257 166 random 2;
#X obj 124 275 t f f;
#X obj 124 351 t b f;
#X obj 124 297 *;
#X obj 257 188 sel 0 1;
#X msg 257 280 -1;
#X msg 335 280 1;
#X obj 124 149 t b b b;
#X obj 124 74 r NUDGE!;
#X obj 157 193 r NUDGE-RANGE;
#X obj 247 308 inlet;
#X obj 232 397 outlet;
#X obj 124 96 spigot;
#X obj 185 79 r parameters2-s;
#X connect 0 0 4 0;
#X connect 1 0 2 0;
#X connect 2 0 14 0;
#X connect 3 0 7 0;
#X connect 4 0 6 0;
#X connect 5 0 2 0;
#X connect 5 1 2 1;
#X connect 6 0 5 0;
#X connect 7 0 8 0;
#X connect 7 1 9 0;
#X connect 8 0 6 1;
#X connect 9 0 6 1;
#X connect 10 0 0 0;
#X connect 10 1 1 0;
#X connect 10 2 3 0;
#X connect 11 0 15 0;
#X connect 12 0 0 1;
#X connect 13 0 1 1;
#X connect 15 0 10 0;
#X connect 16 0 15 1;
#X restore 182 45 pd nudge-parameters;
#N canvas 0 22 484 497 nudge-attenuators 0;
#X obj 124 234 random;
#X obj 232 335 f;
#X obj 232 368 +;
#X obj 257 166 random 2;
#X obj 124 275 t f f;
#X obj 124 351 t b f;
#X obj 124 297 *;
#X obj 257 188 sel 0 1;
#X msg 257 280 -1;
#X msg 335 280 1;
#X obj 124 149 t b b b;
#X obj 124 71 r NUDGE!;
#X obj 157 193 r NUDGE-RANGE;
#X obj 247 308 inlet;
#X obj 232 397 outlet;
#X obj 124 93 spigot;
#X obj 201 76 r attenuators2-s;
#X connect 0 0 4 0;
#X connect 1 0 2 0;
#X connect 2 0 14 0;
#X connect 3 0 7 0;
#X connect 4 0 6 0;
#X connect 5 0 2 0;
#X connect 5 1 2 1;
#X connect 6 0 5 0;
#X connect 7 0 8 0;
#X connect 7 1 9 0;
#X connect 8 0 6 1;
#X connect 9 0 6 1;
#X connect 10 0 0 0;
#X connect 10 1 1 0;
#X connect 10 2 3 0;
#X connect 11 0 15 0;
#X connect 12 0 0 1;
#X connect 13 0 1 1;
#X connect 15 0 10 0;
#X connect 16 0 15 1;
#X restore 337 43 pd nudge-attenuators;
#N canvas 0 22 484 497 param-nudge-attenuators 0;
#X obj 124 234 random;
#X obj 232 335 f;
#X obj 232 368 +;
#X obj 257 166 random 2;
#X obj 124 275 t f f;
#X obj 124 351 t b f;
#X obj 124 297 *;
#X obj 257 188 sel 0 1;
#X msg 257 280 -1;
#X msg 335 280 1;
#X obj 124 149 t b b b;
#X obj 124 81 r NUDGE!;
#X obj 157 193 r NUDGE-RANGE;
#X obj 247 308 inlet;
#X obj 232 397 outlet;
#X obj 124 103 spigot;
#X obj 185 86 r attenuators2-s;
#X connect 0 0 4 0;
#X connect 1 0 2 0;
#X connect 2 0 14 0;
#X connect 3 0 7 0;
#X connect 4 0 6 0;
#X connect 5 0 2 0;
#X connect 5 1 2 1;
#X connect 6 0 5 0;
#X connect 7 0 8 0;
#X connect 7 1 9 0;
#X connect 8 0 6 1;
#X connect 9 0 6 1;
#X connect 10 0 0 0;
#X connect 10 1 1 0;
#X connect 10 2 3 0;
#X connect 11 0 15 0;
#X connect 12 0 0 1;
#X connect 13 0 1 1;
#X connect 15 0 10 0;
#X connect 16 0 15 1;
#X restore 21 162 pd param-nudge-attenuators;
#X connect 0 0 12 0;
#X connect 2 0 13 0;
#X connect 4 0 14 0;
#X connect 6 0 15 0;
#X connect 8 0 7 0;
#X connect 9 0 1 0;
#X connect 10 0 3 0;
#X connect 11 0 5 0;
#X connect 12 0 9 0;
#X connect 13 0 10 0;
#X connect 14 0 11 0;
#X connect 15 0 8 0;
#X restore 318 66 pd parameter-nudging-system;
#X obj 93 318 clip 0 100;
#X obj 105 109 cnv 5 5 5 empty empty PITCH 0 0 0 8 -262144 -66577 0
;
#X obj 269 640 hsl 128 15 0 127 0 0 empty empty empty -2 -8 0 10 -262144
-1 -1 0 1;
#X msg 266 660 PITCH \$1;
#X obj 266 681 s basic-osc1;
#X obj 90 639 hsl 128 15 0 127 0 0 empty empty empty -2 -8 0 10 -262144
-1 -1 0 1;
#X obj 87 680 s basic-osc1;
#X msg 87 659 P-WIDTH \$1;
#X obj 350 540 *~ 0.9;
#X obj 175 312 mtof;
#X connect 0 0 75 0;
#X connect 0 1 84 0;
#X connect 0 1 3 0;
#X connect 1 0 5 0;
#X connect 2 0 15 0;
#X connect 5 0 2 0;
#X connect 6 0 5 1;
#X connect 7 0 14 0;
#X connect 8 0 9 0;
#X connect 9 0 7 1;
#X connect 14 0 15 1;
#X connect 15 0 29 0;
#X connect 15 0 68 0;
#X connect 15 0 69 0;
#X connect 15 0 70 0;
#X connect 18 0 1 0;
#X connect 20 0 0 0;
#X connect 23 0 24 0;
#X connect 24 0 25 0;
#X connect 25 0 8 0;
#X connect 27 0 28 0;
#X connect 28 0 31 0;
#X connect 28 1 39 0;
#X connect 28 2 52 0;
#X connect 28 3 60 0;
#X connect 29 0 4 0;
#X connect 30 0 41 0;
#X connect 31 0 30 0;
#X connect 31 1 37 0;
#X connect 35 0 36 0;
#X connect 36 0 34 0;
#X connect 37 0 35 0;
#X connect 39 0 40 0;
#X connect 39 1 51 0;
#X connect 40 0 46 0;
#X connect 41 0 42 0;
#X connect 41 1 43 0;
#X connect 41 2 44 0;
#X connect 41 3 45 0;
#X connect 46 0 47 0;
#X connect 46 1 48 0;
#X connect 46 2 49 0;
#X connect 46 3 50 0;
#X connect 51 0 35 0;
#X connect 52 0 58 0;
#X connect 52 1 59 0;
#X connect 53 0 54 0;
#X connect 53 1 55 0;
#X connect 53 2 56 0;
#X connect 53 3 57 0;
#X connect 58 0 53 0;
#X connect 59 0 35 0;
#X connect 60 0 66 0;
#X connect 60 1 67 0;
#X connect 61 0 62 0;
#X connect 61 1 63 0;
#X connect 61 2 64 0;
#X connect 61 3 65 0;
#X connect 66 0 61 0;
#X connect 67 0 35 0;
#X connect 68 0 4 0;
#X connect 69 0 4 0;
#X connect 70 0 83 0;
#X connect 71 0 70 1;
#X connect 72 0 7 0;
#X connect 73 0 6 0;
#X connect 75 0 18 0;
#X connect 77 0 78 0;
#X connect 78 0 79 0;
#X connect 80 0 82 0;
#X connect 82 0 81 0;
#X connect 83 0 4 0;
#X coords 0 -1 1 1 200 120 1 100 100;
#X restore 31 23 pd osc1;
#N canvas -8 -8 1366 725 wave 0;
#X obj 104 251 t f f;
#X obj 104 322 line~;
#X obj 104 374 mtof~;
#X floatatom 206 117 5 0 0 0 - - -;
#X obj 104 349 +~;
#X obj 351 369 *~;
#X obj 366 315 pack 0 50;
#X obj 366 337 line~;
#X obj 108 190 hsl 128 15 0 127 0 1 \$0-wtable-fm-att-s \$0-wtable-fm-att-r
FM 133 7 0 10 -158136 -1 -1 200 1;
#X obj 108 131 hsl 128 15 0 127 0 1 \$0-wtable-pitch-s \$0-wtable-pitch-r
PITCH 133 7 0 10 -262144 -1 -1 2300 1;
#X obj 103 108 cnv 5 5 5 empty empty PITCH 0 0 0 8 -262144 -66577 0
;
#X obj 263 108 cnv 5 5 5 empty empty FM 0 0 0 8 -262144 -120682 0;
#X obj 351 391 *~ 2000;
#X obj 104 408 +~;
#X obj 104 297 pack 0 50;
#X obj 106 124 cnv 5 5 5 empty empty WTABLE 0 0 0 12 -262144 -66577
0;
#X obj 154 124 cnv 5 5 5 empty \$0-instance-num 0 0 0 0 12 -262144
-66577 0;
#X obj 104 273 clip 0 90;
#X obj 261 331 *~ 127;
#N canvas 472 28 323 246 tables 0;
#N canvas 0 22 745 659 ramps 0;
#X obj 25 18 loadbang;
#X obj 25 40 f \$0;
#X obj 25 67 t f f;
#X obj 24 223 loadbang;
#X text 75 223 TRIANGLE WAVE;
#X obj 24 245 f \$0;
#X obj 24 269 t f f;
#X text 83 21 FALLING RAMP;
#X obj 32 418 loadbang;
#X obj 32 440 f \$0;
#X obj 32 467 t f f;
#X text 92 424 ??? RAMP RAMP;
#X msg 32 561 \; \$1-wtable-ramp3 normalize 1;
#X msg 59 488 \; \$1-wtable-ramp3 sinesum 515 1 -1 0.5 -0.5 0.33 -0.33
0.25 -0.25 0.2 -0.2 1 -1 0.5 -0.5 0.33 -0.33 0.25 -0.25 0.2 -0.2;
#X obj 31 596 table \$0-wtable-ramp3;
#X obj 22 385 table \$0-wtable-ramp2;
#X msg 24 345 \; \$1-wtable-ramp2 normalize 1;
#X msg 51 296 \; \$1-wtable-ramp2 sinesum 515 1 0 -0.111111 0 0.04
0 -0.0204082 0 0.0123457 0 -0.00826446;
#X msg 25 161 \; \$1-wtable-ramp1 normalize 1;
#X msg 52 88 \; \$1-wtable-ramp1 sinesum 515 1 0.5 0.33 0.25 0.2 0.16
0.14 0.125 0.111111 0.1 0.090909 0.083333 0.076923 0.0714285 0.066666
0.0625 0.058823 0.055555 0.052631 0.05 0.047619 0.045454 0.043478 0.041666
;
#X obj 24 196 table \$0-wtable-ramp1;
#X connect 0 0 1 0;
#X connect 1 0 2 0;
#X connect 2 0 18 0;
#X connect 2 1 19 0;
#X connect 3 0 5 0;
#X connect 5 0 6 0;
#X connect 6 0 16 0;
#X connect 6 1 17 0;
#X connect 8 0 9 0;
#X connect 9 0 10 0;
#X connect 10 0 12 0;
#X connect 10 1 13 0;
#X restore 24 46 pd ramps;
#N canvas 635 114 463 602 sinusoid 0;
#X obj 28 26 loadbang;
#X obj 28 48 f \$0;
#X obj 28 72 t f f;
#X text 79 26 PURE SINE WAVE;
#X obj 22 214 loadbang;
#X obj 22 236 f \$0;
#X obj 22 260 t f f;
#X text 73 214 SINE2;
#X obj 18 406 loadbang;
#X obj 18 428 f \$0;
#X obj 18 452 t f f;
#X text 69 406 SINE3;
#X msg 28 148 \; \$1-wtable-sine normalize 1;
#X obj 26 188 table \$0-wtable-sine;
#X msg 22 336 \; \$1-wtable-sine2 normalize 1;
#X obj 20 376 table \$0-wtable-sine2;
#X msg 18 528 \; \$1-wtable-sine3 normalize 1;
#X obj 16 568 table \$0-wtable-sine3;
#X msg 55 99 \; \$1-wtable-sine sinesum 515 1;
#X msg 49 287 \; \$1-wtable-sine2 sinesum 515 1 0 1 0 1 0;
#X msg 45 479 \; \$1-wtable-sine3 sinesum 515 1 0 1 0 1 0 1 0 1 0 1
0;
#X connect 0 0 1 0;
#X connect 1 0 2 0;
#X connect 2 0 12 0;
#X connect 2 1 18 0;
#X connect 4 0 5 0;
#X connect 5 0 6 0;
#X connect 6 0 14 0;
#X connect 6 1 19 0;
#X connect 8 0 9 0;
#X connect 9 0 10 0;
#X connect 10 0 16 0;
#X connect 10 1 20 0;
#X restore 24 23 pd sinusoid;
#N canvas 0 22 794 615 squares 0;
#X obj 25 19 loadbang;
#X obj 25 72 t f f;
#X obj 25 41 f \$0;
#X obj 27 230 loadbang;
#X obj 28 284 t f f;
#X obj 27 252 f \$0;
#X obj 411 28 loadbang;
#X obj 412 82 t f f;
#X obj 411 50 f \$0;
#X msg 52 98 \; \$1-wtable-square1 sinesum 515 1 0 0.33 0 0.2 0 0.142857
0 0.111111 0 0.090909 0 0.076923 0 0.066666 0 0.058823 0 0.0526315
0 0.047619 0 0.04347 0 0.04 0;
#X msg 25 159 \; \$1-wtable-square1 normalize 1;
#X obj 23 199 table \$0-wtable-square1;
#X msg 55 310 \; \$1-wtable-square2 sinesum 515 1 0 0 0 0.2 0 0 0 0.111111
0 0 0 0.076923 0 0 0 0.058823 0 0 0 0.047619 0 0 0 0.04;
#X msg 28 371 \; \$1-wtable-square2 normalize 1;
#X obj 26 411 table \$0-wtable-square2;
#X msg 439 108 \; \$1-wtable-square3 sinesum 515 1 0 0 0 0 0 0 0 0.111111
0 0 0 0 0 0 0 0.058823 0 0 0 0 0 0 0 0.04;
#X msg 412 169 \; \$1-wtable-square3 normalize 1;
#X obj 410 209 table \$0-wtable-square3;
#X connect 0 0 2 0;
#X connect 1 0 10 0;
#X connect 1 1 9 0;
#X connect 2 0 1 0;
#X connect 3 0 5 0;
#X connect 4 0 13 0;
#X connect 4 1 12 0;
#X connect 5 0 4 0;
#X connect 6 0 8 0;
#X connect 7 0 16 0;
#X connect 7 1 15 0;
#X connect 8 0 7 0;
#X restore 25 67 pd squares;
#N canvas 0 22 687 641 z1 0;
#X obj 28 26 loadbang;
#X obj 28 48 f \$0;
#X obj 28 72 t f f;
#X text 79 26 PURE SINE WAVE;
#X obj 22 214 loadbang;
#X obj 22 236 f \$0;
#X obj 22 260 t f f;
#X text 73 214 SINE2;
#X obj 18 406 loadbang;
#X obj 18 428 f \$0;
#X obj 18 452 t f f;
#X text 69 406 SINE3;
#X msg 28 148 \; \$1-wtable-z1a normalize 1;
#X obj 26 188 table \$0-wtable-z1a;
#X msg 22 336 \; \$1-wtable-z1b normalize 1;
#X obj 20 376 table \$0-wtable-z1b;
#X msg 18 528 \; \$1-wtable-z1c normalize 1;
#X obj 16 568 table \$0-wtable-z1c;
#X msg 55 99 \; \$1-wtable-z1a sinesum 515 0.1 0.2 0.3 0.4 0.5 0.7
0.8 0.9 1 0.9 0.8 0.7 0.6 0.5 0.4 0.3 0.2 0.1;
#X msg 102 277 \; \$1-wtable-z1b sinesum 515 1 0.1 1 0.2 1 0.3 1 0.4
1 0.5 1 0.7 1 0.8 1 0.9 1 1 0.9 1 0.8 1 0.7 1 0.6 1 0.5 1 0.4 1 0.3
1 0.2 1 0.1;
#X msg 45 479 \; \$1-wtable-z1c sinesum 515 0.1 0.1 0.1 1 0.1 0.1 0.1
1 0.1 0.1 0.1 1 0.1 0.1 0.1 1;
#X connect 0 0 1 0;
#X connect 1 0 2 0;
#X connect 2 0 12 0;
#X connect 2 1 18 0;
#X connect 4 0 5 0;
#X connect 5 0 6 0;
#X connect 6 0 14 0;
#X connect 6 1 19 0;
#X connect 8 0 9 0;
#X connect 9 0 10 0;
#X connect 10 0 16 0;
#X connect 10 1 20 0;
#X restore 26 88 pd z1;
#N canvas 0 22 687 641 z2 0;
#X obj 28 26 loadbang;
#X obj 28 48 f \$0;
#X obj 28 72 t f f;
#X text 79 26 PURE SINE WAVE;
#X obj 22 214 loadbang;
#X obj 22 236 f \$0;
#X obj 22 260 t f f;
#X text 73 214 SINE2;
#X obj 18 406 loadbang;
#X obj 18 428 f \$0;
#X obj 18 452 t f f;
#X text 69 406 SINE3;
#X msg 28 148 \; \$1-wtable-z2a normalize 1;
#X obj 26 188 table \$0-wtable-z2a;
#X msg 22 336 \; \$1-wtable-z2b normalize 1;
#X obj 20 376 table \$0-wtable-z2b;
#X msg 18 528 \; \$1-wtable-z2c normalize 1;
#X obj 16 568 table \$0-wtable-z2c;
#X msg 55 99 \; \$1-wtable-z2a sinesum 515 1 0.1 0.2 0.3 0.4 0.5 0.7
0.8 0.9 1 0.9 0.8 0.7 0.6 0.5 0.4 0.3 0.2 0.1 1;
#X msg 102 277 \; \$1-wtable-z2b sinesum 515 0 0 0 0 1 0.1 1 0.2 1
0.3 1 0.4 1 0.5 1 0.7 1 0.8 1 0.9 1 1 0.9 1 0.8 1 0.7 1 0.6 1 0.5 1
0.4 1 0.3 1 0.2 1 0.1;
#X msg 45 479 \; \$1-wtable-z2c sinesum 515 0.9 0.9 0.9 1 0.1 -0.5
0.1 0 0.1 1 0.1 0 0.1 -0.5 0.1 0;
#X connect 0 0 1 0;
#X connect 1 0 2 0;
#X connect 2 0 12 0;
#X connect 2 1 18 0;
#X connect 4 0 5 0;
#X connect 5 0 6 0;
#X connect 6 0 14 0;
#X connect 6 1 19 0;
#X connect 8 0 9 0;
#X connect 9 0 10 0;
#X connect 10 0 16 0;
#X connect 10 1 20 0;
#X restore 26 113 pd z2;
#N canvas 0 22 687 641 z3 0;
#X obj 28 26 loadbang;
#X obj 28 48 f \$0;
#X obj 28 72 t f f;
#X text 79 26 PURE SINE WAVE;
#X obj 22 214 loadbang;
#X obj 22 236 f \$0;
#X obj 22 260 t f f;
#X text 73 214 SINE2;
#X obj 18 406 loadbang;
#X obj 18 428 f \$0;
#X obj 18 452 t f f;
#X text 69 406 SINE3;
#X msg 28 148 \; \$1-wtable-z3a normalize 1;
#X obj 26 188 table \$0-wtable-z3a;
#X msg 22 336 \; \$1-wtable-z3b normalize 1;
#X obj 20 376 table \$0-wtable-z3b;
#X msg 18 528 \; \$1-wtable-z3c normalize 1;
#X obj 16 568 table \$0-wtable-z3c;
#X msg 123 88 \; \$1-wtable-z3a sinesum 515 -1 0 -0.33 0 -0.2 0 -0.142857
0 -0.111111 0 0.090909 0 -0.076923 0 -0.066666 0 -0.058823 0 1;
#X msg 102 277 \; \$1-wtable-z3b sinesum 515 1 0 0 0 0.2 0 0 0 0.111111
0 0 0 0.076923 0 0 0 1 1 1 1;
#X msg 45 479 \; \$1-wtable-z3c sinesum 515 0 0 0 0 1 0 0 0 0 0.111111
0 0 0 0 0 0 0 0.058823 0 0 0.04 0 1 0 1;
#X connect 0 0 1 0;
#X connect 1 0 2 0;
#X connect 2 0 12 0;
#X connect 2 1 18 0;
#X connect 4 0 5 0;
#X connect 5 0 6 0;
#X connect 6 0 14 0;
#X connect 6 1 19 0;
#X connect 8 0 9 0;
#X connect 9 0 10 0;
#X connect 10 0 16 0;
#X connect 10 1 20 0;
#X restore 26 140 pd z3;
#X restore 331 76 pd tables;
#X obj 108 146 hsl 128 15 0 127 0 1 \$0-wtable-x-s \$0-wtable-x-r X
135 7 0 10 -262144 -1 -1 1200 1;
#X obj 108 161 hsl 128 15 0 127 0 1 \$0-wtable-y-s \$0-wtable-y-r Y
135 7 0 10 -262144 -1 -1 500 1;
#X obj 1145 352 inlet~ FM IN;
#X obj 608 123 inlet~ X;
#X obj 690 123 inlet~ Y;
#N canvas 64 24 612 639 ramps 0;
#X obj 109 152 sig~;
#X obj 109 174 +~;
#X obj 109 196 clip~ 0 1;
#X obj 94 451 *~;
#X obj 199 422 *~;
#X obj 305 530 *~;
#X obj 109 302 lop~ 10;
#X obj 215 301 lop~ 10;
#X obj 322 305 lop~ 10;
#X obj 94 548 outlet~;
#X obj 108 102 r \$0-wtable-x-s;
#X obj 109 130 * 0.00787402;
#X obj 94 75 r~ \$0-wtable-freq-s;
#X obj 298 157 r~ \$0-wtable-X-cv;
#X obj 199 367 r~ \$0-wtable-freq-s;
#X obj 305 480 r~ \$0-wtable-freq-s;
#X obj 94 344 tabosc4~ \$0-wtable-ramp1;
#X obj 199 390 tabosc4~ \$0-wtable-ramp2;
#X obj 305 505 tabosc4~ \$0-wtable-ramp3;
#X obj 109 245 expr~ if ($v1 < 0.5 \, (1-$v1*2) \, 0 ) \; if ($v1 <
0.5 \, $v1*2 \, (1-$v1+0.5)*2-1 ) \; if ($v1 > 0.5 \, ($v1*2-1) \,
0 );
#X connect 0 0 1 0;
#X connect 1 0 2 0;
#X connect 2 0 19 0;
#X connect 3 0 9 0;
#X connect 4 0 9 0;
#X connect 5 0 9 0;
#X connect 6 0 3 1;
#X connect 7 0 4 1;
#X connect 8 0 5 1;
#X connect 10 0 11 0;
#X connect 11 0 0 0;
#X connect 12 0 16 0;
#X connect 13 0 1 1;
#X connect 14 0 17 0;
#X connect 15 0 18 0;
#X connect 16 0 3 0;
#X connect 17 0 4 0;
#X connect 18 0 5 0;
#X connect 19 0 6 0;
#X connect 19 1 7 0;
#X connect 19 2 8 0;
#X restore 182 471 pd ramps;
#X obj 103 520 *~;
#X obj 182 520 *~;
#X obj 510 227 r \$0-wtable-y-s;
#X obj 238 520 *~;
#N canvas 64 24 612 639 pulses 0;
#X obj 109 152 sig~;
#X obj 109 174 +~;
#X obj 109 196 clip~ 0 1;
#X obj 94 451 *~;
#X obj 199 422 *~;
#X obj 305 530 *~;
#X obj 109 302 lop~ 10;
#X obj 215 301 lop~ 10;
#X obj 322 305 lop~ 10;
#X obj 94 548 outlet~;
#X obj 108 102 r \$0-wtable-x-s;
#X obj 109 130 * 0.00787402;
#X obj 94 75 r~ \$0-wtable-freq-s;
#X obj 298 157 r~ \$0-wtable-X-cv;
#X obj 199 367 r~ \$0-wtable-freq-s;
#X obj 305 480 r~ \$0-wtable-freq-s;
#X obj 94 344 tabosc4~ \$0-wtable-square1;
#X obj 199 390 tabosc4~ \$0-wtable-square2;
#X obj 305 504 tabosc4~ \$0-wtable-square3;
#X obj 109 245 expr~ if ($v1 < 0.5 \, (1-$v1*2) \, 0 ) \; if ($v1 <
0.5 \, $v1*2 \, (1-$v1+0.5)*2-1 ) \; if ($v1 > 0.5 \, ($v1*2-1) \,
0 );
#X connect 0 0 1 0;
#X connect 1 0 2 0;
#X connect 2 0 19 0;
#X connect 3 0 9 0;
#X connect 4 0 9 0;
#X connect 5 0 9 0;
#X connect 6 0 3 1;
#X connect 7 0 4 1;
#X connect 8 0 5 1;
#X connect 10 0 11 0;
#X connect 11 0 0 0;
#X connect 12 0 16 0;
#X connect 13 0 1 1;
#X connect 14 0 17 0;
#X connect 15 0 18 0;
#X connect 16 0 3 0;
#X connect 17 0 4 0;
#X connect 18 0 5 0;
#X connect 19 0 6 0;
#X connect 19 1 7 0;
#X connect 19 2 8 0;
#X restore 238 471 pd pulses;
#X obj 108 175 hsl 128 15 0 127 0 1 \$0-wtable-z-s \$0-wtable-z-r Z
135 7 0 10 -262144 -1 -1 10900 1;
#X obj 811 520 *~;
#X obj 890 520 *~;
#X obj 953 520 *~;
#X obj 104 434 s~ \$0-wtable-freq-s;
#X obj 103 624 *~;
#X obj 811 624 *~;
#X obj 353 452 r \$0-wtable-z-s;
#X obj 353 474 * 0.00787402;
#X obj 353 563 pack 0 50;
#X obj 353 585 line~;
#X obj 353 495 t f f;
#X obj 438 564 pack 0 50;
#X obj 438 586 line~;
#X obj 438 607 +~;
#X obj 353 607 +~;
#N canvas 64 24 612 639 z1a-c 0;
#X obj 109 152 sig~;
#X obj 109 174 +~;
#X obj 109 196 clip~ 0 1;
#X obj 94 451 *~;
#X obj 199 422 *~;
#X obj 305 530 *~;
#X obj 109 245 expr~ if ($v1 < 0.5 \, (1-$v1*2) \, 0 ) \; if ($v1 <
0.5 \, $v1*2 \, (1-$v1*$v1) ) \; if ($v1 > 0.5 \, (1-$v1*2) \, 0 )
;
#X obj 109 302 lop~ 10;
#X obj 215 301 lop~ 10;
#X obj 322 305 lop~ 10;
#X obj 94 548 outlet~;
#X obj 108 102 r \$0-wtable-x-s;
#X obj 109 130 * 0.00787402;
#X obj 94 75 r~ \$0-wtable-freq-s;
#X obj 298 157 r~ \$0-wtable-X-cv;
#X obj 199 367 r~ \$0-wtable-freq-s;
#X obj 305 480 r~ \$0-wtable-freq-s;
#X obj 94 344 tabosc4~ \$0-wtable-z1a;
#X obj 199 390 tabosc4~ \$0-wtable-z1b;
#X obj 305 504 tabosc4~ \$0-wtable-z1c;
#X connect 0 0 1 0;
#X connect 1 0 2 0;
#X connect 2 0 6 0;
#X connect 3 0 10 0;
#X connect 4 0 10 0;
#X connect 5 0 10 0;
#X connect 6 0 7 0;
#X connect 6 1 8 0;
#X connect 6 2 9 0;
#X connect 7 0 3 1;
#X connect 8 0 4 1;
#X connect 9 0 5 1;
#X connect 11 0 12 0;
#X connect 12 0 0 0;
#X connect 13 0 17 0;
#X connect 14 0 1 1;
#X connect 15 0 18 0;
#X connect 16 0 19 0;
#X connect 17 0 3 0;
#X connect 18 0 4 0;
#X connect 19 0 5 0;
#X restore 811 475 pd z1a-c;
#N canvas 64 24 612 639 z2a-c 0;
#X obj 109 152 sig~;
#X obj 109 174 +~;
#X obj 109 196 clip~ 0 1;
#X obj 94 451 *~;
#X obj 199 422 *~;
#X obj 305 530 *~;
#X obj 109 245 expr~ if ($v1 < 0.5 \, (1-$v1*2) \, 0 ) \; if ($v1 <
0.5 \, $v1*2 \, (1-$v1*$v1) ) \; if ($v1 > 0.5 \, (1-$v1*2) \, 0 )
;
#X obj 109 302 lop~ 10;
#X obj 215 301 lop~ 10;
#X obj 322 305 lop~ 10;
#X obj 94 548 outlet~;
#X obj 108 102 r \$0-wtable-x-s;
#X obj 109 130 * 0.00787402;
#X obj 94 75 r~ \$0-wtable-freq-s;
#X obj 298 157 r~ \$0-wtable-X-cv;
#X obj 199 367 r~ \$0-wtable-freq-s;
#X obj 305 480 r~ \$0-wtable-freq-s;
#X obj 94 344 tabosc4~ \$0-wtable-z2a;
#X obj 199 390 tabosc4~ \$0-wtable-z2b;
#X obj 305 504 tabosc4~ \$0-wtable-z2c;
#X connect 0 0 1 0;
#X connect 1 0 2 0;
#X connect 2 0 6 0;
#X connect 3 0 10 0;
#X connect 4 0 10 0;
#X connect 5 0 10 0;
#X connect 6 0 7 0;
#X connect 6 1 8 0;
#X connect 6 2 9 0;
#X connect 7 0 3 1;
#X connect 8 0 4 1;
#X connect 9 0 5 1;
#X connect 11 0 12 0;
#X connect 12 0 0 0;
#X connect 13 0 17 0;
#X connect 14 0 1 1;
#X connect 15 0 18 0;
#X connect 16 0 19 0;
#X connect 17 0 3 0;
#X connect 18 0 4 0;
#X connect 19 0 5 0;
#X restore 890 475 pd z2a-c;
#N canvas 64 24 612 639 z2a-c 0;
#X obj 109 152 sig~;
#X obj 109 174 +~;
#X obj 109 196 clip~ 0 1;
#X obj 94 451 *~;
#X obj 199 422 *~;
#X obj 305 530 *~;
#X obj 109 245 expr~ if ($v1 < 0.5 \, (1-$v1*2) \, 0 ) \; if ($v1 <
0.5 \, $v1*2 \, (1-$v1*$v1) ) \; if ($v1 > 0.5 \, (1-$v1*2) \, 0 )
;
#X obj 109 302 lop~ 10;
#X obj 215 301 lop~ 10;
#X obj 322 305 lop~ 10;
#X obj 94 548 outlet~;
#X obj 109 102 r \$0-wtable-x-s;
#X obj 109 130 * 0.00787402;
#X obj 94 75 r~ \$0-wtable-freq-s;
#X obj 298 157 r~ \$0-wtable-X-cv;
#X obj 199 367 r~ \$0-wtable-freq-s;
#X obj 305 480 r~ \$0-wtable-freq-s;
#X obj 94 344 tabosc4~ \$0-wtable-z3a;
#X obj 199 390 tabosc4~ \$0-wtable-z3b;
#X obj 305 504 tabosc4~ \$0-wtable-z3c;
#X connect 0 0 1 0;
#X connect 1 0 2 0;
#X connect 2 0 6 0;
#X connect 3 0 10 0;
#X connect 4 0 10 0;
#X connect 5 0 10 0;
#X connect 6 0 7 0;
#X connect 6 1 8 0;
#X connect 6 2 9 0;
#X connect 7 0 3 1;
#X connect 8 0 4 1;
#X connect 9 0 5 1;
#X connect 11 0 12 0;
#X connect 12 0 0 0;
#X connect 13 0 17 0;
#X connect 14 0 1 1;
#X connect 15 0 18 0;
#X connect 16 0 19 0;
#X connect 17 0 3 0;
#X connect 18 0 4 0;
#X connect 19 0 5 0;
#X restore 953 475 pd z2a-c;
#X obj 779 123 inlet~ Z;
#X obj 779 144 clip~ 0 1;
#X obj 773 567 abs~;
#X obj 773 589 *~ -1;
#X obj 144 108 cnv 5 5 5 empty empty X 0 0 0 8 -262144 -66577 0;
#X obj 185 108 cnv 5 5 5 empty empty Y 0 0 0 8 -262144 -66577 0;
#X obj 261 229 inlet~ PITCH CV;
#X obj 366 279 * 0.00787402;
#X obj 608 260 s~ \$0-wtable-X-cv;
#N canvas 64 24 612 639 sinusoids 0;
#X obj 109 152 sig~;
#X obj 109 174 +~;
#X obj 109 196 clip~ 0 1;
#X obj 94 451 *~;
#X obj 199 422 *~;
#X obj 305 530 *~;
#X obj 109 302 lop~ 10;
#X obj 215 301 lop~ 10;
#X obj 322 305 lop~ 10;
#X obj 94 548 outlet~;
#X obj 94 344 tabosc4~ \$0-wtable-sine;
#X obj 199 390 tabosc4~ \$0-wtable-sine2;
#X obj 305 505 tabosc4~ \$0-wtable-sine3;
#X obj 108 102 r \$0-wtable-x-s;
#X obj 109 130 * 0.00787402;
#X obj 94 75 r~ \$0-wtable-freq-s;
#X obj 298 157 r~ \$0-wtable-X-cv;
#X obj 199 367 r~ \$0-wtable-freq-s;
#X obj 305 480 r~ \$0-wtable-freq-s;
#X obj 109 245 expr~ if ($v1 < 0.5 \, (1-$v1*2) \, 0 ) \; if ($v1 <
0.5 \, $v1*2 \, (1-$v1+0.5)*2-1 ) \; if ($v1 > 0.5 \, ($v1*2-1) \,
0 );
#X connect 0 0 1 0;
#X connect 1 0 2 0;
#X connect 2 0 19 0;
#X connect 3 0 9 0;
#X connect 4 0 9 0;
#X connect 5 0 9 0;
#X connect 6 0 3 1;
#X connect 7 0 4 1;
#X connect 8 0 5 1;
#X connect 10 0 3 0;
#X connect 11 0 4 0;
#X connect 12 0 5 0;
#X connect 13 0 14 0;
#X connect 14 0 0 0;
#X connect 15 0 10 0;
#X connect 16 0 1 1;
#X connect 17 0 11 0;
#X connect 18 0 12 0;
#X connect 19 0 6 0;
#X connect 19 1 7 0;
#X connect 19 2 8 0;
#X restore 103 471 pd sinusoids;
#X text 224 434 GOES INTO TABLE SUBPATCHES BELOW:;
#X obj 503 643 *~ 1;
#X obj 503 698 outlet~;
#X msg 353 517 1 \$1;
#X obj 353 539 -;
#X obj 104 229 r \$0-wtable-pitch-s;
#X obj 366 251 r \$0-wtable-fm-att-s;
#X obj 228 108 cnv 5 5 5 empty empty Z 0 0 0 8 -262144 -66577 0;
#X obj 510 296 sig~;
#X obj 510 333 +~;
#X obj 510 377 clip~ 0 1;
#X obj 510 503 lop~ 10;
#X obj 628 503 lop~ 10;
#X obj 747 503 lop~ 10;
#X obj 510 261 * 0.00787402;
#X obj 510 404 expr~ if ($v1 < 0.5 \, (1-$v1*2) \, 0 ) \; if ($v1 <
0.5 \, $v1*2 \, (1-$v1+0.5)*2-1 ) \; if ($v1 > 0.5 \, ($v1*2-1) \,
0 );
#X obj 510 452 clip~ 0 1;
#X obj 628 459 clip~ 0 1;
#X obj 747 458 clip~ 0 1;
#N canvas 297 27 518 295 parameter-nudging-system 0;
#N canvas 0 22 484 497 param-nudge 0;
#X obj 124 234 random;
#X obj 232 335 f;
#X obj 232 368 +;
#X obj 257 166 random 2;
#X obj 124 275 t f f;
#X obj 124 351 t b f;
#X obj 124 297 *;
#X obj 257 188 sel 0 1;
#X msg 257 280 -1;
#X msg 335 280 1;
#X obj 124 149 t b b b;
#X obj 123 63 r NUDGE!;
#X obj 157 193 r NUDGE-RANGE;
#X obj 247 308 inlet;
#X obj 232 397 outlet;
#X floatatom 316 396 5 0 0 0 - - -;
#X obj 123 107 spigot;
#X obj 172 90 r frequencies2-s;
#X connect 0 0 4 0;
#X connect 1 0 2 0;
#X connect 2 0 14 0;
#X connect 2 0 15 0;
#X connect 3 0 7 0;
#X connect 4 0 6 0;
#X connect 5 0 2 0;
#X connect 5 1 2 1;
#X connect 6 0 5 0;
#X connect 7 0 8 0;
#X connect 7 1 9 0;
#X connect 8 0 6 1;
#X connect 9 0 6 1;
#X connect 10 0 0 0;
#X connect 10 1 1 0;
#X connect 10 2 3 0;
#X connect 11 0 16 0;
#X connect 12 0 0 1;
#X connect 13 0 1 1;
#X connect 16 0 10 0;
#X connect 17 0 16 1;
#X restore 23 45 pd param-nudge;
#N canvas 0 22 484 497 param-nudge 0;
#X obj 124 234 random;
#X obj 232 335 f;
#X obj 232 368 +;
#X obj 257 166 random 2;
#X obj 124 275 t f f;
#X obj 124 351 t b f;
#X obj 124 297 *;
#X obj 257 188 sel 0 1;
#X msg 257 280 -1;
#X msg 335 280 1;
#X obj 124 149 t b b b;
#X obj 124 67 r NUDGE!;
#X obj 157 193 r NUDGE-RANGE;
#X obj 247 308 inlet;
#X obj 232 397 outlet;
#X obj 124 115 spigot;
#X obj 157 89 r parameters2-s;
#X connect 0 0 4 0;
#X connect 1 0 2 0;
#X connect 2 0 14 0;
#X connect 3 0 7 0;
#X connect 4 0 6 0;
#X connect 5 0 2 0;
#X connect 5 1 2 1;
#X connect 6 0 5 0;
#X connect 7 0 8 0;
#X connect 7 1 9 0;
#X connect 8 0 6 1;
#X connect 9 0 6 1;
#X connect 10 0 0 0;
#X connect 10 1 1 0;
#X connect 10 2 3 0;
#X connect 11 0 15 0;
#X connect 12 0 0 1;
#X connect 13 0 1 1;
#X connect 15 0 10 0;
#X connect 16 0 15 1;
#X restore 171 45 pd param-nudge;
#N canvas 0 22 484 497 param-nudge 0;
#X obj 124 234 random;
#X obj 232 335 f;
#X obj 232 368 +;
#X obj 257 166 random 2;
#X obj 124 275 t f f;
#X obj 124 351 t b f;
#X obj 124 297 *;
#X obj 257 188 sel 0 1;
#X msg 257 280 -1;
#X msg 335 280 1;
#X obj 124 149 t b b b;
#X obj 124 64 r NUDGE!;
#X obj 157 193 r NUDGE-RANGE;
#X obj 247 308 inlet;
#X obj 232 397 outlet;
#X obj 124 123 spigot;
#X obj 157 96 r parameters2-s;
#X connect 0 0 4 0;
#X connect 1 0 2 0;
#X connect 2 0 14 0;
#X connect 3 0 7 0;
#X connect 4 0 6 0;
#X connect 5 0 2 0;
#X connect 5 1 2 1;
#X connect 6 0 5 0;
#X connect 7 0 8 0;
#X connect 7 1 9 0;
#X connect 8 0 6 1;
#X connect 9 0 6 1;
#X connect 10 0 0 0;
#X connect 10 1 1 0;
#X connect 10 2 3 0;
#X connect 11 0 15 0;
#X connect 12 0 0 1;
#X connect 13 0 1 1;
#X connect 15 0 10 0;
#X connect 16 0 15 1;
#X restore 281 45 pd param-nudge;
#N canvas 0 22 484 497 param-nudge 0;
#X obj 124 234 random;
#X obj 232 335 f;
#X obj 232 368 +;
#X obj 257 166 random 2;
#X obj 124 275 t f f;
#X obj 124 351 t b f;
#X obj 124 297 *;
#X obj 257 188 sel 0 1;
#X msg 257 280 -1;
#X msg 335 280 1;
#X obj 124 149 t b b b;
#X obj 124 57 r NUDGE!;
#X obj 157 193 r NUDGE-RANGE;
#X obj 247 308 inlet;
#X obj 232 397 outlet;
#X obj 124 105 spigot;
#X obj 157 82 r parameters2-s;
#X connect 0 0 4 0;
#X connect 1 0 2 0;
#X connect 2 0 14 0;
#X connect 3 0 7 0;
#X connect 4 0 6 0;
#X connect 5 0 2 0;
#X connect 5 1 2 1;
#X connect 6 0 5 0;
#X connect 7 0 8 0;
#X connect 7 1 9 0;
#X connect 8 0 6 1;
#X connect 9 0 6 1;
#X connect 10 0 0 0;
#X connect 10 1 1 0;
#X connect 10 2 3 0;
#X connect 11 0 15 0;
#X connect 12 0 0 1;
#X connect 13 0 1 1;
#X connect 15 0 10 0;
#X connect 16 0 15 1;
#X restore 21 149 pd param-nudge;
#N canvas 0 22 484 497 param-nudge 0;
#X obj 124 234 random;
#X obj 232 335 f;
#X obj 232 368 +;
#X obj 257 166 random 2;
#X obj 124 275 t f f;
#X obj 124 351 t b f;
#X obj 124 297 *;
#X obj 257 188 sel 0 1;
#X msg 257 280 -1;
#X msg 335 280 1;
#X obj 124 149 t b b b;
#X obj 124 75 r NUDGE!;
#X obj 157 193 r NUDGE-RANGE;
#X obj 247 308 inlet;
#X obj 232 397 outlet;
#X obj 124 97 spigot;
#X obj 191 80 r attenuators2-s;
#X connect 0 0 4 0;
#X connect 1 0 2 0;
#X connect 2 0 14 0;
#X connect 3 0 7 0;
#X connect 4 0 6 0;
#X connect 5 0 2 0;
#X connect 5 1 2 1;
#X connect 6 0 5 0;
#X connect 7 0 8 0;
#X connect 7 1 9 0;
#X connect 8 0 6 1;
#X connect 9 0 6 1;
#X connect 10 0 0 0;
#X connect 10 1 1 0;
#X connect 10 2 3 0;
#X connect 11 0 15 0;
#X connect 12 0 0 1;
#X connect 13 0 1 1;
#X connect 15 0 10 0;
#X connect 16 0 15 1;
#X restore 170 149 pd param-nudge;
#X obj 23 22 r \$0-wtable-pitch-s;
#X obj 23 95 s \$0-wtable-pitch-r;
#X obj 171 22 r \$0-wtable-x-s;
#X obj 171 95 s \$0-wtable-x-r;
#X obj 281 22 r \$0-wtable-y-s;
#X obj 281 95 s \$0-wtable-y-r;
#X obj 21 126 r \$0-wtable-z-s;
#X obj 21 198 s \$0-wtable-z-r;
#X obj 170 126 r \$0-wtable-fm-att-s;
#X obj 170 197 s \$0-wtable-fm-att-r;
#X obj 21 171 clip 0 127;
#X obj 170 171 clip 0 127;
#X obj 23 67 clip 0 127;
#X obj 171 67 clip 0 127;
#X obj 281 69 clip 0 127;
#X connect 0 0 17 0;
#X connect 1 0 18 0;
#X connect 2 0 19 0;
#X connect 3 0 15 0;
#X connect 4 0 16 0;
#X connect 5 0 0 0;
#X connect 7 0 1 0;
#X connect 9 0 2 0;
#X connect 11 0 3 0;
#X connect 13 0 4 0;
#X connect 15 0 12 0;
#X connect 16 0 14 0;
#X connect 17 0 6 0;
#X connect 18 0 8 0;
#X connect 19 0 10 0;
#X restore 332 55 pd parameter-nudging-system;
#X connect 0 0 17 0;
#X connect 0 1 3 0;
#X connect 1 0 4 0;
#X connect 2 0 13 0;
#X connect 4 0 2 0;
#X connect 5 0 12 0;
#X connect 6 0 7 0;
#X connect 7 0 5 1;
#X connect 12 0 13 1;
#X connect 13 0 35 0;
#X connect 14 0 1 0;
#X connect 17 0 14 0;
#X connect 18 0 4 1;
#X connect 22 0 5 0;
#X connect 23 0 58 0;
#X connect 24 0 69 1;
#X connect 25 0 27 0;
#X connect 26 0 36 0;
#X connect 27 0 36 0;
#X connect 28 0 74 0;
#X connect 29 0 36 0;
#X connect 30 0 29 0;
#X connect 32 0 37 0;
#X connect 33 0 37 0;
#X connect 34 0 37 0;
#X connect 36 0 61 0;
#X connect 37 0 61 0;
#X connect 38 0 39 0;
#X connect 39 0 42 0;
#X connect 40 0 41 0;
#X connect 41 0 46 0;
#X connect 42 0 63 0;
#X connect 42 1 43 0;
#X connect 43 0 44 0;
#X connect 44 0 45 0;
#X connect 45 0 37 1;
#X connect 46 0 36 1;
#X connect 47 0 32 0;
#X connect 48 0 33 0;
#X connect 49 0 34 0;
#X connect 50 0 51 0;
#X connect 51 0 52 0;
#X connect 51 0 45 1;
#X connect 52 0 53 0;
#X connect 53 0 46 1;
#X connect 56 0 18 0;
#X connect 57 0 6 0;
#X connect 59 0 26 0;
#X connect 61 0 62 0;
#X connect 63 0 64 0;
#X connect 64 0 40 0;
#X connect 65 0 0 0;
#X connect 66 0 57 0;
#X connect 68 0 69 0;
#X connect 69 0 70 0;
#X connect 70 0 75 0;
#X connect 71 0 32 1;
#X connect 71 0 26 1;
#X connect 72 0 27 1;
#X connect 72 0 33 1;
#X connect 73 0 29 1;
#X connect 73 0 34 1;
#X connect 74 0 68 0;
#X connect 75 0 76 0;
#X connect 75 1 77 0;
#X connect 75 2 78 0;
#X connect 76 0 71 0;
#X connect 77 0 72 0;
#X connect 78 0 73 0;
#X coords 0 -1 1 1 175 112 1 100 100;
#X restore 38 190 pd wave;
#X obj 239 136 random 127;
#X obj 239 77 loadbang;
#X floatatom 293 168 5 0 0 0 - - -;
#X obj 239 106 metro 500;
#X obj 238 167 / 127;
#X connect 0 0 1 0;
#X connect 1 0 112 0;
#X connect 2 0 17 0;
#X connect 3 0 15 0;
#X connect 4 0 16 0;
#X connect 5 0 27 0;
#X connect 6 0 7 0;
#X connect 6 1 12 0;
#X connect 7 0 8 0;
#X connect 8 0 9 0;
#X connect 9 0 10 0;
#X connect 10 0 11 0;
#X connect 11 0 3 1;
#X connect 12 0 13 0;
#X connect 13 0 14 0;
#X connect 14 0 4 1;
#X connect 17 0 3 0;
#X connect 17 0 4 0;
#X connect 18 0 22 0;
#X connect 19 0 25 0;
#X connect 20 0 21 0;
#X connect 21 0 17 1;
#X connect 22 0 19 0;
#X connect 23 0 24 0;
#X connect 23 0 14 1;
#X connect 24 0 11 1;
#X connect 25 0 20 0;
#X connect 25 0 26 0;
#X connect 27 0 6 0;
#X connect 28 0 39 0;
#X connect 29 0 40 0;
#X connect 30 0 31 0;
#X connect 30 1 36 0;
#X connect 31 0 32 0;
#X connect 32 0 33 0;
#X connect 33 0 34 0;
#X connect 34 0 35 0;
#X connect 35 0 28 1;
#X connect 36 0 37 0;
#X connect 37 0 38 0;
#X connect 38 0 29 1;
#X connect 41 0 28 0;
#X connect 41 0 29 0;
#X connect 42 0 43 0;
#X connect 43 0 41 1;
#X connect 44 0 51 0;
#X connect 45 0 41 0;
#X connect 46 0 44 0;
#X connect 47 0 52 0;
#X connect 48 0 35 1;
#X connect 49 0 48 0;
#X connect 49 0 38 1;
#X connect 50 0 42 0;
#X connect 51 0 50 0;
#X connect 52 0 30 0;
#X connect 53 0 62 0;
#X connect 54 0 61 0;
#X connect 55 0 57 0;
#X connect 57 0 56 0;
#X connect 58 0 59 0;
#X connect 59 0 60 0;
#X connect 61 0 73 0;
#X connect 62 0 72 0;
#X connect 63 0 67 0;
#X connect 64 0 65 0;
#X connect 65 0 66 0;
#X connect 66 0 61 1;
#X connect 66 0 62 1;
#X connect 67 0 64 0;
#X connect 68 0 83 0;
#X connect 69 0 74 1;
#X connect 70 0 81 0;
#X connect 71 0 74 0;
#X connect 72 0 55 0;
#X connect 72 0 70 0;
#X connect 73 0 58 0;
#X connect 73 0 68 0;
#X connect 75 0 76 0;
#X connect 76 0 77 0;
#X connect 77 0 79 0;
#X connect 78 0 80 0;
#X connect 79 0 78 0;
#X connect 80 0 85 0;
#X connect 81 0 82 0;
#X connect 82 0 71 0;
#X connect 83 0 84 0;
#X connect 84 0 69 0;
#X connect 85 0 86 0;
#X connect 86 0 81 1;
#X connect 86 1 82 1;
#X connect 86 2 83 1;
#X connect 86 3 84 1;
#X connect 111 0 112 4;
#X connect 112 0 17 0;
#X connect 112 0 41 0;
#X connect 113 0 115 0;
#X connect 113 0 117 0;
#X connect 114 0 116 0;
#X connect 116 0 113 0;
#X connect 117 0 0 0;
